<?xml version="1.0" encoding="utf-8" standalone="no"?>
<!DOCTYPE svg PUBLIC "-//W3C//DTD SVG 1.1//EN"
  "http://www.w3.org/Graphics/SVG/1.1/DTD/svg11.dtd">
<svg xmlns:xlink="http://www.w3.org/1999/xlink" width="460.8pt" height="345.6pt" viewBox="0 0 460.8 345.6" xmlns="http://www.w3.org/2000/svg" version="1.1">
 <metadata>
  <rdf:RDF xmlns:dc="http://purl.org/dc/elements/1.1/" xmlns:cc="http://creativecommons.org/ns#" xmlns:rdf="http://www.w3.org/1999/02/22-rdf-syntax-ns#">
   <cc:Work>
    <dc:type rdf:resource="http://purl.org/dc/dcmitype/StillImage"/>
    <dc:date>2023-09-20T17:13:13.611291</dc:date>
    <dc:format>image/svg+xml</dc:format>
    <dc:creator>
     <cc:Agent>
      <dc:title>Matplotlib v3.7.2, https://matplotlib.org/</dc:title>
     </cc:Agent>
    </dc:creator>
   </cc:Work>
  </rdf:RDF>
 </metadata>
 <defs>
  <style type="text/css">*{stroke-linejoin: round; stroke-linecap: butt}</style>
 </defs>
 <g id="figure_1">
  <g id="patch_1">
   <path d="M 0 345.6 
L 460.8 345.6 
L 460.8 0 
L 0 0 
z
" style="fill: #ffffff"/>
  </g>
  <g id="axes_1">
   <g id="patch_2">
    <path d="M 65.34 297.54 
L 447.84 297.54 
L 447.84 27.6 
L 65.34 27.6 
z
" style="fill: #eaeaf2"/>
   </g>
   <g id="matplotlib.axis_1">
    <g id="xtick_1">
     <g id="line2d_1">
      <path d="M 121.182785 297.54 
L 121.182785 27.6 
" clip-path="url(#p4c01790839)" style="fill: none; stroke: #ffffff; stroke-linecap: round"/>
     </g>
     <g id="text_1">
      <!-- $500 -->
      <g style="fill: #262626" transform="translate(107.185285 315.398281) scale(0.11 -0.11)">
       <defs>
        <path id="DejaVuSans-24" d="M 2163 -941 
L 1850 -941 
L 1847 0 
Q 1519 6 1191 76 
Q 863 147 531 288 
L 531 850 
Q 850 650 1176 548 
Q 1503 447 1850 444 
L 1850 1869 
Q 1159 1981 845 2250 
Q 531 2519 531 2988 
Q 531 3497 872 3790 
Q 1213 4084 1850 4128 
L 1850 4863 
L 2163 4863 
L 2163 4138 
Q 2453 4125 2725 4076 
Q 2997 4028 3256 3944 
L 3256 3397 
Q 2997 3528 2723 3600 
Q 2450 3672 2163 3684 
L 2163 2350 
Q 2872 2241 3206 1959 
Q 3541 1678 3541 1191 
Q 3541 663 3186 358 
Q 2831 53 2163 6 
L 2163 -941 
z
M 1850 2406 
L 1850 3688 
Q 1488 3647 1297 3481 
Q 1106 3316 1106 3041 
Q 1106 2772 1282 2622 
Q 1459 2472 1850 2406 
z
M 2163 1806 
L 2163 453 
Q 2559 506 2761 678 
Q 2963 850 2963 1131 
Q 2963 1406 2770 1568 
Q 2578 1731 2163 1806 
z
" transform="scale(0.015625)"/>
        <path id="DejaVuSans-35" d="M 691 4666 
L 3169 4666 
L 3169 4134 
L 1269 4134 
L 1269 2991 
Q 1406 3038 1543 3061 
Q 1681 3084 1819 3084 
Q 2600 3084 3056 2656 
Q 3513 2228 3513 1497 
Q 3513 744 3044 326 
Q 2575 -91 1722 -91 
Q 1428 -91 1123 -41 
Q 819 9 494 109 
L 494 744 
Q 775 591 1075 516 
Q 1375 441 1709 441 
Q 2250 441 2565 725 
Q 2881 1009 2881 1497 
Q 2881 1984 2565 2268 
Q 2250 2553 1709 2553 
Q 1456 2553 1204 2497 
Q 953 2441 691 2322 
L 691 4666 
z
" transform="scale(0.015625)"/>
        <path id="DejaVuSans-30" d="M 2034 4250 
Q 1547 4250 1301 3770 
Q 1056 3291 1056 2328 
Q 1056 1369 1301 889 
Q 1547 409 2034 409 
Q 2525 409 2770 889 
Q 3016 1369 3016 2328 
Q 3016 3291 2770 3770 
Q 2525 4250 2034 4250 
z
M 2034 4750 
Q 2819 4750 3233 4129 
Q 3647 3509 3647 2328 
Q 3647 1150 3233 529 
Q 2819 -91 2034 -91 
Q 1250 -91 836 529 
Q 422 1150 422 2328 
Q 422 3509 836 4129 
Q 1250 4750 2034 4750 
z
" transform="scale(0.015625)"/>
       </defs>
       <use xlink:href="#DejaVuSans-24"/>
       <use xlink:href="#DejaVuSans-35" x="63.623047"/>
       <use xlink:href="#DejaVuSans-30" x="127.246094"/>
       <use xlink:href="#DejaVuSans-30" x="190.869141"/>
      </g>
     </g>
    </g>
    <g id="xtick_2">
     <g id="line2d_2">
      <path d="M 165.175589 297.54 
L 165.175589 27.6 
" clip-path="url(#p4c01790839)" style="fill: none; stroke: #ffffff; stroke-linecap: round"/>
     </g>
     <g id="text_2">
      <!-- $1,000 -->
      <g style="fill: #262626" transform="translate(145.930745 315.398281) scale(0.11 -0.11)">
       <defs>
        <path id="DejaVuSans-31" d="M 794 531 
L 1825 531 
L 1825 4091 
L 703 3866 
L 703 4441 
L 1819 4666 
L 2450 4666 
L 2450 531 
L 3481 531 
L 3481 0 
L 794 0 
L 794 531 
z
" transform="scale(0.015625)"/>
        <path id="DejaVuSans-2c" d="M 750 794 
L 1409 794 
L 1409 256 
L 897 -744 
L 494 -744 
L 750 256 
L 750 794 
z
" transform="scale(0.015625)"/>
       </defs>
       <use xlink:href="#DejaVuSans-24"/>
       <use xlink:href="#DejaVuSans-31" x="63.623047"/>
       <use xlink:href="#DejaVuSans-2c" x="127.246094"/>
       <use xlink:href="#DejaVuSans-30" x="159.033203"/>
       <use xlink:href="#DejaVuSans-30" x="222.65625"/>
       <use xlink:href="#DejaVuSans-30" x="286.279297"/>
      </g>
     </g>
    </g>
    <g id="xtick_3">
     <g id="line2d_3">
      <path d="M 267.323718 297.54 
L 267.323718 27.6 
" clip-path="url(#p4c01790839)" style="fill: none; stroke: #ffffff; stroke-linecap: round"/>
     </g>
     <g id="text_3">
      <!-- $5,000 -->
      <g style="fill: #262626" transform="translate(248.078874 315.398281) scale(0.11 -0.11)">
       <use xlink:href="#DejaVuSans-24"/>
       <use xlink:href="#DejaVuSans-35" x="63.623047"/>
       <use xlink:href="#DejaVuSans-2c" x="127.246094"/>
       <use xlink:href="#DejaVuSans-30" x="159.033203"/>
       <use xlink:href="#DejaVuSans-30" x="222.65625"/>
       <use xlink:href="#DejaVuSans-30" x="286.279297"/>
      </g>
     </g>
    </g>
    <g id="xtick_4">
     <g id="line2d_4">
      <path d="M 311.316522 297.54 
L 311.316522 27.6 
" clip-path="url(#p4c01790839)" style="fill: none; stroke: #ffffff; stroke-linecap: round"/>
     </g>
     <g id="text_4">
      <!-- $10,000 -->
      <g style="fill: #262626" transform="translate(288.572304 315.398281) scale(0.11 -0.11)">
       <use xlink:href="#DejaVuSans-24"/>
       <use xlink:href="#DejaVuSans-31" x="63.623047"/>
       <use xlink:href="#DejaVuSans-30" x="127.246094"/>
       <use xlink:href="#DejaVuSans-2c" x="190.869141"/>
       <use xlink:href="#DejaVuSans-30" x="222.65625"/>
       <use xlink:href="#DejaVuSans-30" x="286.279297"/>
       <use xlink:href="#DejaVuSans-30" x="349.902344"/>
      </g>
     </g>
    </g>
    <g id="xtick_5">
     <g id="line2d_5">
      <path d="M 413.464651 297.54 
L 413.464651 27.6 
" clip-path="url(#p4c01790839)" style="fill: none; stroke: #ffffff; stroke-linecap: round"/>
     </g>
     <g id="text_5">
      <!-- $50,000 -->
      <g style="fill: #262626" transform="translate(390.720432 315.398281) scale(0.11 -0.11)">
       <use xlink:href="#DejaVuSans-24"/>
       <use xlink:href="#DejaVuSans-35" x="63.623047"/>
       <use xlink:href="#DejaVuSans-30" x="127.246094"/>
       <use xlink:href="#DejaVuSans-2c" x="190.869141"/>
       <use xlink:href="#DejaVuSans-30" x="222.65625"/>
       <use xlink:href="#DejaVuSans-30" x="286.279297"/>
       <use xlink:href="#DejaVuSans-30" x="349.902344"/>
      </g>
     </g>
    </g>
    <g id="text_6">
     <!-- Bitcoin to USD Rate -->
     <g style="fill: #262626" transform="translate(197.695313 330.804062) scale(0.12 -0.12)">
      <defs>
       <path id="DejaVuSans-42" d="M 1259 2228 
L 1259 519 
L 2272 519 
Q 2781 519 3026 730 
Q 3272 941 3272 1375 
Q 3272 1813 3026 2020 
Q 2781 2228 2272 2228 
L 1259 2228 
z
M 1259 4147 
L 1259 2741 
L 2194 2741 
Q 2656 2741 2882 2914 
Q 3109 3088 3109 3444 
Q 3109 3797 2882 3972 
Q 2656 4147 2194 4147 
L 1259 4147 
z
M 628 4666 
L 2241 4666 
Q 2963 4666 3353 4366 
Q 3744 4066 3744 3513 
Q 3744 3084 3544 2831 
Q 3344 2578 2956 2516 
Q 3422 2416 3680 2098 
Q 3938 1781 3938 1306 
Q 3938 681 3513 340 
Q 3088 0 2303 0 
L 628 0 
L 628 4666 
z
" transform="scale(0.015625)"/>
       <path id="DejaVuSans-69" d="M 603 3500 
L 1178 3500 
L 1178 0 
L 603 0 
L 603 3500 
z
M 603 4863 
L 1178 4863 
L 1178 4134 
L 603 4134 
L 603 4863 
z
" transform="scale(0.015625)"/>
       <path id="DejaVuSans-74" d="M 1172 4494 
L 1172 3500 
L 2356 3500 
L 2356 3053 
L 1172 3053 
L 1172 1153 
Q 1172 725 1289 603 
Q 1406 481 1766 481 
L 2356 481 
L 2356 0 
L 1766 0 
Q 1100 0 847 248 
Q 594 497 594 1153 
L 594 3053 
L 172 3053 
L 172 3500 
L 594 3500 
L 594 4494 
L 1172 4494 
z
" transform="scale(0.015625)"/>
       <path id="DejaVuSans-63" d="M 3122 3366 
L 3122 2828 
Q 2878 2963 2633 3030 
Q 2388 3097 2138 3097 
Q 1578 3097 1268 2742 
Q 959 2388 959 1747 
Q 959 1106 1268 751 
Q 1578 397 2138 397 
Q 2388 397 2633 464 
Q 2878 531 3122 666 
L 3122 134 
Q 2881 22 2623 -34 
Q 2366 -91 2075 -91 
Q 1284 -91 818 406 
Q 353 903 353 1747 
Q 353 2603 823 3093 
Q 1294 3584 2113 3584 
Q 2378 3584 2631 3529 
Q 2884 3475 3122 3366 
z
" transform="scale(0.015625)"/>
       <path id="DejaVuSans-6f" d="M 1959 3097 
Q 1497 3097 1228 2736 
Q 959 2375 959 1747 
Q 959 1119 1226 758 
Q 1494 397 1959 397 
Q 2419 397 2687 759 
Q 2956 1122 2956 1747 
Q 2956 2369 2687 2733 
Q 2419 3097 1959 3097 
z
M 1959 3584 
Q 2709 3584 3137 3096 
Q 3566 2609 3566 1747 
Q 3566 888 3137 398 
Q 2709 -91 1959 -91 
Q 1206 -91 779 398 
Q 353 888 353 1747 
Q 353 2609 779 3096 
Q 1206 3584 1959 3584 
z
" transform="scale(0.015625)"/>
       <path id="DejaVuSans-6e" d="M 3513 2113 
L 3513 0 
L 2938 0 
L 2938 2094 
Q 2938 2591 2744 2837 
Q 2550 3084 2163 3084 
Q 1697 3084 1428 2787 
Q 1159 2491 1159 1978 
L 1159 0 
L 581 0 
L 581 3500 
L 1159 3500 
L 1159 2956 
Q 1366 3272 1645 3428 
Q 1925 3584 2291 3584 
Q 2894 3584 3203 3211 
Q 3513 2838 3513 2113 
z
" transform="scale(0.015625)"/>
       <path id="DejaVuSans-20" transform="scale(0.015625)"/>
       <path id="DejaVuSans-55" d="M 556 4666 
L 1191 4666 
L 1191 1831 
Q 1191 1081 1462 751 
Q 1734 422 2344 422 
Q 2950 422 3222 751 
Q 3494 1081 3494 1831 
L 3494 4666 
L 4128 4666 
L 4128 1753 
Q 4128 841 3676 375 
Q 3225 -91 2344 -91 
Q 1459 -91 1007 375 
Q 556 841 556 1753 
L 556 4666 
z
" transform="scale(0.015625)"/>
       <path id="DejaVuSans-53" d="M 3425 4513 
L 3425 3897 
Q 3066 4069 2747 4153 
Q 2428 4238 2131 4238 
Q 1616 4238 1336 4038 
Q 1056 3838 1056 3469 
Q 1056 3159 1242 3001 
Q 1428 2844 1947 2747 
L 2328 2669 
Q 3034 2534 3370 2195 
Q 3706 1856 3706 1288 
Q 3706 609 3251 259 
Q 2797 -91 1919 -91 
Q 1588 -91 1214 -16 
Q 841 59 441 206 
L 441 856 
Q 825 641 1194 531 
Q 1563 422 1919 422 
Q 2459 422 2753 634 
Q 3047 847 3047 1241 
Q 3047 1584 2836 1778 
Q 2625 1972 2144 2069 
L 1759 2144 
Q 1053 2284 737 2584 
Q 422 2884 422 3419 
Q 422 4038 858 4394 
Q 1294 4750 2059 4750 
Q 2388 4750 2728 4690 
Q 3069 4631 3425 4513 
z
" transform="scale(0.015625)"/>
       <path id="DejaVuSans-44" d="M 1259 4147 
L 1259 519 
L 2022 519 
Q 2988 519 3436 956 
Q 3884 1394 3884 2338 
Q 3884 3275 3436 3711 
Q 2988 4147 2022 4147 
L 1259 4147 
z
M 628 4666 
L 1925 4666 
Q 3281 4666 3915 4102 
Q 4550 3538 4550 2338 
Q 4550 1131 3912 565 
Q 3275 0 1925 0 
L 628 0 
L 628 4666 
z
" transform="scale(0.015625)"/>
       <path id="DejaVuSans-52" d="M 2841 2188 
Q 3044 2119 3236 1894 
Q 3428 1669 3622 1275 
L 4263 0 
L 3584 0 
L 2988 1197 
Q 2756 1666 2539 1819 
Q 2322 1972 1947 1972 
L 1259 1972 
L 1259 0 
L 628 0 
L 628 4666 
L 2053 4666 
Q 2853 4666 3247 4331 
Q 3641 3997 3641 3322 
Q 3641 2881 3436 2590 
Q 3231 2300 2841 2188 
z
M 1259 4147 
L 1259 2491 
L 2053 2491 
Q 2509 2491 2742 2702 
Q 2975 2913 2975 3322 
Q 2975 3731 2742 3939 
Q 2509 4147 2053 4147 
L 1259 4147 
z
" transform="scale(0.015625)"/>
       <path id="DejaVuSans-61" d="M 2194 1759 
Q 1497 1759 1228 1600 
Q 959 1441 959 1056 
Q 959 750 1161 570 
Q 1363 391 1709 391 
Q 2188 391 2477 730 
Q 2766 1069 2766 1631 
L 2766 1759 
L 2194 1759 
z
M 3341 1997 
L 3341 0 
L 2766 0 
L 2766 531 
Q 2569 213 2275 61 
Q 1981 -91 1556 -91 
Q 1019 -91 701 211 
Q 384 513 384 1019 
Q 384 1609 779 1909 
Q 1175 2209 1959 2209 
L 2766 2209 
L 2766 2266 
Q 2766 2663 2505 2880 
Q 2244 3097 1772 3097 
Q 1472 3097 1187 3025 
Q 903 2953 641 2809 
L 641 3341 
Q 956 3463 1253 3523 
Q 1550 3584 1831 3584 
Q 2591 3584 2966 3190 
Q 3341 2797 3341 1997 
z
" transform="scale(0.015625)"/>
       <path id="DejaVuSans-65" d="M 3597 1894 
L 3597 1613 
L 953 1613 
Q 991 1019 1311 708 
Q 1631 397 2203 397 
Q 2534 397 2845 478 
Q 3156 559 3463 722 
L 3463 178 
Q 3153 47 2828 -22 
Q 2503 -91 2169 -91 
Q 1331 -91 842 396 
Q 353 884 353 1716 
Q 353 2575 817 3079 
Q 1281 3584 2069 3584 
Q 2775 3584 3186 3129 
Q 3597 2675 3597 1894 
z
M 3022 2063 
Q 3016 2534 2758 2815 
Q 2500 3097 2075 3097 
Q 1594 3097 1305 2825 
Q 1016 2553 972 2059 
L 3022 2063 
z
" transform="scale(0.015625)"/>
      </defs>
      <use xlink:href="#DejaVuSans-42"/>
      <use xlink:href="#DejaVuSans-69" x="68.603516"/>
      <use xlink:href="#DejaVuSans-74" x="96.386719"/>
      <use xlink:href="#DejaVuSans-63" x="135.595703"/>
      <use xlink:href="#DejaVuSans-6f" x="190.576172"/>
      <use xlink:href="#DejaVuSans-69" x="251.757812"/>
      <use xlink:href="#DejaVuSans-6e" x="279.541016"/>
      <use xlink:href="#DejaVuSans-20" x="342.919922"/>
      <use xlink:href="#DejaVuSans-74" x="374.707031"/>
      <use xlink:href="#DejaVuSans-6f" x="413.916016"/>
      <use xlink:href="#DejaVuSans-20" x="475.097656"/>
      <use xlink:href="#DejaVuSans-55" x="506.884766"/>
      <use xlink:href="#DejaVuSans-53" x="580.078125"/>
      <use xlink:href="#DejaVuSans-44" x="643.554688"/>
      <use xlink:href="#DejaVuSans-20" x="720.556641"/>
      <use xlink:href="#DejaVuSans-52" x="752.34375"/>
      <use xlink:href="#DejaVuSans-61" x="819.576172"/>
      <use xlink:href="#DejaVuSans-74" x="880.855469"/>
      <use xlink:href="#DejaVuSans-65" x="920.064453"/>
     </g>
    </g>
   </g>
   <g id="matplotlib.axis_2">
    <g id="ytick_1">
     <g id="line2d_6">
      <path d="M 65.34 256.480186 
L 447.84 256.480186 
" clip-path="url(#p4c01790839)" style="fill: none; stroke: #ffffff; stroke-linecap: round"/>
     </g>
     <g id="text_7">
      <!-- $400 -->
      <g style="fill: #262626" transform="translate(27.845 260.659327) scale(0.11 -0.11)">
       <defs>
        <path id="DejaVuSans-34" d="M 2419 4116 
L 825 1625 
L 2419 1625 
L 2419 4116 
z
M 2253 4666 
L 3047 4666 
L 3047 1625 
L 3713 1625 
L 3713 1100 
L 3047 1100 
L 3047 0 
L 2419 0 
L 2419 1100 
L 313 1100 
L 313 1709 
L 2253 4666 
z
" transform="scale(0.015625)"/>
       </defs>
       <use xlink:href="#DejaVuSans-24"/>
       <use xlink:href="#DejaVuSans-34" x="63.623047"/>
       <use xlink:href="#DejaVuSans-30" x="127.246094"/>
       <use xlink:href="#DejaVuSans-30" x="190.869141"/>
      </g>
     </g>
    </g>
    <g id="ytick_2">
     <g id="line2d_7">
      <path d="M 65.34 207.061708 
L 447.84 207.061708 
" clip-path="url(#p4c01790839)" style="fill: none; stroke: #ffffff; stroke-linecap: round"/>
     </g>
     <g id="text_8">
      <!-- $500 -->
      <g style="fill: #262626" transform="translate(27.845 211.240849) scale(0.11 -0.11)">
       <use xlink:href="#DejaVuSans-24"/>
       <use xlink:href="#DejaVuSans-35" x="63.623047"/>
       <use xlink:href="#DejaVuSans-30" x="127.246094"/>
       <use xlink:href="#DejaVuSans-30" x="190.869141"/>
      </g>
     </g>
    </g>
    <g id="ytick_3">
     <g id="line2d_8">
      <path d="M 65.34 157.643231 
L 447.84 157.643231 
" clip-path="url(#p4c01790839)" style="fill: none; stroke: #ffffff; stroke-linecap: round"/>
     </g>
     <g id="text_9">
      <!-- $600 -->
      <g style="fill: #262626" transform="translate(27.845 161.822371) scale(0.11 -0.11)">
       <defs>
        <path id="DejaVuSans-36" d="M 2113 2584 
Q 1688 2584 1439 2293 
Q 1191 2003 1191 1497 
Q 1191 994 1439 701 
Q 1688 409 2113 409 
Q 2538 409 2786 701 
Q 3034 994 3034 1497 
Q 3034 2003 2786 2293 
Q 2538 2584 2113 2584 
z
M 3366 4563 
L 3366 3988 
Q 3128 4100 2886 4159 
Q 2644 4219 2406 4219 
Q 1781 4219 1451 3797 
Q 1122 3375 1075 2522 
Q 1259 2794 1537 2939 
Q 1816 3084 2150 3084 
Q 2853 3084 3261 2657 
Q 3669 2231 3669 1497 
Q 3669 778 3244 343 
Q 2819 -91 2113 -91 
Q 1303 -91 875 529 
Q 447 1150 447 2328 
Q 447 3434 972 4092 
Q 1497 4750 2381 4750 
Q 2619 4750 2861 4703 
Q 3103 4656 3366 4563 
z
" transform="scale(0.015625)"/>
       </defs>
       <use xlink:href="#DejaVuSans-24"/>
       <use xlink:href="#DejaVuSans-36" x="63.623047"/>
       <use xlink:href="#DejaVuSans-30" x="127.246094"/>
       <use xlink:href="#DejaVuSans-30" x="190.869141"/>
      </g>
     </g>
    </g>
    <g id="ytick_4">
     <g id="line2d_9">
      <path d="M 65.34 108.224753 
L 447.84 108.224753 
" clip-path="url(#p4c01790839)" style="fill: none; stroke: #ffffff; stroke-linecap: round"/>
     </g>
     <g id="text_10">
      <!-- $700 -->
      <g style="fill: #262626" transform="translate(27.845 112.403894) scale(0.11 -0.11)">
       <defs>
        <path id="DejaVuSans-37" d="M 525 4666 
L 3525 4666 
L 3525 4397 
L 1831 0 
L 1172 0 
L 2766 4134 
L 525 4134 
L 525 4666 
z
" transform="scale(0.015625)"/>
       </defs>
       <use xlink:href="#DejaVuSans-24"/>
       <use xlink:href="#DejaVuSans-37" x="63.623047"/>
       <use xlink:href="#DejaVuSans-30" x="127.246094"/>
       <use xlink:href="#DejaVuSans-30" x="190.869141"/>
      </g>
     </g>
    </g>
    <g id="ytick_5">
     <g id="line2d_10">
      <path d="M 65.34 58.806276 
L 447.84 58.806276 
" clip-path="url(#p4c01790839)" style="fill: none; stroke: #ffffff; stroke-linecap: round"/>
     </g>
     <g id="text_11">
      <!-- $800 -->
      <g style="fill: #262626" transform="translate(27.845 62.985416) scale(0.11 -0.11)">
       <defs>
        <path id="DejaVuSans-38" d="M 2034 2216 
Q 1584 2216 1326 1975 
Q 1069 1734 1069 1313 
Q 1069 891 1326 650 
Q 1584 409 2034 409 
Q 2484 409 2743 651 
Q 3003 894 3003 1313 
Q 3003 1734 2745 1975 
Q 2488 2216 2034 2216 
z
M 1403 2484 
Q 997 2584 770 2862 
Q 544 3141 544 3541 
Q 544 4100 942 4425 
Q 1341 4750 2034 4750 
Q 2731 4750 3128 4425 
Q 3525 4100 3525 3541 
Q 3525 3141 3298 2862 
Q 3072 2584 2669 2484 
Q 3125 2378 3379 2068 
Q 3634 1759 3634 1313 
Q 3634 634 3220 271 
Q 2806 -91 2034 -91 
Q 1263 -91 848 271 
Q 434 634 434 1313 
Q 434 1759 690 2068 
Q 947 2378 1403 2484 
z
M 1172 3481 
Q 1172 3119 1398 2916 
Q 1625 2713 2034 2713 
Q 2441 2713 2670 2916 
Q 2900 3119 2900 3481 
Q 2900 3844 2670 4047 
Q 2441 4250 2034 4250 
Q 1625 4250 1398 4047 
Q 1172 3844 1172 3481 
z
" transform="scale(0.015625)"/>
       </defs>
       <use xlink:href="#DejaVuSans-24"/>
       <use xlink:href="#DejaVuSans-38" x="63.623047"/>
       <use xlink:href="#DejaVuSans-30" x="127.246094"/>
       <use xlink:href="#DejaVuSans-30" x="190.869141"/>
      </g>
     </g>
    </g>
    <g id="text_12">
     <!-- Median GPU Price -->
     <g style="fill: #262626" transform="translate(21.349375 215.503125) rotate(-90) scale(0.12 -0.12)">
      <defs>
       <path id="DejaVuSans-4d" d="M 628 4666 
L 1569 4666 
L 2759 1491 
L 3956 4666 
L 4897 4666 
L 4897 0 
L 4281 0 
L 4281 4097 
L 3078 897 
L 2444 897 
L 1241 4097 
L 1241 0 
L 628 0 
L 628 4666 
z
" transform="scale(0.015625)"/>
       <path id="DejaVuSans-64" d="M 2906 2969 
L 2906 4863 
L 3481 4863 
L 3481 0 
L 2906 0 
L 2906 525 
Q 2725 213 2448 61 
Q 2172 -91 1784 -91 
Q 1150 -91 751 415 
Q 353 922 353 1747 
Q 353 2572 751 3078 
Q 1150 3584 1784 3584 
Q 2172 3584 2448 3432 
Q 2725 3281 2906 2969 
z
M 947 1747 
Q 947 1113 1208 752 
Q 1469 391 1925 391 
Q 2381 391 2643 752 
Q 2906 1113 2906 1747 
Q 2906 2381 2643 2742 
Q 2381 3103 1925 3103 
Q 1469 3103 1208 2742 
Q 947 2381 947 1747 
z
" transform="scale(0.015625)"/>
       <path id="DejaVuSans-47" d="M 3809 666 
L 3809 1919 
L 2778 1919 
L 2778 2438 
L 4434 2438 
L 4434 434 
Q 4069 175 3628 42 
Q 3188 -91 2688 -91 
Q 1594 -91 976 548 
Q 359 1188 359 2328 
Q 359 3472 976 4111 
Q 1594 4750 2688 4750 
Q 3144 4750 3555 4637 
Q 3966 4525 4313 4306 
L 4313 3634 
Q 3963 3931 3569 4081 
Q 3175 4231 2741 4231 
Q 1884 4231 1454 3753 
Q 1025 3275 1025 2328 
Q 1025 1384 1454 906 
Q 1884 428 2741 428 
Q 3075 428 3337 486 
Q 3600 544 3809 666 
z
" transform="scale(0.015625)"/>
       <path id="DejaVuSans-50" d="M 1259 4147 
L 1259 2394 
L 2053 2394 
Q 2494 2394 2734 2622 
Q 2975 2850 2975 3272 
Q 2975 3691 2734 3919 
Q 2494 4147 2053 4147 
L 1259 4147 
z
M 628 4666 
L 2053 4666 
Q 2838 4666 3239 4311 
Q 3641 3956 3641 3272 
Q 3641 2581 3239 2228 
Q 2838 1875 2053 1875 
L 1259 1875 
L 1259 0 
L 628 0 
L 628 4666 
z
" transform="scale(0.015625)"/>
       <path id="DejaVuSans-72" d="M 2631 2963 
Q 2534 3019 2420 3045 
Q 2306 3072 2169 3072 
Q 1681 3072 1420 2755 
Q 1159 2438 1159 1844 
L 1159 0 
L 581 0 
L 581 3500 
L 1159 3500 
L 1159 2956 
Q 1341 3275 1631 3429 
Q 1922 3584 2338 3584 
Q 2397 3584 2469 3576 
Q 2541 3569 2628 3553 
L 2631 2963 
z
" transform="scale(0.015625)"/>
      </defs>
      <use xlink:href="#DejaVuSans-4d"/>
      <use xlink:href="#DejaVuSans-65" x="86.279297"/>
      <use xlink:href="#DejaVuSans-64" x="147.802734"/>
      <use xlink:href="#DejaVuSans-69" x="211.279297"/>
      <use xlink:href="#DejaVuSans-61" x="239.0625"/>
      <use xlink:href="#DejaVuSans-6e" x="300.341797"/>
      <use xlink:href="#DejaVuSans-20" x="363.720703"/>
      <use xlink:href="#DejaVuSans-47" x="395.507812"/>
      <use xlink:href="#DejaVuSans-50" x="472.998047"/>
      <use xlink:href="#DejaVuSans-55" x="533.300781"/>
      <use xlink:href="#DejaVuSans-20" x="606.494141"/>
      <use xlink:href="#DejaVuSans-50" x="638.28125"/>
      <use xlink:href="#DejaVuSans-72" x="696.833984"/>
      <use xlink:href="#DejaVuSans-69" x="737.947266"/>
      <use xlink:href="#DejaVuSans-63" x="765.730469"/>
      <use xlink:href="#DejaVuSans-65" x="820.710938"/>
     </g>
    </g>
   </g>
   <g id="PathCollection_1">
    <defs>
     <path id="m36817d43d0" d="M 0 3 
C 0.795609 3 1.55874 2.683901 2.12132 2.12132 
C 2.683901 1.55874 3 0.795609 3 0 
C 3 -0.795609 2.683901 -1.55874 2.12132 -2.12132 
C 1.55874 -2.683901 0.795609 -3 0 -3 
C -0.795609 -3 -1.55874 -2.683901 -2.12132 -2.12132 
C -2.683901 -1.55874 -3 -0.795609 -3 0 
C -3 0.795609 -2.683901 1.55874 -2.12132 2.12132 
C -1.55874 2.683901 -0.795609 3 0 3 
z
"/>
    </defs>
    <g clip-path="url(#p4c01790839)">
     <use xlink:href="#m36817d43d0" x="119.407763" y="279.055125" style="fill: #4c72b0; fill-opacity: 0.7"/>
     <use xlink:href="#m36817d43d0" x="110.733131" y="249.738485" style="fill: #4c72b0; fill-opacity: 0.7"/>
     <use xlink:href="#m36817d43d0" x="117.823338" y="268.18229" style="fill: #4c72b0; fill-opacity: 0.7"/>
     <use xlink:href="#m36817d43d0" x="107.407215" y="270.969251" style="fill: #4c72b0; fill-opacity: 0.7"/>
     <use xlink:href="#m36817d43d0" x="82.726364" y="251.370439" style="fill: #4c72b0; fill-opacity: 0.7"/>
     <use xlink:href="#m36817d43d0" x="92.427592" y="268.835271" style="fill: #4c72b0; fill-opacity: 0.7"/>
     <use xlink:href="#m36817d43d0" x="89.611284" y="263.316385" style="fill: #4c72b0; fill-opacity: 0.7"/>
     <use xlink:href="#m36817d43d0" x="87.28301" y="260.946216" style="fill: #4c72b0; fill-opacity: 0.7"/>
     <use xlink:href="#m36817d43d0" x="85.578818" y="258.142527" style="fill: #4c72b0; fill-opacity: 0.7"/>
     <use xlink:href="#m36817d43d0" x="93.991689" y="258.332591" style="fill: #4c72b0; fill-opacity: 0.7"/>
     <use xlink:href="#m36817d43d0" x="98.973582" y="252.886918" style="fill: #4c72b0; fill-opacity: 0.7"/>
     <use xlink:href="#m36817d43d0" x="85.402557" y="253.071362" style="fill: #4c72b0; fill-opacity: 0.7"/>
     <use xlink:href="#m36817d43d0" x="86.852787" y="256.100199" style="fill: #4c72b0; fill-opacity: 0.7"/>
     <use xlink:href="#m36817d43d0" x="104.831198" y="262.498617" style="fill: #4c72b0; fill-opacity: 0.7"/>
     <use xlink:href="#m36817d43d0" x="116.43357" y="267.005106" style="fill: #4c72b0; fill-opacity: 0.7"/>
     <use xlink:href="#m36817d43d0" x="124.888808" y="268.60302" style="fill: #4c72b0; fill-opacity: 0.7"/>
     <use xlink:href="#m36817d43d0" x="114.860473" y="260.140278" style="fill: #4c72b0; fill-opacity: 0.7"/>
     <use xlink:href="#m36817d43d0" x="125.438198" y="261.050014" style="fill: #4c72b0; fill-opacity: 0.7"/>
     <use xlink:href="#m36817d43d0" x="122.147587" y="261.515233" style="fill: #4c72b0; fill-opacity: 0.7"/>
     <use xlink:href="#m36817d43d0" x="126.621871" y="263.210655" style="fill: #4c72b0; fill-opacity: 0.7"/>
     <use xlink:href="#m36817d43d0" x="137.268882" y="274.420798" style="fill: #4c72b0; fill-opacity: 0.7"/>
     <use xlink:href="#m36817d43d0" x="152.231373" y="265.624234" style="fill: #4c72b0; fill-opacity: 0.7"/>
     <use xlink:href="#m36817d43d0" x="147.483765" y="251.257562" style="fill: #4c72b0; fill-opacity: 0.7"/>
     <use xlink:href="#m36817d43d0" x="142.139504" y="239.146414" style="fill: #4c72b0; fill-opacity: 0.7"/>
     <use xlink:href="#m36817d43d0" x="145.694419" y="242.483578" style="fill: #4c72b0; fill-opacity: 0.7"/>
     <use xlink:href="#m36817d43d0" x="154.420503" y="233.173164" style="fill: #4c72b0; fill-opacity: 0.7"/>
     <use xlink:href="#m36817d43d0" x="158.343297" y="266.702288" style="fill: #4c72b0; fill-opacity: 0.7"/>
     <use xlink:href="#m36817d43d0" x="174.647427" y="281.520948" style="fill: #4c72b0; fill-opacity: 0.7"/>
     <use xlink:href="#m36817d43d0" x="174.843217" y="279.869088" style="fill: #4c72b0; fill-opacity: 0.7"/>
     <use xlink:href="#m36817d43d0" x="186.984885" y="285.27" style="fill: #4c72b0; fill-opacity: 0.7"/>
     <use xlink:href="#m36817d43d0" x="180.84472" y="262.345105" style="fill: #4c72b0; fill-opacity: 0.7"/>
     <use xlink:href="#m36817d43d0" x="195.303439" y="254.650966" style="fill: #4c72b0; fill-opacity: 0.7"/>
     <use xlink:href="#m36817d43d0" x="228.794072" y="265.704814" style="fill: #4c72b0; fill-opacity: 0.7"/>
     <use xlink:href="#m36817d43d0" x="233.928894" y="234.065328" style="fill: #4c72b0; fill-opacity: 0.7"/>
     <use xlink:href="#m36817d43d0" x="243.314778" y="227.521638" style="fill: #4c72b0; fill-opacity: 0.7"/>
     <use xlink:href="#m36817d43d0" x="274.416409" y="202.131846" style="fill: #4c72b0; fill-opacity: 0.7"/>
     <use xlink:href="#m36817d43d0" x="269.173306" y="225.959449" style="fill: #4c72b0; fill-opacity: 0.7"/>
     <use xlink:href="#m36817d43d0" x="294.344789" y="220.265534" style="fill: #4c72b0; fill-opacity: 0.7"/>
     <use xlink:href="#m36817d43d0" x="323.497219" y="217.211312" style="fill: #4c72b0; fill-opacity: 0.7"/>
     <use xlink:href="#m36817d43d0" x="344.075522" y="240.956418" style="fill: #4c72b0; fill-opacity: 0.7"/>
     <use xlink:href="#m36817d43d0" x="323.133364" y="234.609283" style="fill: #4c72b0; fill-opacity: 0.7"/>
     <use xlink:href="#m36817d43d0" x="323.937076" y="222.226927" style="fill: #4c72b0; fill-opacity: 0.7"/>
     <use xlink:href="#m36817d43d0" x="298.377773" y="221.812672" style="fill: #4c72b0; fill-opacity: 0.7"/>
     <use xlink:href="#m36817d43d0" x="316.140233" y="200.837687" style="fill: #4c72b0; fill-opacity: 0.7"/>
     <use xlink:href="#m36817d43d0" x="302.735623" y="194.943897" style="fill: #4c72b0; fill-opacity: 0.7"/>
     <use xlink:href="#m36817d43d0" x="292.70208" y="195.173235" style="fill: #4c72b0; fill-opacity: 0.7"/>
     <use xlink:href="#m36817d43d0" x="305.016854" y="206.846898" style="fill: #4c72b0; fill-opacity: 0.7"/>
     <use xlink:href="#m36817d43d0" x="298.612236" y="206.985882" style="fill: #4c72b0; fill-opacity: 0.7"/>
     <use xlink:href="#m36817d43d0" x="294.680738" y="218.862624" style="fill: #4c72b0; fill-opacity: 0.7"/>
     <use xlink:href="#m36817d43d0" x="291.504521" y="219.438448" style="fill: #4c72b0; fill-opacity: 0.7"/>
     <use xlink:href="#m36817d43d0" x="262.759718" y="236.648446" style="fill: #4c72b0; fill-opacity: 0.7"/>
     <use xlink:href="#m36817d43d0" x="258.271888" y="236.629976" style="fill: #4c72b0; fill-opacity: 0.7"/>
     <use xlink:href="#m36817d43d0" x="252.992652" y="248.896336" style="fill: #4c72b0; fill-opacity: 0.7"/>
     <use xlink:href="#m36817d43d0" x="259.649105" y="238.321925" style="fill: #4c72b0; fill-opacity: 0.7"/>
     <use xlink:href="#m36817d43d0" x="263.471644" y="244.581353" style="fill: #4c72b0; fill-opacity: 0.7"/>
     <use xlink:href="#m36817d43d0" x="280.166041" y="239.324027" style="fill: #4c72b0; fill-opacity: 0.7"/>
     <use xlink:href="#m36817d43d0" x="310.032752" y="245.183119" style="fill: #4c72b0; fill-opacity: 0.7"/>
     <use xlink:href="#m36817d43d0" x="324.63726" y="251.284635" style="fill: #4c72b0; fill-opacity: 0.7"/>
     <use xlink:href="#m36817d43d0" x="320.099354" y="229.075645" style="fill: #4c72b0; fill-opacity: 0.7"/>
     <use xlink:href="#m36817d43d0" x="317.024669" y="229.589416" style="fill: #4c72b0; fill-opacity: 0.7"/>
     <use xlink:href="#m36817d43d0" x="307.455499" y="224.282328" style="fill: #4c72b0; fill-opacity: 0.7"/>
     <use xlink:href="#m36817d43d0" x="313.90475" y="219.712174" style="fill: #4c72b0; fill-opacity: 0.7"/>
     <use xlink:href="#m36817d43d0" x="301.515818" y="223.117724" style="fill: #4c72b0; fill-opacity: 0.7"/>
     <use xlink:href="#m36817d43d0" x="298.323381" y="219.596848" style="fill: #4c72b0; fill-opacity: 0.7"/>
     <use xlink:href="#m36817d43d0" x="314.711791" y="225.563023" style="fill: #4c72b0; fill-opacity: 0.7"/>
     <use xlink:href="#m36817d43d0" x="309.096859" y="229.979152" style="fill: #4c72b0; fill-opacity: 0.7"/>
     <use xlink:href="#m36817d43d0" x="290.719537" y="226.681555" style="fill: #4c72b0; fill-opacity: 0.7"/>
     <use xlink:href="#m36817d43d0" x="309.811745" y="228.985866" style="fill: #4c72b0; fill-opacity: 0.7"/>
     <use xlink:href="#m36817d43d0" x="315.506558" y="230.966548" style="fill: #4c72b0; fill-opacity: 0.7"/>
     <use xlink:href="#m36817d43d0" x="313.181457" y="231.388112" style="fill: #4c72b0; fill-opacity: 0.7"/>
     <use xlink:href="#m36817d43d0" x="326.458328" y="227.013796" style="fill: #4c72b0; fill-opacity: 0.7"/>
     <use xlink:href="#m36817d43d0" x="328.181184" y="233.422179" style="fill: #4c72b0; fill-opacity: 0.7"/>
     <use xlink:href="#m36817d43d0" x="323.043604" y="228.154335" style="fill: #4c72b0; fill-opacity: 0.7"/>
     <use xlink:href="#m36817d43d0" x="338.540223" y="245.449567" style="fill: #4c72b0; fill-opacity: 0.7"/>
     <use xlink:href="#m36817d43d0" x="360.945649" y="223.001986" style="fill: #4c72b0; fill-opacity: 0.7"/>
     <use xlink:href="#m36817d43d0" x="385.788711" y="178.713991" style="fill: #4c72b0; fill-opacity: 0.7"/>
     <use xlink:href="#m36817d43d0" x="394.08076" y="131.699196" style="fill: #4c72b0; fill-opacity: 0.7"/>
     <use xlink:href="#m36817d43d0" x="413.519171" y="98.037408" style="fill: #4c72b0; fill-opacity: 0.7"/>
     <use xlink:href="#m36817d43d0" x="430.191725" y="159.407044" style="fill: #4c72b0; fill-opacity: 0.7"/>
     <use xlink:href="#m36817d43d0" x="428.395618" y="129.888291" style="fill: #4c72b0; fill-opacity: 0.7"/>
     <use xlink:href="#m36817d43d0" x="400.263058" y="118.445506" style="fill: #4c72b0; fill-opacity: 0.7"/>
     <use xlink:href="#m36817d43d0" x="395.709118" y="113.25747" style="fill: #4c72b0; fill-opacity: 0.7"/>
     <use xlink:href="#m36817d43d0" x="406.427982" y="82.241574" style="fill: #4c72b0; fill-opacity: 0.7"/>
     <use xlink:href="#m36817d43d0" x="414.276828" y="88.028095" style="fill: #4c72b0; fill-opacity: 0.7"/>
     <use xlink:href="#m36817d43d0" x="409.478007" y="83.752138" style="fill: #4c72b0; fill-opacity: 0.7"/>
     <use xlink:href="#m36817d43d0" x="430.453636" y="76.920596" style="fill: #4c72b0; fill-opacity: 0.7"/>
     <use xlink:href="#m36817d43d0" x="425.568371" y="60.763675" style="fill: #4c72b0; fill-opacity: 0.7"/>
     <use xlink:href="#m36817d43d0" x="412.11703" y="79.076621" style="fill: #4c72b0; fill-opacity: 0.7"/>
     <use xlink:href="#m36817d43d0" x="399.906452" y="49.663142" style="fill: #4c72b0; fill-opacity: 0.7"/>
     <use xlink:href="#m36817d43d0" x="406.778569" y="43.809878" style="fill: #4c72b0; fill-opacity: 0.7"/>
     <use xlink:href="#m36817d43d0" x="409.860708" y="54.802257" style="fill: #4c72b0; fill-opacity: 0.7"/>
     <use xlink:href="#m36817d43d0" x="397.559312" y="67.121869" style="fill: #4c72b0; fill-opacity: 0.7"/>
     <use xlink:href="#m36817d43d0" x="386.355817" y="101.51261" style="fill: #4c72b0; fill-opacity: 0.7"/>
     <use xlink:href="#m36817d43d0" x="355.781977" y="152.181508" style="fill: #4c72b0; fill-opacity: 0.7"/>
     <use xlink:href="#m36817d43d0" x="366.054471" y="143.135149" style="fill: #4c72b0; fill-opacity: 0.7"/>
     <use xlink:href="#m36817d43d0" x="356.090803" y="154.966848" style="fill: #4c72b0; fill-opacity: 0.7"/>
     <use xlink:href="#m36817d43d0" x="353.834423" y="148.533737" style="fill: #4c72b0; fill-opacity: 0.7"/>
     <use xlink:href="#m36817d43d0" x="357.032422" y="171.722731" style="fill: #4c72b0; fill-opacity: 0.7"/>
     <use xlink:href="#m36817d43d0" x="345.729356" y="178.525808" style="fill: #4c72b0; fill-opacity: 0.7"/>
     <use xlink:href="#m36817d43d0" x="343.282263" y="172.473716" style="fill: #4c72b0; fill-opacity: 0.7"/>
    </g>
   </g>
   <g id="PolyCollection_1"/>
   <g id="line2d_11">
    <path d="M 82.726364 255.079767 
L 117.012527 254.433492 
L 139.150616 253.787216 
L 160.170754 252.925515 
L 175.934267 252.063815 
L 191.349125 250.986689 
L 203.742118 249.909563 
L 215.990188 248.617011 
L 226.252655 247.32446 
L 236.443867 245.816484 
L 245.222815 244.308508 
L 253.962581 242.585106 
L 262.541109 240.646279 
L 270.096995 238.707453 
L 277.555954 236.553201 
L 284.22978 234.398949 
L 290.841531 232.029272 
L 296.829029 229.659595 
L 302.774801 227.074492 
L 308.643643 224.273965 
L 314.015436 221.473437 
L 319.333256 218.457484 
L 324.57612 215.226107 
L 329.728816 211.779304 
L 334.780715 208.117075 
L 339.459974 204.454847 
L 344.065071 200.577194 
L 348.588736 196.484115 
L 353.025966 192.175611 
L 357.373558 187.651682 
L 361.62973 182.912328 
L 365.968804 177.742123 
L 370.193831 172.356493 
L 374.30849 166.755438 
L 378.460274 160.723533 
L 382.491905 154.476202 
L 386.535935 147.798021 
L 390.575277 140.68899 
L 394.595865 133.149108 
L 398.58626 125.178376 
L 402.537285 116.776794 
L 406.441687 107.944361 
L 410.293835 98.681078 
L 414.171281 88.771519 
L 418.056582 78.215684 
L 421.862736 67.228999 
L 425.658518 55.596039 
L 429.497472 43.101378 
L 430.453636 39.87 
L 430.453636 39.87 
" clip-path="url(#p4c01790839)" style="fill: none; stroke: #4c72b0; stroke-width: 1.5; stroke-linecap: round"/>
   </g>
   <g id="patch_3">
    <path d="M 65.34 297.54 
L 65.34 27.6 
" style="fill: none; stroke: #ffffff; stroke-width: 1.25; stroke-linejoin: miter; stroke-linecap: square"/>
   </g>
   <g id="patch_4">
    <path d="M 447.84 297.54 
L 447.84 27.6 
" style="fill: none; stroke: #ffffff; stroke-width: 1.25; stroke-linejoin: miter; stroke-linecap: square"/>
   </g>
   <g id="patch_5">
    <path d="M 65.34 297.54 
L 447.84 297.54 
" style="fill: none; stroke: #ffffff; stroke-width: 1.25; stroke-linejoin: miter; stroke-linecap: square"/>
   </g>
   <g id="patch_6">
    <path d="M 65.34 27.6 
L 447.84 27.6 
" style="fill: none; stroke: #ffffff; stroke-width: 1.25; stroke-linejoin: miter; stroke-linecap: square"/>
   </g>
   <g id="text_13">
    <!-- Bitcoin Price vs Median GPU Prices on /r/buildapc -->
    <g style="fill: #262626" transform="translate(109.585313 21.6) scale(0.12 -0.12)">
     <defs>
      <path id="DejaVuSans-76" d="M 191 3500 
L 800 3500 
L 1894 563 
L 2988 3500 
L 3597 3500 
L 2284 0 
L 1503 0 
L 191 3500 
z
" transform="scale(0.015625)"/>
      <path id="DejaVuSans-73" d="M 2834 3397 
L 2834 2853 
Q 2591 2978 2328 3040 
Q 2066 3103 1784 3103 
Q 1356 3103 1142 2972 
Q 928 2841 928 2578 
Q 928 2378 1081 2264 
Q 1234 2150 1697 2047 
L 1894 2003 
Q 2506 1872 2764 1633 
Q 3022 1394 3022 966 
Q 3022 478 2636 193 
Q 2250 -91 1575 -91 
Q 1294 -91 989 -36 
Q 684 19 347 128 
L 347 722 
Q 666 556 975 473 
Q 1284 391 1588 391 
Q 1994 391 2212 530 
Q 2431 669 2431 922 
Q 2431 1156 2273 1281 
Q 2116 1406 1581 1522 
L 1381 1569 
Q 847 1681 609 1914 
Q 372 2147 372 2553 
Q 372 3047 722 3315 
Q 1072 3584 1716 3584 
Q 2034 3584 2315 3537 
Q 2597 3491 2834 3397 
z
" transform="scale(0.015625)"/>
      <path id="DejaVuSans-2f" d="M 1625 4666 
L 2156 4666 
L 531 -594 
L 0 -594 
L 1625 4666 
z
" transform="scale(0.015625)"/>
      <path id="DejaVuSans-62" d="M 3116 1747 
Q 3116 2381 2855 2742 
Q 2594 3103 2138 3103 
Q 1681 3103 1420 2742 
Q 1159 2381 1159 1747 
Q 1159 1113 1420 752 
Q 1681 391 2138 391 
Q 2594 391 2855 752 
Q 3116 1113 3116 1747 
z
M 1159 2969 
Q 1341 3281 1617 3432 
Q 1894 3584 2278 3584 
Q 2916 3584 3314 3078 
Q 3713 2572 3713 1747 
Q 3713 922 3314 415 
Q 2916 -91 2278 -91 
Q 1894 -91 1617 61 
Q 1341 213 1159 525 
L 1159 0 
L 581 0 
L 581 4863 
L 1159 4863 
L 1159 2969 
z
" transform="scale(0.015625)"/>
      <path id="DejaVuSans-75" d="M 544 1381 
L 544 3500 
L 1119 3500 
L 1119 1403 
Q 1119 906 1312 657 
Q 1506 409 1894 409 
Q 2359 409 2629 706 
Q 2900 1003 2900 1516 
L 2900 3500 
L 3475 3500 
L 3475 0 
L 2900 0 
L 2900 538 
Q 2691 219 2414 64 
Q 2138 -91 1772 -91 
Q 1169 -91 856 284 
Q 544 659 544 1381 
z
M 1991 3584 
L 1991 3584 
z
" transform="scale(0.015625)"/>
      <path id="DejaVuSans-6c" d="M 603 4863 
L 1178 4863 
L 1178 0 
L 603 0 
L 603 4863 
z
" transform="scale(0.015625)"/>
      <path id="DejaVuSans-70" d="M 1159 525 
L 1159 -1331 
L 581 -1331 
L 581 3500 
L 1159 3500 
L 1159 2969 
Q 1341 3281 1617 3432 
Q 1894 3584 2278 3584 
Q 2916 3584 3314 3078 
Q 3713 2572 3713 1747 
Q 3713 922 3314 415 
Q 2916 -91 2278 -91 
Q 1894 -91 1617 61 
Q 1341 213 1159 525 
z
M 3116 1747 
Q 3116 2381 2855 2742 
Q 2594 3103 2138 3103 
Q 1681 3103 1420 2742 
Q 1159 2381 1159 1747 
Q 1159 1113 1420 752 
Q 1681 391 2138 391 
Q 2594 391 2855 752 
Q 3116 1113 3116 1747 
z
" transform="scale(0.015625)"/>
     </defs>
     <use xlink:href="#DejaVuSans-42"/>
     <use xlink:href="#DejaVuSans-69" x="68.603516"/>
     <use xlink:href="#DejaVuSans-74" x="96.386719"/>
     <use xlink:href="#DejaVuSans-63" x="135.595703"/>
     <use xlink:href="#DejaVuSans-6f" x="190.576172"/>
     <use xlink:href="#DejaVuSans-69" x="251.757812"/>
     <use xlink:href="#DejaVuSans-6e" x="279.541016"/>
     <use xlink:href="#DejaVuSans-20" x="342.919922"/>
     <use xlink:href="#DejaVuSans-50" x="374.707031"/>
     <use xlink:href="#DejaVuSans-72" x="433.259766"/>
     <use xlink:href="#DejaVuSans-69" x="474.373047"/>
     <use xlink:href="#DejaVuSans-63" x="502.15625"/>
     <use xlink:href="#DejaVuSans-65" x="557.136719"/>
     <use xlink:href="#DejaVuSans-20" x="618.660156"/>
     <use xlink:href="#DejaVuSans-76" x="650.447266"/>
     <use xlink:href="#DejaVuSans-73" x="709.626953"/>
     <use xlink:href="#DejaVuSans-20" x="761.726562"/>
     <use xlink:href="#DejaVuSans-4d" x="793.513672"/>
     <use xlink:href="#DejaVuSans-65" x="879.792969"/>
     <use xlink:href="#DejaVuSans-64" x="941.316406"/>
     <use xlink:href="#DejaVuSans-69" x="1004.792969"/>
     <use xlink:href="#DejaVuSans-61" x="1032.576172"/>
     <use xlink:href="#DejaVuSans-6e" x="1093.855469"/>
     <use xlink:href="#DejaVuSans-20" x="1157.234375"/>
     <use xlink:href="#DejaVuSans-47" x="1189.021484"/>
     <use xlink:href="#DejaVuSans-50" x="1266.511719"/>
     <use xlink:href="#DejaVuSans-55" x="1326.814453"/>
     <use xlink:href="#DejaVuSans-20" x="1400.007812"/>
     <use xlink:href="#DejaVuSans-50" x="1431.794922"/>
     <use xlink:href="#DejaVuSans-72" x="1490.347656"/>
     <use xlink:href="#DejaVuSans-69" x="1531.460938"/>
     <use xlink:href="#DejaVuSans-63" x="1559.244141"/>
     <use xlink:href="#DejaVuSans-65" x="1614.224609"/>
     <use xlink:href="#DejaVuSans-73" x="1675.748047"/>
     <use xlink:href="#DejaVuSans-20" x="1727.847656"/>
     <use xlink:href="#DejaVuSans-6f" x="1759.634766"/>
     <use xlink:href="#DejaVuSans-6e" x="1820.816406"/>
     <use xlink:href="#DejaVuSans-20" x="1884.195312"/>
     <use xlink:href="#DejaVuSans-2f" x="1915.982422"/>
     <use xlink:href="#DejaVuSans-72" x="1949.673828"/>
     <use xlink:href="#DejaVuSans-2f" x="1990.787109"/>
     <use xlink:href="#DejaVuSans-62" x="2024.478516"/>
     <use xlink:href="#DejaVuSans-75" x="2087.955078"/>
     <use xlink:href="#DejaVuSans-69" x="2151.333984"/>
     <use xlink:href="#DejaVuSans-6c" x="2179.117188"/>
     <use xlink:href="#DejaVuSans-64" x="2206.900391"/>
     <use xlink:href="#DejaVuSans-61" x="2270.376953"/>
     <use xlink:href="#DejaVuSans-70" x="2331.65625"/>
     <use xlink:href="#DejaVuSans-63" x="2395.132812"/>
    </g>
   </g>
   <g id="legend_1">
    <g id="patch_7">
     <path d="M 73.04 54.22 
L 225.17 54.22 
Q 227.37 54.22 227.37 52.02 
L 227.37 35.3 
Q 227.37 33.1 225.17 33.1 
L 73.04 33.1 
Q 70.84 33.1 70.84 35.3 
L 70.84 52.02 
Q 70.84 54.22 73.04 54.22 
z
" style="fill: #eaeaf2; opacity: 0.8; stroke: #cccccc; stroke-linejoin: miter"/>
    </g>
    <g id="line2d_12">
     <path d="M 75.24 43.66 
L 86.24 43.66 
L 97.24 43.66 
" style="fill: none; stroke: #4c72b0; stroke-width: 1.5; stroke-linecap: round"/>
    </g>
    <g id="text_14">
     <!-- $y = 6.7\times 10^{-3}x + 401$ -->
     <g style="fill: #262626" transform="translate(106.04 47.51) scale(0.11 -0.11)">
      <defs>
       <path id="DejaVuSans-Oblique-79" d="M 1588 -325 
Q 1188 -997 936 -1164 
Q 684 -1331 294 -1331 
L -159 -1331 
L -63 -850 
L 269 -850 
Q 509 -850 678 -719 
Q 847 -588 1056 -206 
L 1234 128 
L 459 3500 
L 1069 3500 
L 1650 819 
L 3256 3500 
L 3859 3500 
L 1588 -325 
z
" transform="scale(0.015625)"/>
       <path id="DejaVuSans-3d" d="M 678 2906 
L 4684 2906 
L 4684 2381 
L 678 2381 
L 678 2906 
z
M 678 1631 
L 4684 1631 
L 4684 1100 
L 678 1100 
L 678 1631 
z
" transform="scale(0.015625)"/>
       <path id="DejaVuSans-2e" d="M 684 794 
L 1344 794 
L 1344 0 
L 684 0 
L 684 794 
z
" transform="scale(0.015625)"/>
       <path id="DejaVuSans-d7" d="M 4488 3438 
L 3059 2003 
L 4488 575 
L 4116 197 
L 2681 1631 
L 1247 197 
L 878 575 
L 2303 2003 
L 878 3438 
L 1247 3816 
L 2681 2381 
L 4116 3816 
L 4488 3438 
z
" transform="scale(0.015625)"/>
       <path id="DejaVuSans-2212" d="M 678 2272 
L 4684 2272 
L 4684 1741 
L 678 1741 
L 678 2272 
z
" transform="scale(0.015625)"/>
       <path id="DejaVuSans-33" d="M 2597 2516 
Q 3050 2419 3304 2112 
Q 3559 1806 3559 1356 
Q 3559 666 3084 287 
Q 2609 -91 1734 -91 
Q 1441 -91 1130 -33 
Q 819 25 488 141 
L 488 750 
Q 750 597 1062 519 
Q 1375 441 1716 441 
Q 2309 441 2620 675 
Q 2931 909 2931 1356 
Q 2931 1769 2642 2001 
Q 2353 2234 1838 2234 
L 1294 2234 
L 1294 2753 
L 1863 2753 
Q 2328 2753 2575 2939 
Q 2822 3125 2822 3475 
Q 2822 3834 2567 4026 
Q 2313 4219 1838 4219 
Q 1578 4219 1281 4162 
Q 984 4106 628 3988 
L 628 4550 
Q 988 4650 1302 4700 
Q 1616 4750 1894 4750 
Q 2613 4750 3031 4423 
Q 3450 4097 3450 3541 
Q 3450 3153 3228 2886 
Q 3006 2619 2597 2516 
z
" transform="scale(0.015625)"/>
       <path id="DejaVuSans-Oblique-78" d="M 3841 3500 
L 2234 1784 
L 3219 0 
L 2559 0 
L 1819 1388 
L 531 0 
L -166 0 
L 1556 1844 
L 641 3500 
L 1300 3500 
L 1972 2234 
L 3144 3500 
L 3841 3500 
z
" transform="scale(0.015625)"/>
       <path id="DejaVuSans-2b" d="M 2944 4013 
L 2944 2272 
L 4684 2272 
L 4684 1741 
L 2944 1741 
L 2944 0 
L 2419 0 
L 2419 1741 
L 678 1741 
L 678 2272 
L 2419 2272 
L 2419 4013 
L 2944 4013 
z
" transform="scale(0.015625)"/>
      </defs>
      <use xlink:href="#DejaVuSans-Oblique-79" transform="translate(0 0.765625)"/>
      <use xlink:href="#DejaVuSans-3d" transform="translate(78.662109 0.765625)"/>
      <use xlink:href="#DejaVuSans-36" transform="translate(181.933594 0.765625)"/>
      <use xlink:href="#DejaVuSans-2e" transform="translate(245.556641 0.765625)"/>
      <use xlink:href="#DejaVuSans-37" transform="translate(269.59375 0.765625)"/>
      <use xlink:href="#DejaVuSans-d7" transform="translate(352.699219 0.765625)"/>
      <use xlink:href="#DejaVuSans-31" transform="translate(455.970703 0.765625)"/>
      <use xlink:href="#DejaVuSans-30" transform="translate(519.59375 0.765625)"/>
      <use xlink:href="#DejaVuSans-2212" transform="translate(584.173828 39.046875) scale(0.7)"/>
      <use xlink:href="#DejaVuSans-33" transform="translate(642.826172 39.046875) scale(0.7)"/>
      <use xlink:href="#DejaVuSans-Oblique-78" transform="translate(690.09668 0.765625)"/>
      <use xlink:href="#DejaVuSans-2b" transform="translate(768.758789 0.765625)"/>
      <use xlink:href="#DejaVuSans-34" transform="translate(872.030273 0.765625)"/>
      <use xlink:href="#DejaVuSans-30" transform="translate(935.65332 0.765625)"/>
      <use xlink:href="#DejaVuSans-31" transform="translate(999.276367 0.765625)"/>
     </g>
    </g>
   </g>
  </g>
 </g>
 <defs>
  <clipPath id="p4c01790839">
   <rect x="65.34" y="27.6" width="382.5" height="269.94"/>
  </clipPath>
 </defs>
</svg>
