<?xml version="1.0" encoding="utf-8" standalone="no"?>
<!DOCTYPE svg PUBLIC "-//W3C//DTD SVG 1.1//EN"
  "http://www.w3.org/Graphics/SVG/1.1/DTD/svg11.dtd">
<svg xmlns:xlink="http://www.w3.org/1999/xlink" width="648pt" height="504pt" viewBox="0 0 648 504" xmlns="http://www.w3.org/2000/svg" version="1.1">
 <metadata>
  <rdf:RDF xmlns:dc="http://purl.org/dc/elements/1.1/" xmlns:cc="http://creativecommons.org/ns#" xmlns:rdf="http://www.w3.org/1999/02/22-rdf-syntax-ns#">
   <cc:Work>
    <dc:type rdf:resource="http://purl.org/dc/dcmitype/StillImage"/>
    <dc:date>2023-09-13T02:23:51.354175</dc:date>
    <dc:format>image/svg+xml</dc:format>
    <dc:creator>
     <cc:Agent>
      <dc:title>Matplotlib v3.7.2, https://matplotlib.org/</dc:title>
     </cc:Agent>
    </dc:creator>
   </cc:Work>
  </rdf:RDF>
 </metadata>
 <defs>
  <style type="text/css">*{stroke-linejoin: round; stroke-linecap: butt}</style>
 </defs>
 <g id="figure_1">
  <g id="patch_1">
   <path d="M 0 504 
L 648 504 
L 648 0 
L 0 0 
z
" style="fill: #ffffff"/>
  </g>
  <g id="axes_1">
   <g id="patch_2">
    <path d="M 65.34 455.94 
L 635.04 455.94 
L 635.04 27.6 
L 65.34 27.6 
z
" style="fill: #eaeaf2"/>
   </g>
   <g id="matplotlib.axis_1">
    <g id="xtick_1">
     <g id="line2d_1">
      <path d="M 91.235455 455.94 
L 91.235455 27.6 
" clip-path="url(#p3c22cd9525)" style="fill: none; stroke: #ffffff; stroke-linecap: round"/>
     </g>
     <g id="text_1">
      <!-- 2013 -->
      <g style="fill: #262626" transform="translate(77.237955 473.798281) scale(0.11 -0.11)">
       <defs>
        <path id="DejaVuSans-32" d="M 1228 531 
L 3431 531 
L 3431 0 
L 469 0 
L 469 531 
Q 828 903 1448 1529 
Q 2069 2156 2228 2338 
Q 2531 2678 2651 2914 
Q 2772 3150 2772 3378 
Q 2772 3750 2511 3984 
Q 2250 4219 1831 4219 
Q 1534 4219 1204 4116 
Q 875 4013 500 3803 
L 500 4441 
Q 881 4594 1212 4672 
Q 1544 4750 1819 4750 
Q 2544 4750 2975 4387 
Q 3406 4025 3406 3419 
Q 3406 3131 3298 2873 
Q 3191 2616 2906 2266 
Q 2828 2175 2409 1742 
Q 1991 1309 1228 531 
z
" transform="scale(0.015625)"/>
        <path id="DejaVuSans-30" d="M 2034 4250 
Q 1547 4250 1301 3770 
Q 1056 3291 1056 2328 
Q 1056 1369 1301 889 
Q 1547 409 2034 409 
Q 2525 409 2770 889 
Q 3016 1369 3016 2328 
Q 3016 3291 2770 3770 
Q 2525 4250 2034 4250 
z
M 2034 4750 
Q 2819 4750 3233 4129 
Q 3647 3509 3647 2328 
Q 3647 1150 3233 529 
Q 2819 -91 2034 -91 
Q 1250 -91 836 529 
Q 422 1150 422 2328 
Q 422 3509 836 4129 
Q 1250 4750 2034 4750 
z
" transform="scale(0.015625)"/>
        <path id="DejaVuSans-31" d="M 794 531 
L 1825 531 
L 1825 4091 
L 703 3866 
L 703 4441 
L 1819 4666 
L 2450 4666 
L 2450 531 
L 3481 531 
L 3481 0 
L 794 0 
L 794 531 
z
" transform="scale(0.015625)"/>
        <path id="DejaVuSans-33" d="M 2597 2516 
Q 3050 2419 3304 2112 
Q 3559 1806 3559 1356 
Q 3559 666 3084 287 
Q 2609 -91 1734 -91 
Q 1441 -91 1130 -33 
Q 819 25 488 141 
L 488 750 
Q 750 597 1062 519 
Q 1375 441 1716 441 
Q 2309 441 2620 675 
Q 2931 909 2931 1356 
Q 2931 1769 2642 2001 
Q 2353 2234 1838 2234 
L 1294 2234 
L 1294 2753 
L 1863 2753 
Q 2328 2753 2575 2939 
Q 2822 3125 2822 3475 
Q 2822 3834 2567 4026 
Q 2313 4219 1838 4219 
Q 1578 4219 1281 4162 
Q 984 4106 628 3988 
L 628 4550 
Q 988 4650 1302 4700 
Q 1616 4750 1894 4750 
Q 2613 4750 3031 4423 
Q 3450 4097 3450 3541 
Q 3450 3153 3228 2886 
Q 3006 2619 2597 2516 
z
" transform="scale(0.015625)"/>
       </defs>
       <use xlink:href="#DejaVuSans-32"/>
       <use xlink:href="#DejaVuSans-30" x="63.623047"/>
       <use xlink:href="#DejaVuSans-31" x="127.246094"/>
       <use xlink:href="#DejaVuSans-33" x="190.869141"/>
      </g>
     </g>
    </g>
    <g id="xtick_2">
     <g id="line2d_2">
      <path d="M 143.441149 455.94 
L 143.441149 27.6 
" clip-path="url(#p3c22cd9525)" style="fill: none; stroke: #ffffff; stroke-linecap: round"/>
     </g>
     <g id="text_2">
      <!-- 2014 -->
      <g style="fill: #262626" transform="translate(129.443649 473.798281) scale(0.11 -0.11)">
       <defs>
        <path id="DejaVuSans-34" d="M 2419 4116 
L 825 1625 
L 2419 1625 
L 2419 4116 
z
M 2253 4666 
L 3047 4666 
L 3047 1625 
L 3713 1625 
L 3713 1100 
L 3047 1100 
L 3047 0 
L 2419 0 
L 2419 1100 
L 313 1100 
L 313 1709 
L 2253 4666 
z
" transform="scale(0.015625)"/>
       </defs>
       <use xlink:href="#DejaVuSans-32"/>
       <use xlink:href="#DejaVuSans-30" x="63.623047"/>
       <use xlink:href="#DejaVuSans-31" x="127.246094"/>
       <use xlink:href="#DejaVuSans-34" x="190.869141"/>
      </g>
     </g>
    </g>
    <g id="xtick_3">
     <g id="line2d_3">
      <path d="M 195.646843 455.94 
L 195.646843 27.6 
" clip-path="url(#p3c22cd9525)" style="fill: none; stroke: #ffffff; stroke-linecap: round"/>
     </g>
     <g id="text_3">
      <!-- 2015 -->
      <g style="fill: #262626" transform="translate(181.649343 473.798281) scale(0.11 -0.11)">
       <defs>
        <path id="DejaVuSans-35" d="M 691 4666 
L 3169 4666 
L 3169 4134 
L 1269 4134 
L 1269 2991 
Q 1406 3038 1543 3061 
Q 1681 3084 1819 3084 
Q 2600 3084 3056 2656 
Q 3513 2228 3513 1497 
Q 3513 744 3044 326 
Q 2575 -91 1722 -91 
Q 1428 -91 1123 -41 
Q 819 9 494 109 
L 494 744 
Q 775 591 1075 516 
Q 1375 441 1709 441 
Q 2250 441 2565 725 
Q 2881 1009 2881 1497 
Q 2881 1984 2565 2268 
Q 2250 2553 1709 2553 
Q 1456 2553 1204 2497 
Q 953 2441 691 2322 
L 691 4666 
z
" transform="scale(0.015625)"/>
       </defs>
       <use xlink:href="#DejaVuSans-32"/>
       <use xlink:href="#DejaVuSans-30" x="63.623047"/>
       <use xlink:href="#DejaVuSans-31" x="127.246094"/>
       <use xlink:href="#DejaVuSans-35" x="190.869141"/>
      </g>
     </g>
    </g>
    <g id="xtick_4">
     <g id="line2d_4">
      <path d="M 247.852537 455.94 
L 247.852537 27.6 
" clip-path="url(#p3c22cd9525)" style="fill: none; stroke: #ffffff; stroke-linecap: round"/>
     </g>
     <g id="text_4">
      <!-- 2016 -->
      <g style="fill: #262626" transform="translate(233.855037 473.798281) scale(0.11 -0.11)">
       <defs>
        <path id="DejaVuSans-36" d="M 2113 2584 
Q 1688 2584 1439 2293 
Q 1191 2003 1191 1497 
Q 1191 994 1439 701 
Q 1688 409 2113 409 
Q 2538 409 2786 701 
Q 3034 994 3034 1497 
Q 3034 2003 2786 2293 
Q 2538 2584 2113 2584 
z
M 3366 4563 
L 3366 3988 
Q 3128 4100 2886 4159 
Q 2644 4219 2406 4219 
Q 1781 4219 1451 3797 
Q 1122 3375 1075 2522 
Q 1259 2794 1537 2939 
Q 1816 3084 2150 3084 
Q 2853 3084 3261 2657 
Q 3669 2231 3669 1497 
Q 3669 778 3244 343 
Q 2819 -91 2113 -91 
Q 1303 -91 875 529 
Q 447 1150 447 2328 
Q 447 3434 972 4092 
Q 1497 4750 2381 4750 
Q 2619 4750 2861 4703 
Q 3103 4656 3366 4563 
z
" transform="scale(0.015625)"/>
       </defs>
       <use xlink:href="#DejaVuSans-32"/>
       <use xlink:href="#DejaVuSans-30" x="63.623047"/>
       <use xlink:href="#DejaVuSans-31" x="127.246094"/>
       <use xlink:href="#DejaVuSans-36" x="190.869141"/>
      </g>
     </g>
    </g>
    <g id="xtick_5">
     <g id="line2d_5">
      <path d="M 300.20126 455.94 
L 300.20126 27.6 
" clip-path="url(#p3c22cd9525)" style="fill: none; stroke: #ffffff; stroke-linecap: round"/>
     </g>
     <g id="text_5">
      <!-- 2017 -->
      <g style="fill: #262626" transform="translate(286.20376 473.798281) scale(0.11 -0.11)">
       <defs>
        <path id="DejaVuSans-37" d="M 525 4666 
L 3525 4666 
L 3525 4397 
L 1831 0 
L 1172 0 
L 2766 4134 
L 525 4134 
L 525 4666 
z
" transform="scale(0.015625)"/>
       </defs>
       <use xlink:href="#DejaVuSans-32"/>
       <use xlink:href="#DejaVuSans-30" x="63.623047"/>
       <use xlink:href="#DejaVuSans-31" x="127.246094"/>
       <use xlink:href="#DejaVuSans-37" x="190.869141"/>
      </g>
     </g>
    </g>
    <g id="xtick_6">
     <g id="line2d_6">
      <path d="M 352.406954 455.94 
L 352.406954 27.6 
" clip-path="url(#p3c22cd9525)" style="fill: none; stroke: #ffffff; stroke-linecap: round"/>
     </g>
     <g id="text_6">
      <!-- 2018 -->
      <g style="fill: #262626" transform="translate(338.409454 473.798281) scale(0.11 -0.11)">
       <defs>
        <path id="DejaVuSans-38" d="M 2034 2216 
Q 1584 2216 1326 1975 
Q 1069 1734 1069 1313 
Q 1069 891 1326 650 
Q 1584 409 2034 409 
Q 2484 409 2743 651 
Q 3003 894 3003 1313 
Q 3003 1734 2745 1975 
Q 2488 2216 2034 2216 
z
M 1403 2484 
Q 997 2584 770 2862 
Q 544 3141 544 3541 
Q 544 4100 942 4425 
Q 1341 4750 2034 4750 
Q 2731 4750 3128 4425 
Q 3525 4100 3525 3541 
Q 3525 3141 3298 2862 
Q 3072 2584 2669 2484 
Q 3125 2378 3379 2068 
Q 3634 1759 3634 1313 
Q 3634 634 3220 271 
Q 2806 -91 2034 -91 
Q 1263 -91 848 271 
Q 434 634 434 1313 
Q 434 1759 690 2068 
Q 947 2378 1403 2484 
z
M 1172 3481 
Q 1172 3119 1398 2916 
Q 1625 2713 2034 2713 
Q 2441 2713 2670 2916 
Q 2900 3119 2900 3481 
Q 2900 3844 2670 4047 
Q 2441 4250 2034 4250 
Q 1625 4250 1398 4047 
Q 1172 3844 1172 3481 
z
" transform="scale(0.015625)"/>
       </defs>
       <use xlink:href="#DejaVuSans-32"/>
       <use xlink:href="#DejaVuSans-30" x="63.623047"/>
       <use xlink:href="#DejaVuSans-31" x="127.246094"/>
       <use xlink:href="#DejaVuSans-38" x="190.869141"/>
      </g>
     </g>
    </g>
    <g id="xtick_7">
     <g id="line2d_7">
      <path d="M 404.612648 455.94 
L 404.612648 27.6 
" clip-path="url(#p3c22cd9525)" style="fill: none; stroke: #ffffff; stroke-linecap: round"/>
     </g>
     <g id="text_7">
      <!-- 2019 -->
      <g style="fill: #262626" transform="translate(390.615148 473.798281) scale(0.11 -0.11)">
       <defs>
        <path id="DejaVuSans-39" d="M 703 97 
L 703 672 
Q 941 559 1184 500 
Q 1428 441 1663 441 
Q 2288 441 2617 861 
Q 2947 1281 2994 2138 
Q 2813 1869 2534 1725 
Q 2256 1581 1919 1581 
Q 1219 1581 811 2004 
Q 403 2428 403 3163 
Q 403 3881 828 4315 
Q 1253 4750 1959 4750 
Q 2769 4750 3195 4129 
Q 3622 3509 3622 2328 
Q 3622 1225 3098 567 
Q 2575 -91 1691 -91 
Q 1453 -91 1209 -44 
Q 966 3 703 97 
z
M 1959 2075 
Q 2384 2075 2632 2365 
Q 2881 2656 2881 3163 
Q 2881 3666 2632 3958 
Q 2384 4250 1959 4250 
Q 1534 4250 1286 3958 
Q 1038 3666 1038 3163 
Q 1038 2656 1286 2365 
Q 1534 2075 1959 2075 
z
" transform="scale(0.015625)"/>
       </defs>
       <use xlink:href="#DejaVuSans-32"/>
       <use xlink:href="#DejaVuSans-30" x="63.623047"/>
       <use xlink:href="#DejaVuSans-31" x="127.246094"/>
       <use xlink:href="#DejaVuSans-39" x="190.869141"/>
      </g>
     </g>
    </g>
    <g id="xtick_8">
     <g id="line2d_8">
      <path d="M 456.818342 455.94 
L 456.818342 27.6 
" clip-path="url(#p3c22cd9525)" style="fill: none; stroke: #ffffff; stroke-linecap: round"/>
     </g>
     <g id="text_8">
      <!-- 2020 -->
      <g style="fill: #262626" transform="translate(442.820842 473.798281) scale(0.11 -0.11)">
       <use xlink:href="#DejaVuSans-32"/>
       <use xlink:href="#DejaVuSans-30" x="63.623047"/>
       <use xlink:href="#DejaVuSans-32" x="127.246094"/>
       <use xlink:href="#DejaVuSans-30" x="190.869141"/>
      </g>
     </g>
    </g>
    <g id="xtick_9">
     <g id="line2d_9">
      <path d="M 509.167066 455.94 
L 509.167066 27.6 
" clip-path="url(#p3c22cd9525)" style="fill: none; stroke: #ffffff; stroke-linecap: round"/>
     </g>
     <g id="text_9">
      <!-- 2021 -->
      <g style="fill: #262626" transform="translate(495.169566 473.798281) scale(0.11 -0.11)">
       <use xlink:href="#DejaVuSans-32"/>
       <use xlink:href="#DejaVuSans-30" x="63.623047"/>
       <use xlink:href="#DejaVuSans-32" x="127.246094"/>
       <use xlink:href="#DejaVuSans-31" x="190.869141"/>
      </g>
     </g>
    </g>
    <g id="xtick_10">
     <g id="line2d_10">
      <path d="M 561.37276 455.94 
L 561.37276 27.6 
" clip-path="url(#p3c22cd9525)" style="fill: none; stroke: #ffffff; stroke-linecap: round"/>
     </g>
     <g id="text_10">
      <!-- 2022 -->
      <g style="fill: #262626" transform="translate(547.37526 473.798281) scale(0.11 -0.11)">
       <use xlink:href="#DejaVuSans-32"/>
       <use xlink:href="#DejaVuSans-30" x="63.623047"/>
       <use xlink:href="#DejaVuSans-32" x="127.246094"/>
       <use xlink:href="#DejaVuSans-32" x="190.869141"/>
      </g>
     </g>
    </g>
    <g id="xtick_11">
     <g id="line2d_11">
      <path d="M 613.578454 455.94 
L 613.578454 27.6 
" clip-path="url(#p3c22cd9525)" style="fill: none; stroke: #ffffff; stroke-linecap: round"/>
     </g>
     <g id="text_11">
      <!-- 2023 -->
      <g style="fill: #262626" transform="translate(599.580954 473.798281) scale(0.11 -0.11)">
       <use xlink:href="#DejaVuSans-32"/>
       <use xlink:href="#DejaVuSans-30" x="63.623047"/>
       <use xlink:href="#DejaVuSans-32" x="127.246094"/>
       <use xlink:href="#DejaVuSans-33" x="190.869141"/>
      </g>
     </g>
    </g>
    <g id="text_12">
     <!-- Date -->
     <g style="fill: #262626" transform="translate(335.849062 489.204063) scale(0.12 -0.12)">
      <defs>
       <path id="DejaVuSans-44" d="M 1259 4147 
L 1259 519 
L 2022 519 
Q 2988 519 3436 956 
Q 3884 1394 3884 2338 
Q 3884 3275 3436 3711 
Q 2988 4147 2022 4147 
L 1259 4147 
z
M 628 4666 
L 1925 4666 
Q 3281 4666 3915 4102 
Q 4550 3538 4550 2338 
Q 4550 1131 3912 565 
Q 3275 0 1925 0 
L 628 0 
L 628 4666 
z
" transform="scale(0.015625)"/>
       <path id="DejaVuSans-61" d="M 2194 1759 
Q 1497 1759 1228 1600 
Q 959 1441 959 1056 
Q 959 750 1161 570 
Q 1363 391 1709 391 
Q 2188 391 2477 730 
Q 2766 1069 2766 1631 
L 2766 1759 
L 2194 1759 
z
M 3341 1997 
L 3341 0 
L 2766 0 
L 2766 531 
Q 2569 213 2275 61 
Q 1981 -91 1556 -91 
Q 1019 -91 701 211 
Q 384 513 384 1019 
Q 384 1609 779 1909 
Q 1175 2209 1959 2209 
L 2766 2209 
L 2766 2266 
Q 2766 2663 2505 2880 
Q 2244 3097 1772 3097 
Q 1472 3097 1187 3025 
Q 903 2953 641 2809 
L 641 3341 
Q 956 3463 1253 3523 
Q 1550 3584 1831 3584 
Q 2591 3584 2966 3190 
Q 3341 2797 3341 1997 
z
" transform="scale(0.015625)"/>
       <path id="DejaVuSans-74" d="M 1172 4494 
L 1172 3500 
L 2356 3500 
L 2356 3053 
L 1172 3053 
L 1172 1153 
Q 1172 725 1289 603 
Q 1406 481 1766 481 
L 2356 481 
L 2356 0 
L 1766 0 
Q 1100 0 847 248 
Q 594 497 594 1153 
L 594 3053 
L 172 3053 
L 172 3500 
L 594 3500 
L 594 4494 
L 1172 4494 
z
" transform="scale(0.015625)"/>
       <path id="DejaVuSans-65" d="M 3597 1894 
L 3597 1613 
L 953 1613 
Q 991 1019 1311 708 
Q 1631 397 2203 397 
Q 2534 397 2845 478 
Q 3156 559 3463 722 
L 3463 178 
Q 3153 47 2828 -22 
Q 2503 -91 2169 -91 
Q 1331 -91 842 396 
Q 353 884 353 1716 
Q 353 2575 817 3079 
Q 1281 3584 2069 3584 
Q 2775 3584 3186 3129 
Q 3597 2675 3597 1894 
z
M 3022 2063 
Q 3016 2534 2758 2815 
Q 2500 3097 2075 3097 
Q 1594 3097 1305 2825 
Q 1016 2553 972 2059 
L 3022 2063 
z
" transform="scale(0.015625)"/>
      </defs>
      <use xlink:href="#DejaVuSans-44"/>
      <use xlink:href="#DejaVuSans-61" x="77.001953"/>
      <use xlink:href="#DejaVuSans-74" x="138.28125"/>
      <use xlink:href="#DejaVuSans-65" x="177.490234"/>
     </g>
    </g>
   </g>
   <g id="matplotlib.axis_2">
    <g id="ytick_1">
     <g id="line2d_12">
      <path d="M 65.34 396.062219 
L 635.04 396.062219 
" clip-path="url(#p3c22cd9525)" style="fill: none; stroke: #ffffff; stroke-linecap: round"/>
     </g>
     <g id="text_13">
      <!-- 1000 -->
      <g style="fill: #262626" transform="translate(27.845 400.24136) scale(0.11 -0.11)">
       <use xlink:href="#DejaVuSans-31"/>
       <use xlink:href="#DejaVuSans-30" x="63.623047"/>
       <use xlink:href="#DejaVuSans-30" x="127.246094"/>
       <use xlink:href="#DejaVuSans-30" x="190.869141"/>
      </g>
     </g>
    </g>
    <g id="ytick_2">
     <g id="line2d_13">
      <path d="M 65.34 334.921737 
L 635.04 334.921737 
" clip-path="url(#p3c22cd9525)" style="fill: none; stroke: #ffffff; stroke-linecap: round"/>
     </g>
     <g id="text_14">
      <!-- 1500 -->
      <g style="fill: #262626" transform="translate(27.845 339.100877) scale(0.11 -0.11)">
       <use xlink:href="#DejaVuSans-31"/>
       <use xlink:href="#DejaVuSans-35" x="63.623047"/>
       <use xlink:href="#DejaVuSans-30" x="127.246094"/>
       <use xlink:href="#DejaVuSans-30" x="190.869141"/>
      </g>
     </g>
    </g>
    <g id="ytick_3">
     <g id="line2d_14">
      <path d="M 65.34 273.781254 
L 635.04 273.781254 
" clip-path="url(#p3c22cd9525)" style="fill: none; stroke: #ffffff; stroke-linecap: round"/>
     </g>
     <g id="text_15">
      <!-- 2000 -->
      <g style="fill: #262626" transform="translate(27.845 277.960395) scale(0.11 -0.11)">
       <use xlink:href="#DejaVuSans-32"/>
       <use xlink:href="#DejaVuSans-30" x="63.623047"/>
       <use xlink:href="#DejaVuSans-30" x="127.246094"/>
       <use xlink:href="#DejaVuSans-30" x="190.869141"/>
      </g>
     </g>
    </g>
    <g id="ytick_4">
     <g id="line2d_15">
      <path d="M 65.34 212.640772 
L 635.04 212.640772 
" clip-path="url(#p3c22cd9525)" style="fill: none; stroke: #ffffff; stroke-linecap: round"/>
     </g>
     <g id="text_16">
      <!-- 2500 -->
      <g style="fill: #262626" transform="translate(27.845 216.819913) scale(0.11 -0.11)">
       <use xlink:href="#DejaVuSans-32"/>
       <use xlink:href="#DejaVuSans-35" x="63.623047"/>
       <use xlink:href="#DejaVuSans-30" x="127.246094"/>
       <use xlink:href="#DejaVuSans-30" x="190.869141"/>
      </g>
     </g>
    </g>
    <g id="ytick_5">
     <g id="line2d_16">
      <path d="M 65.34 151.50029 
L 635.04 151.50029 
" clip-path="url(#p3c22cd9525)" style="fill: none; stroke: #ffffff; stroke-linecap: round"/>
     </g>
     <g id="text_17">
      <!-- 3000 -->
      <g style="fill: #262626" transform="translate(27.845 155.67943) scale(0.11 -0.11)">
       <use xlink:href="#DejaVuSans-33"/>
       <use xlink:href="#DejaVuSans-30" x="63.623047"/>
       <use xlink:href="#DejaVuSans-30" x="127.246094"/>
       <use xlink:href="#DejaVuSans-30" x="190.869141"/>
      </g>
     </g>
    </g>
    <g id="ytick_6">
     <g id="line2d_17">
      <path d="M 65.34 90.359807 
L 635.04 90.359807 
" clip-path="url(#p3c22cd9525)" style="fill: none; stroke: #ffffff; stroke-linecap: round"/>
     </g>
     <g id="text_18">
      <!-- 3500 -->
      <g style="fill: #262626" transform="translate(27.845 94.538948) scale(0.11 -0.11)">
       <use xlink:href="#DejaVuSans-33"/>
       <use xlink:href="#DejaVuSans-35" x="63.623047"/>
       <use xlink:href="#DejaVuSans-30" x="127.246094"/>
       <use xlink:href="#DejaVuSans-30" x="190.869141"/>
      </g>
     </g>
    </g>
    <g id="ytick_7">
     <g id="line2d_18">
      <path d="M 65.34 29.219325 
L 635.04 29.219325 
" clip-path="url(#p3c22cd9525)" style="fill: none; stroke: #ffffff; stroke-linecap: round"/>
     </g>
     <g id="text_19">
      <!-- 4000 -->
      <g style="fill: #262626" transform="translate(27.845 33.398466) scale(0.11 -0.11)">
       <use xlink:href="#DejaVuSans-34"/>
       <use xlink:href="#DejaVuSans-30" x="63.623047"/>
       <use xlink:href="#DejaVuSans-30" x="127.246094"/>
       <use xlink:href="#DejaVuSans-30" x="190.869141"/>
      </g>
     </g>
    </g>
    <g id="text_20">
     <!-- Price Adjusted for Inflation ($) -->
     <g style="fill: #262626" transform="translate(21.349375 331.561875) rotate(-90) scale(0.12 -0.12)">
      <defs>
       <path id="DejaVuSans-50" d="M 1259 4147 
L 1259 2394 
L 2053 2394 
Q 2494 2394 2734 2622 
Q 2975 2850 2975 3272 
Q 2975 3691 2734 3919 
Q 2494 4147 2053 4147 
L 1259 4147 
z
M 628 4666 
L 2053 4666 
Q 2838 4666 3239 4311 
Q 3641 3956 3641 3272 
Q 3641 2581 3239 2228 
Q 2838 1875 2053 1875 
L 1259 1875 
L 1259 0 
L 628 0 
L 628 4666 
z
" transform="scale(0.015625)"/>
       <path id="DejaVuSans-72" d="M 2631 2963 
Q 2534 3019 2420 3045 
Q 2306 3072 2169 3072 
Q 1681 3072 1420 2755 
Q 1159 2438 1159 1844 
L 1159 0 
L 581 0 
L 581 3500 
L 1159 3500 
L 1159 2956 
Q 1341 3275 1631 3429 
Q 1922 3584 2338 3584 
Q 2397 3584 2469 3576 
Q 2541 3569 2628 3553 
L 2631 2963 
z
" transform="scale(0.015625)"/>
       <path id="DejaVuSans-69" d="M 603 3500 
L 1178 3500 
L 1178 0 
L 603 0 
L 603 3500 
z
M 603 4863 
L 1178 4863 
L 1178 4134 
L 603 4134 
L 603 4863 
z
" transform="scale(0.015625)"/>
       <path id="DejaVuSans-63" d="M 3122 3366 
L 3122 2828 
Q 2878 2963 2633 3030 
Q 2388 3097 2138 3097 
Q 1578 3097 1268 2742 
Q 959 2388 959 1747 
Q 959 1106 1268 751 
Q 1578 397 2138 397 
Q 2388 397 2633 464 
Q 2878 531 3122 666 
L 3122 134 
Q 2881 22 2623 -34 
Q 2366 -91 2075 -91 
Q 1284 -91 818 406 
Q 353 903 353 1747 
Q 353 2603 823 3093 
Q 1294 3584 2113 3584 
Q 2378 3584 2631 3529 
Q 2884 3475 3122 3366 
z
" transform="scale(0.015625)"/>
       <path id="DejaVuSans-20" transform="scale(0.015625)"/>
       <path id="DejaVuSans-41" d="M 2188 4044 
L 1331 1722 
L 3047 1722 
L 2188 4044 
z
M 1831 4666 
L 2547 4666 
L 4325 0 
L 3669 0 
L 3244 1197 
L 1141 1197 
L 716 0 
L 50 0 
L 1831 4666 
z
" transform="scale(0.015625)"/>
       <path id="DejaVuSans-64" d="M 2906 2969 
L 2906 4863 
L 3481 4863 
L 3481 0 
L 2906 0 
L 2906 525 
Q 2725 213 2448 61 
Q 2172 -91 1784 -91 
Q 1150 -91 751 415 
Q 353 922 353 1747 
Q 353 2572 751 3078 
Q 1150 3584 1784 3584 
Q 2172 3584 2448 3432 
Q 2725 3281 2906 2969 
z
M 947 1747 
Q 947 1113 1208 752 
Q 1469 391 1925 391 
Q 2381 391 2643 752 
Q 2906 1113 2906 1747 
Q 2906 2381 2643 2742 
Q 2381 3103 1925 3103 
Q 1469 3103 1208 2742 
Q 947 2381 947 1747 
z
" transform="scale(0.015625)"/>
       <path id="DejaVuSans-6a" d="M 603 3500 
L 1178 3500 
L 1178 -63 
Q 1178 -731 923 -1031 
Q 669 -1331 103 -1331 
L -116 -1331 
L -116 -844 
L 38 -844 
Q 366 -844 484 -692 
Q 603 -541 603 -63 
L 603 3500 
z
M 603 4863 
L 1178 4863 
L 1178 4134 
L 603 4134 
L 603 4863 
z
" transform="scale(0.015625)"/>
       <path id="DejaVuSans-75" d="M 544 1381 
L 544 3500 
L 1119 3500 
L 1119 1403 
Q 1119 906 1312 657 
Q 1506 409 1894 409 
Q 2359 409 2629 706 
Q 2900 1003 2900 1516 
L 2900 3500 
L 3475 3500 
L 3475 0 
L 2900 0 
L 2900 538 
Q 2691 219 2414 64 
Q 2138 -91 1772 -91 
Q 1169 -91 856 284 
Q 544 659 544 1381 
z
M 1991 3584 
L 1991 3584 
z
" transform="scale(0.015625)"/>
       <path id="DejaVuSans-73" d="M 2834 3397 
L 2834 2853 
Q 2591 2978 2328 3040 
Q 2066 3103 1784 3103 
Q 1356 3103 1142 2972 
Q 928 2841 928 2578 
Q 928 2378 1081 2264 
Q 1234 2150 1697 2047 
L 1894 2003 
Q 2506 1872 2764 1633 
Q 3022 1394 3022 966 
Q 3022 478 2636 193 
Q 2250 -91 1575 -91 
Q 1294 -91 989 -36 
Q 684 19 347 128 
L 347 722 
Q 666 556 975 473 
Q 1284 391 1588 391 
Q 1994 391 2212 530 
Q 2431 669 2431 922 
Q 2431 1156 2273 1281 
Q 2116 1406 1581 1522 
L 1381 1569 
Q 847 1681 609 1914 
Q 372 2147 372 2553 
Q 372 3047 722 3315 
Q 1072 3584 1716 3584 
Q 2034 3584 2315 3537 
Q 2597 3491 2834 3397 
z
" transform="scale(0.015625)"/>
       <path id="DejaVuSans-66" d="M 2375 4863 
L 2375 4384 
L 1825 4384 
Q 1516 4384 1395 4259 
Q 1275 4134 1275 3809 
L 1275 3500 
L 2222 3500 
L 2222 3053 
L 1275 3053 
L 1275 0 
L 697 0 
L 697 3053 
L 147 3053 
L 147 3500 
L 697 3500 
L 697 3744 
Q 697 4328 969 4595 
Q 1241 4863 1831 4863 
L 2375 4863 
z
" transform="scale(0.015625)"/>
       <path id="DejaVuSans-6f" d="M 1959 3097 
Q 1497 3097 1228 2736 
Q 959 2375 959 1747 
Q 959 1119 1226 758 
Q 1494 397 1959 397 
Q 2419 397 2687 759 
Q 2956 1122 2956 1747 
Q 2956 2369 2687 2733 
Q 2419 3097 1959 3097 
z
M 1959 3584 
Q 2709 3584 3137 3096 
Q 3566 2609 3566 1747 
Q 3566 888 3137 398 
Q 2709 -91 1959 -91 
Q 1206 -91 779 398 
Q 353 888 353 1747 
Q 353 2609 779 3096 
Q 1206 3584 1959 3584 
z
" transform="scale(0.015625)"/>
       <path id="DejaVuSans-49" d="M 628 4666 
L 1259 4666 
L 1259 0 
L 628 0 
L 628 4666 
z
" transform="scale(0.015625)"/>
       <path id="DejaVuSans-6e" d="M 3513 2113 
L 3513 0 
L 2938 0 
L 2938 2094 
Q 2938 2591 2744 2837 
Q 2550 3084 2163 3084 
Q 1697 3084 1428 2787 
Q 1159 2491 1159 1978 
L 1159 0 
L 581 0 
L 581 3500 
L 1159 3500 
L 1159 2956 
Q 1366 3272 1645 3428 
Q 1925 3584 2291 3584 
Q 2894 3584 3203 3211 
Q 3513 2838 3513 2113 
z
" transform="scale(0.015625)"/>
       <path id="DejaVuSans-6c" d="M 603 4863 
L 1178 4863 
L 1178 0 
L 603 0 
L 603 4863 
z
" transform="scale(0.015625)"/>
       <path id="DejaVuSans-28" d="M 1984 4856 
Q 1566 4138 1362 3434 
Q 1159 2731 1159 2009 
Q 1159 1288 1364 580 
Q 1569 -128 1984 -844 
L 1484 -844 
Q 1016 -109 783 600 
Q 550 1309 550 2009 
Q 550 2706 781 3412 
Q 1013 4119 1484 4856 
L 1984 4856 
z
" transform="scale(0.015625)"/>
       <path id="DejaVuSans-24" d="M 2163 -941 
L 1850 -941 
L 1847 0 
Q 1519 6 1191 76 
Q 863 147 531 288 
L 531 850 
Q 850 650 1176 548 
Q 1503 447 1850 444 
L 1850 1869 
Q 1159 1981 845 2250 
Q 531 2519 531 2988 
Q 531 3497 872 3790 
Q 1213 4084 1850 4128 
L 1850 4863 
L 2163 4863 
L 2163 4138 
Q 2453 4125 2725 4076 
Q 2997 4028 3256 3944 
L 3256 3397 
Q 2997 3528 2723 3600 
Q 2450 3672 2163 3684 
L 2163 2350 
Q 2872 2241 3206 1959 
Q 3541 1678 3541 1191 
Q 3541 663 3186 358 
Q 2831 53 2163 6 
L 2163 -941 
z
M 1850 2406 
L 1850 3688 
Q 1488 3647 1297 3481 
Q 1106 3316 1106 3041 
Q 1106 2772 1282 2622 
Q 1459 2472 1850 2406 
z
M 2163 1806 
L 2163 453 
Q 2559 506 2761 678 
Q 2963 850 2963 1131 
Q 2963 1406 2770 1568 
Q 2578 1731 2163 1806 
z
" transform="scale(0.015625)"/>
       <path id="DejaVuSans-29" d="M 513 4856 
L 1013 4856 
Q 1481 4119 1714 3412 
Q 1947 2706 1947 2009 
Q 1947 1309 1714 600 
Q 1481 -109 1013 -844 
L 513 -844 
Q 928 -128 1133 580 
Q 1338 1288 1338 2009 
Q 1338 2731 1133 3434 
Q 928 4138 513 4856 
z
" transform="scale(0.015625)"/>
      </defs>
      <use xlink:href="#DejaVuSans-50"/>
      <use xlink:href="#DejaVuSans-72" x="58.552734"/>
      <use xlink:href="#DejaVuSans-69" x="99.666016"/>
      <use xlink:href="#DejaVuSans-63" x="127.449219"/>
      <use xlink:href="#DejaVuSans-65" x="182.429688"/>
      <use xlink:href="#DejaVuSans-20" x="243.953125"/>
      <use xlink:href="#DejaVuSans-41" x="275.740234"/>
      <use xlink:href="#DejaVuSans-64" x="342.398438"/>
      <use xlink:href="#DejaVuSans-6a" x="405.875"/>
      <use xlink:href="#DejaVuSans-75" x="433.658203"/>
      <use xlink:href="#DejaVuSans-73" x="497.037109"/>
      <use xlink:href="#DejaVuSans-74" x="549.136719"/>
      <use xlink:href="#DejaVuSans-65" x="588.345703"/>
      <use xlink:href="#DejaVuSans-64" x="649.869141"/>
      <use xlink:href="#DejaVuSans-20" x="713.345703"/>
      <use xlink:href="#DejaVuSans-66" x="745.132812"/>
      <use xlink:href="#DejaVuSans-6f" x="780.337891"/>
      <use xlink:href="#DejaVuSans-72" x="841.519531"/>
      <use xlink:href="#DejaVuSans-20" x="882.632812"/>
      <use xlink:href="#DejaVuSans-49" x="914.419922"/>
      <use xlink:href="#DejaVuSans-6e" x="943.912109"/>
      <use xlink:href="#DejaVuSans-66" x="1007.291016"/>
      <use xlink:href="#DejaVuSans-6c" x="1042.496094"/>
      <use xlink:href="#DejaVuSans-61" x="1070.279297"/>
      <use xlink:href="#DejaVuSans-74" x="1131.558594"/>
      <use xlink:href="#DejaVuSans-69" x="1170.767578"/>
      <use xlink:href="#DejaVuSans-6f" x="1198.550781"/>
      <use xlink:href="#DejaVuSans-6e" x="1259.732422"/>
      <use xlink:href="#DejaVuSans-20" x="1323.111328"/>
      <use xlink:href="#DejaVuSans-28" x="1354.898438"/>
      <use xlink:href="#DejaVuSans-24" x="1393.912109"/>
      <use xlink:href="#DejaVuSans-29" x="1457.535156"/>
     </g>
    </g>
   </g>
   <g id="PolyCollection_1"/>
   <g id="PolyCollection_2"/>
   <g id="PolyCollection_3"/>
   <g id="PolyCollection_4"/>
   <g id="PolyCollection_5"/>
   <g id="line2d_19">
    <path d="M 91.235455 239.294049 
L 95.669363 232.356031 
L 99.674183 226.949014 
L 104.108091 213.82486 
L 108.39897 240.456041 
L 112.832879 220.078391 
L 117.123758 224.964741 
L 121.557666 228.014751 
L 125.991574 225.084071 
L 130.282453 219.517389 
L 134.716361 236.176028 
L 139.00724 233.988603 
L 143.441149 216.969566 
L 147.875057 212.957104 
L 151.879877 214.287625 
L 156.313785 210.352818 
L 160.604664 215.969584 
L 165.038573 228.380415 
L 169.329452 221.776253 
L 173.76336 222.372524 
L 178.197268 209.246358 
L 182.488147 206.058023 
L 186.922055 235.639004 
L 191.212934 232.962472 
L 195.646843 214.76286 
L 200.080751 222.128746 
L 204.085571 221.225936 
L 208.51948 222.592579 
L 212.810359 218.034961 
L 217.244267 221.012259 
L 221.535146 215.130137 
L 225.969054 204.921618 
L 230.402962 198.570102 
L 234.693841 198.01399 
L 239.127749 229.064819 
L 243.418628 226.104291 
L 247.852537 210.234444 
L 252.286445 196.502517 
L 256.434295 200.572624 
L 260.868203 209.313866 
L 265.159082 224.867438 
L 269.59299 200.717374 
L 273.883869 210.043325 
L 278.317777 208.92693 
L 282.751686 199.555313 
L 287.042565 191.947699 
L 291.476473 219.294553 
L 295.767352 207.412404 
L 300.20126 200.238627 
L 304.635168 195.653571 
L 308.639989 194.28425 
L 313.073897 184.727899 
L 317.364776 198.297976 
L 321.798684 186.51083 
L 326.089563 170.751355 
L 330.523471 164.446879 
L 334.95738 174.934176 
L 339.248259 167.338445 
L 343.682167 178.608892 
L 347.973046 168.693696 
L 352.406954 173.155748 
L 356.840862 139.538453 
L 360.845683 145.097935 
L 365.279591 163.543271 
L 369.57047 159.706057 
L 374.004378 196.250814 
L 378.295257 185.296195 
L 382.729165 189.033954 
L 387.163074 162.948694 
L 391.453953 160.086488 
L 395.887861 188.07934 
L 400.17874 166.045434 
L 404.612648 172.201799 
L 409.046556 182.304083 
L 413.051377 173.586783 
L 417.485285 158.520658 
L 421.776164 174.973618 
L 426.210072 206.076772 
L 430.500951 184.707674 
L 434.93486 174.657448 
L 439.368768 194.537417 
L 443.659647 179.030202 
L 448.093555 197.687541 
L 452.384434 181.746042 
L 456.818342 183.694314 
L 461.252251 176.824558 
L 465.4001 209.159929 
L 469.834008 207.284561 
L 474.124887 190.715388 
L 478.558796 169.228706 
L 482.849675 205.21108 
L 487.283583 213.135357 
L 491.717491 174.867511 
L 496.00837 200.25913 
L 500.442278 186.109782 
L 504.733157 176.263981 
L 509.167066 114.242954 
L 513.600974 158.655613 
L 517.605794 155.341039 
L 522.039702 192.095875 
L 526.330581 177.937856 
L 530.76449 58.618198 
L 535.055369 69.381586 
L 539.489277 117.788452 
L 543.923185 76.39719 
L 548.214064 73.448498 
L 552.647972 106.432713 
L 556.938851 77.741502 
L 561.37276 60.473231 
L 565.806668 47.07 
L 569.811488 111.710829 
L 574.245397 110.550127 
L 578.536276 125.121183 
L 582.970184 161.095056 
L 587.261063 168.385101 
L 591.694971 159.284649 
L 596.128879 178.772995 
L 600.419758 165.810118 
L 604.853666 163.493556 
L 609.144545 100.639601 
" clip-path="url(#p3c22cd9525)" style="fill: none; stroke: #4c72b0; stroke-width: 1.5; stroke-linecap: round"/>
   </g>
   <g id="line2d_20">
    <path d="M 91.235455 302.260998 
L 95.669363 296.555456 
L 99.674183 293.394614 
L 104.108091 292.666173 
L 108.39897 304.894809 
L 112.832879 288.626211 
L 117.123758 290.403723 
L 121.557666 294.778274 
L 125.991574 293.875554 
L 130.282453 291.606803 
L 134.716361 299.272755 
L 139.00724 300.959994 
L 143.441149 287.226514 
L 147.875057 289.222323 
L 151.879877 290.189211 
L 156.313785 290.390906 
L 160.604664 291.838225 
L 165.038573 302.329974 
L 169.329452 298.683196 
L 173.76336 292.22946 
L 178.197268 288.391339 
L 182.488147 286.95073 
L 186.922055 307.102972 
L 191.212934 307.342324 
L 195.646843 298.76319 
L 200.080751 298.043415 
L 204.085571 298.032298 
L 208.51948 291.821514 
L 212.810359 295.414752 
L 217.244267 298.899772 
L 221.535146 294.421093 
L 225.969054 287.404679 
L 230.402962 280.257656 
L 234.693841 281.403232 
L 239.127749 304.536395 
L 243.418628 308.321756 
L 247.852537 288.776284 
L 252.286445 283.737 
L 256.434295 287.968186 
L 260.868203 288.685454 
L 265.159082 308.289423 
L 269.59299 284.194557 
L 273.883869 286.080016 
L 278.317777 285.283642 
L 282.751686 282.715224 
L 287.042565 279.339726 
L 291.476473 292.971716 
L 295.767352 291.682282 
L 300.20126 276.5411 
L 304.635168 278.007354 
L 308.639989 280.204904 
L 313.073897 275.187708 
L 317.364776 281.95672 
L 321.798684 265.567704 
L 326.089563 263.608552 
L 330.523471 251.849091 
L 334.95738 265.519847 
L 339.248259 256.913408 
L 343.682167 264.34518 
L 347.973046 262.715028 
L 352.406954 263.642499 
L 356.840862 249.244104 
L 360.845683 248.313703 
L 365.279591 251.428973 
L 369.57047 252.036428 
L 374.004378 271.150358 
L 378.295257 258.571229 
L 382.729165 260.73552 
L 387.163074 253.280945 
L 391.453953 257.644583 
L 395.887861 274.392585 
L 400.17874 262.885077 
L 404.612648 268.993158 
L 409.046556 273.658216 
L 413.051377 270.612109 
L 417.485285 262.895431 
L 421.776164 274.622695 
L 426.210072 290.911469 
L 430.500951 274.881236 
L 434.93486 272.213353 
L 439.368768 274.246845 
L 443.659647 267.173557 
L 448.093555 278.149485 
L 452.384434 273.197861 
L 456.818342 274.896637 
L 461.252251 272.774205 
L 465.4001 279.628114 
L 469.834008 286.092901 
L 474.124887 283.779543 
L 478.558796 267.702369 
L 482.849675 279.359549 
L 487.283583 284.751804 
L 491.717491 262.214527 
L 496.00837 283.408082 
L 500.442278 280.006973 
L 504.733157 262.308642 
L 509.167066 241.921431 
L 513.600974 251.377455 
L 517.605794 259.654166 
L 522.039702 263.252842 
L 526.330581 264.416167 
L 530.76449 237.536409 
L 535.055369 203.909257 
L 539.489277 227.979801 
L 543.923185 203.18427 
L 548.214064 225.221716 
L 552.647972 260.065494 
L 556.938851 225.417426 
L 561.37276 204.110605 
L 565.806668 190.752583 
L 569.811488 209.939803 
L 574.245397 209.390964 
L 578.536276 230.282752 
L 582.970184 253.441955 
L 587.261063 249.257329 
L 591.694971 247.223874 
L 596.128879 256.517396 
L 600.419758 253.544912 
L 604.853666 254.181732 
L 609.144545 241.735388 
" clip-path="url(#p3c22cd9525)" style="fill: none; stroke: #dd8452; stroke-width: 1.5; stroke-linecap: round"/>
   </g>
   <g id="line2d_21">
    <path d="M 91.235455 353.105683 
L 95.669363 348.629911 
L 99.674183 345.299039 
L 104.108091 344.574887 
L 108.39897 352.398299 
L 112.832879 343.473499 
L 117.123758 349.436642 
L 121.557666 352.862696 
L 125.991574 350.159808 
L 130.282453 349.29706 
L 134.716361 356.013383 
L 139.00724 358.120809 
L 143.441149 347.2131 
L 147.875057 347.835143 
L 151.879877 349.835466 
L 156.313785 349.2648 
L 160.604664 347.666127 
L 165.038573 352.723477 
L 169.329452 352.170127 
L 173.76336 351.386324 
L 178.197268 347.287606 
L 182.488147 348.449677 
L 186.922055 360.850617 
L 191.212934 362.822515 
L 195.646843 353.228698 
L 200.080751 354.768245 
L 204.085571 355.728981 
L 208.51948 353.404921 
L 212.810359 351.661063 
L 217.244267 357.957613 
L 221.535146 354.729351 
L 225.969054 352.297221 
L 230.402962 342.72507 
L 234.693841 347.382663 
L 239.127749 361.670871 
L 243.418628 366.312921 
L 247.852537 353.949987 
L 252.286445 352.090362 
L 256.434295 352.442886 
L 260.868203 349.33624 
L 265.159082 366.49043 
L 269.59299 349.963215 
L 273.883869 347.462141 
L 278.317777 346.370046 
L 282.751686 344.970296 
L 287.042565 344.706085 
L 291.476473 354.768638 
L 295.767352 355.056684 
L 300.20126 342.459108 
L 304.635168 342.05877 
L 308.639989 339.361598 
L 313.073897 337.690589 
L 317.364776 345.851078 
L 321.798684 338.907418 
L 326.089563 343.339784 
L 330.523471 331.345061 
L 334.95738 336.502997 
L 339.248259 327.165431 
L 343.682167 333.525828 
L 347.973046 333.638341 
L 352.406954 338.468587 
L 356.840862 331.56782 
L 360.845683 328.086787 
L 365.279591 325.78824 
L 369.57047 322.497081 
L 374.004378 330.086253 
L 378.295257 327.251652 
L 382.729165 326.241084 
L 387.163074 327.802829 
L 391.453953 331.409673 
L 395.887861 343.188524 
L 400.17874 344.625523 
L 404.612648 345.337741 
L 409.046556 345.025251 
L 413.051377 340.856967 
L 417.485285 341.170164 
L 421.776164 350.784649 
L 426.210072 352.095433 
L 430.500951 346.659935 
L 434.93486 337.245529 
L 439.368768 337.297829 
L 443.659647 330.857598 
L 448.093555 340.616749 
L 452.384434 340.404425 
L 456.818342 339.450879 
L 461.252251 339.397552 
L 465.4001 342.237244 
L 469.834008 345.718412 
L 474.124887 344.835592 
L 478.558796 337.632202 
L 482.849675 338.858276 
L 487.283583 351.261627 
L 491.717491 339.844771 
L 496.00837 345.310453 
L 500.442278 345.545192 
L 504.733157 329.618357 
L 509.167066 324.252907 
L 513.600974 337.595218 
L 517.605794 327.33307 
L 522.039702 331.58292 
L 526.330581 341.269992 
L 530.76449 319.543853 
L 535.055369 305.898656 
L 539.489277 324.189456 
L 543.923185 318.8876 
L 548.214064 331.323144 
L 552.647972 324.821974 
L 556.938851 326.439078 
L 561.37276 307.888144 
L 565.806668 301.053352 
L 569.811488 295.79134 
L 574.245397 287.801204 
L 578.536276 300.485105 
L 582.970184 323.95206 
L 587.261063 301.840662 
L 591.694971 318.963365 
L 596.128879 321.024549 
L 600.419758 321.48297 
L 604.853666 324.595306 
L 609.144545 318.361226 
" clip-path="url(#p3c22cd9525)" style="fill: none; stroke: #55a868; stroke-width: 1.5; stroke-linecap: round"/>
   </g>
   <g id="line2d_22">
    <path d="M 91.235455 394.304542 
L 95.669363 389.866179 
L 99.674183 388.228606 
L 104.108091 385.09077 
L 108.39897 394.54708 
L 112.832879 388.883951 
L 117.123758 390.389081 
L 121.557666 393.648292 
L 125.991574 394.197005 
L 130.282453 393.983289 
L 134.716361 398.848875 
L 139.00724 399.383927 
L 143.441149 393.944651 
L 147.875057 393.010773 
L 151.879877 394.24409 
L 156.313785 394.683747 
L 160.604664 391.373181 
L 165.038573 394.502462 
L 169.329452 394.384708 
L 173.76336 394.392977 
L 178.197268 395.467498 
L 182.488147 392.000638 
L 186.922055 403.512428 
L 191.212934 404.905265 
L 195.646843 401.069318 
L 200.080751 399.319631 
L 204.085571 398.031965 
L 208.51948 396.81396 
L 212.810359 395.707461 
L 217.244267 399.830015 
L 221.535146 397.573024 
L 225.969054 397.658103 
L 230.402962 393.075846 
L 234.693841 396.314476 
L 239.127749 403.787804 
L 243.418628 409.98299 
L 247.852537 398.323724 
L 252.286445 398.435763 
L 256.434295 398.990321 
L 260.868203 396.679075 
L 265.159082 406.392713 
L 269.59299 400.17997 
L 273.883869 394.060238 
L 278.317777 391.773012 
L 282.751686 392.624676 
L 287.042565 395.072513 
L 291.476473 400.648082 
L 295.767352 400.214164 
L 300.20126 394.430594 
L 304.635168 394.852036 
L 308.639989 394.439062 
L 313.073897 386.425591 
L 317.364776 392.163977 
L 321.798684 392.851731 
L 326.089563 399.267996 
L 330.523471 388.423657 
L 334.95738 390.376197 
L 339.248259 378.860629 
L 343.682167 388.345265 
L 347.973046 390.283784 
L 352.406954 391.365208 
L 356.840862 382.213282 
L 360.845683 380.823602 
L 365.279591 382.714747 
L 369.57047 379.49646 
L 374.004378 380.989627 
L 378.295257 381.880339 
L 382.729165 377.090489 
L 387.163074 378.455161 
L 391.453953 383.98003 
L 395.887861 391.227628 
L 400.17874 393.308594 
L 404.612648 393.733244 
L 409.046556 391.971995 
L 413.051377 392.630554 
L 417.485285 391.12729 
L 421.776164 398.585544 
L 426.210072 402.478515 
L 430.500951 391.619523 
L 434.93486 389.205422 
L 439.368768 387.879083 
L 443.659647 383.875252 
L 448.093555 388.10621 
L 452.384434 391.093482 
L 456.818342 387.895101 
L 461.252251 386.961824 
L 465.4001 389.9852 
L 469.834008 391.31504 
L 474.124887 390.742916 
L 478.558796 385.781741 
L 482.849675 384.950075 
L 487.283583 392.888299 
L 491.717491 394.253458 
L 496.00837 388.709663 
L 500.442278 393.048808 
L 504.733157 387.909142 
L 509.167066 390.638859 
L 513.600974 392.990928 
L 517.605794 394.250224 
L 522.039702 386.11042 
L 526.330581 388.611618 
L 530.76449 378.362549 
L 535.055369 359.568188 
L 539.489277 379.76633 
L 543.923185 371.478115 
L 548.214064 391.809468 
L 552.647972 380.691861 
L 556.938851 389.103628 
L 561.37276 385.926606 
L 565.806668 368.728382 
L 569.811488 358.152943 
L 574.245397 350.79134 
L 578.536276 359.830059 
L 582.970184 376.161058 
L 587.261063 373.109685 
L 591.694971 377.747353 
L 596.128879 374.998773 
L 600.419758 377.431292 
L 604.853666 384.724592 
L 609.144545 377.025824 
" clip-path="url(#p3c22cd9525)" style="fill: none; stroke: #c44e52; stroke-width: 1.5; stroke-linecap: round"/>
   </g>
   <g id="line2d_23">
    <path d="M 91.235455 420.435774 
L 95.669363 418.548969 
L 99.674183 416.281277 
L 104.108091 413.922974 
L 108.39897 420.578132 
L 112.832879 417.516061 
L 117.123758 418.334123 
L 121.557666 422.495701 
L 125.991574 420.837684 
L 130.282453 422.878355 
L 134.716361 426.205652 
L 139.00724 425.595511 
L 143.441149 422.106289 
L 147.875057 421.107929 
L 151.879877 422.251466 
L 156.313785 421.788019 
L 160.604664 420.603671 
L 165.038573 420.708902 
L 169.329452 422.228286 
L 173.76336 424.227822 
L 178.197268 425.737702 
L 182.488147 424.082914 
L 186.922055 430.286624 
L 191.212934 431.620227 
L 195.646843 430.808455 
L 200.080751 426.334621 
L 204.085571 428.252297 
L 208.51948 428.210464 
L 212.810359 425.113661 
L 217.244267 428.861244 
L 221.535146 428.170069 
L 225.969054 428.460793 
L 230.402962 426.420803 
L 234.693841 429.324647 
L 239.127749 432.026589 
L 243.418628 436.47 
L 247.852537 431.776634 
L 252.286445 432.492497 
L 256.434295 431.375144 
L 260.868203 428.576706 
L 265.159082 434.672436 
L 269.59299 433.866479 
L 273.883869 428.653356 
L 278.317777 427.995612 
L 282.751686 426.880531 
L 287.042565 425.977097 
L 291.476473 431.184609 
L 295.767352 430.886339 
L 300.20126 425.742327 
L 304.635168 428.354111 
L 308.639989 429.790471 
L 313.073897 420.745865 
L 317.364776 423.878364 
L 321.798684 427.946642 
L 326.089563 429.47974 
L 330.523471 424.298143 
L 334.95738 428.263281 
L 339.248259 421.594497 
L 343.682167 426.207036 
L 347.973046 427.241397 
L 352.406954 425.36498 
L 356.840862 422.244568 
L 360.845683 417.829469 
L 365.279591 417.975199 
L 369.57047 415.863318 
L 374.004378 415.559091 
L 378.295257 419.00368 
L 382.729165 420.456674 
L 387.163074 416.271696 
L 391.453953 423.138296 
L 395.887861 428.217856 
L 400.17874 427.202957 
L 404.612648 429.606878 
L 409.046556 424.837035 
L 413.051377 428.161225 
L 417.485285 427.51141 
L 421.776164 432.431404 
L 426.210072 430.801067 
L 430.500951 425.962021 
L 434.93486 421.124852 
L 439.368768 423.309234 
L 443.659647 420.278039 
L 448.093555 422.702303 
L 452.384434 424.045109 
L 456.818342 424.985845 
L 461.252251 416.307347 
L 465.4001 429.123698 
L 469.834008 425.650773 
L 474.124887 422.534255 
L 478.558796 421.607259 
L 482.849675 417.911309 
L 487.283583 419.760136 
L 491.717491 426.876302 
L 496.00837 419.245295 
L 500.442278 423.015917 
L 504.733157 428.214685 
L 509.167066 426.742053 
L 513.600974 430.806127 
L 517.605794 431.659298 
L 522.039702 431.239161 
L 526.330581 424.313038 
L 530.76449 421.40973 
L 535.055369 402.425723 
L 539.489277 415.246405 
L 543.923185 411.209005 
L 548.214064 421.060628 
L 552.647972 426.936014 
L 556.938851 429.507312 
L 561.37276 417.71146 
L 565.806668 419.152847 
L 569.811488 394.205261 
L 574.245397 395.39621 
L 578.536276 401.83429 
L 582.970184 416.637819 
L 587.261063 415.327665 
L 591.694971 411.3772 
L 596.128879 419.789924 
L 600.419758 416.101226 
L 604.853666 428.670452 
L 609.144545 425.448169 
" clip-path="url(#p3c22cd9525)" style="fill: none; stroke: #8172b3; stroke-width: 1.5; stroke-linecap: round"/>
   </g>
   <g id="line2d_24"/>
   <g id="line2d_25"/>
   <g id="line2d_26"/>
   <g id="line2d_27"/>
   <g id="line2d_28"/>
   <g id="patch_3">
    <path d="M 65.34 455.94 
L 65.34 27.6 
" style="fill: none; stroke: #ffffff; stroke-width: 1.25; stroke-linejoin: miter; stroke-linecap: square"/>
   </g>
   <g id="patch_4">
    <path d="M 635.04 455.94 
L 635.04 27.6 
" style="fill: none; stroke: #ffffff; stroke-width: 1.25; stroke-linejoin: miter; stroke-linecap: square"/>
   </g>
   <g id="patch_5">
    <path d="M 65.34 455.94 
L 635.04 455.94 
" style="fill: none; stroke: #ffffff; stroke-width: 1.25; stroke-linejoin: miter; stroke-linecap: square"/>
   </g>
   <g id="patch_6">
    <path d="M 65.34 27.6 
L 635.04 27.6 
" style="fill: none; stroke: #ffffff; stroke-width: 1.25; stroke-linejoin: miter; stroke-linecap: square"/>
   </g>
   <g id="text_21">
    <!-- Cost of the Nth Percentile PC on /r/buildapc by Year -->
    <g style="fill: #262626" transform="translate(196.425937 21.6) scale(0.12 -0.12)">
     <defs>
      <path id="DejaVuSans-43" d="M 4122 4306 
L 4122 3641 
Q 3803 3938 3442 4084 
Q 3081 4231 2675 4231 
Q 1875 4231 1450 3742 
Q 1025 3253 1025 2328 
Q 1025 1406 1450 917 
Q 1875 428 2675 428 
Q 3081 428 3442 575 
Q 3803 722 4122 1019 
L 4122 359 
Q 3791 134 3420 21 
Q 3050 -91 2638 -91 
Q 1578 -91 968 557 
Q 359 1206 359 2328 
Q 359 3453 968 4101 
Q 1578 4750 2638 4750 
Q 3056 4750 3426 4639 
Q 3797 4528 4122 4306 
z
" transform="scale(0.015625)"/>
      <path id="DejaVuSans-68" d="M 3513 2113 
L 3513 0 
L 2938 0 
L 2938 2094 
Q 2938 2591 2744 2837 
Q 2550 3084 2163 3084 
Q 1697 3084 1428 2787 
Q 1159 2491 1159 1978 
L 1159 0 
L 581 0 
L 581 4863 
L 1159 4863 
L 1159 2956 
Q 1366 3272 1645 3428 
Q 1925 3584 2291 3584 
Q 2894 3584 3203 3211 
Q 3513 2838 3513 2113 
z
" transform="scale(0.015625)"/>
      <path id="DejaVuSans-4e" d="M 628 4666 
L 1478 4666 
L 3547 763 
L 3547 4666 
L 4159 4666 
L 4159 0 
L 3309 0 
L 1241 3903 
L 1241 0 
L 628 0 
L 628 4666 
z
" transform="scale(0.015625)"/>
      <path id="DejaVuSans-2f" d="M 1625 4666 
L 2156 4666 
L 531 -594 
L 0 -594 
L 1625 4666 
z
" transform="scale(0.015625)"/>
      <path id="DejaVuSans-62" d="M 3116 1747 
Q 3116 2381 2855 2742 
Q 2594 3103 2138 3103 
Q 1681 3103 1420 2742 
Q 1159 2381 1159 1747 
Q 1159 1113 1420 752 
Q 1681 391 2138 391 
Q 2594 391 2855 752 
Q 3116 1113 3116 1747 
z
M 1159 2969 
Q 1341 3281 1617 3432 
Q 1894 3584 2278 3584 
Q 2916 3584 3314 3078 
Q 3713 2572 3713 1747 
Q 3713 922 3314 415 
Q 2916 -91 2278 -91 
Q 1894 -91 1617 61 
Q 1341 213 1159 525 
L 1159 0 
L 581 0 
L 581 4863 
L 1159 4863 
L 1159 2969 
z
" transform="scale(0.015625)"/>
      <path id="DejaVuSans-70" d="M 1159 525 
L 1159 -1331 
L 581 -1331 
L 581 3500 
L 1159 3500 
L 1159 2969 
Q 1341 3281 1617 3432 
Q 1894 3584 2278 3584 
Q 2916 3584 3314 3078 
Q 3713 2572 3713 1747 
Q 3713 922 3314 415 
Q 2916 -91 2278 -91 
Q 1894 -91 1617 61 
Q 1341 213 1159 525 
z
M 3116 1747 
Q 3116 2381 2855 2742 
Q 2594 3103 2138 3103 
Q 1681 3103 1420 2742 
Q 1159 2381 1159 1747 
Q 1159 1113 1420 752 
Q 1681 391 2138 391 
Q 2594 391 2855 752 
Q 3116 1113 3116 1747 
z
" transform="scale(0.015625)"/>
      <path id="DejaVuSans-79" d="M 2059 -325 
Q 1816 -950 1584 -1140 
Q 1353 -1331 966 -1331 
L 506 -1331 
L 506 -850 
L 844 -850 
Q 1081 -850 1212 -737 
Q 1344 -625 1503 -206 
L 1606 56 
L 191 3500 
L 800 3500 
L 1894 763 
L 2988 3500 
L 3597 3500 
L 2059 -325 
z
" transform="scale(0.015625)"/>
      <path id="DejaVuSans-59" d="M -13 4666 
L 666 4666 
L 1959 2747 
L 3244 4666 
L 3922 4666 
L 2272 2222 
L 2272 0 
L 1638 0 
L 1638 2222 
L -13 4666 
z
" transform="scale(0.015625)"/>
     </defs>
     <use xlink:href="#DejaVuSans-43"/>
     <use xlink:href="#DejaVuSans-6f" x="69.824219"/>
     <use xlink:href="#DejaVuSans-73" x="131.005859"/>
     <use xlink:href="#DejaVuSans-74" x="183.105469"/>
     <use xlink:href="#DejaVuSans-20" x="222.314453"/>
     <use xlink:href="#DejaVuSans-6f" x="254.101562"/>
     <use xlink:href="#DejaVuSans-66" x="315.283203"/>
     <use xlink:href="#DejaVuSans-20" x="350.488281"/>
     <use xlink:href="#DejaVuSans-74" x="382.275391"/>
     <use xlink:href="#DejaVuSans-68" x="421.484375"/>
     <use xlink:href="#DejaVuSans-65" x="484.863281"/>
     <use xlink:href="#DejaVuSans-20" x="546.386719"/>
     <use xlink:href="#DejaVuSans-4e" x="578.173828"/>
     <use xlink:href="#DejaVuSans-74" x="652.978516"/>
     <use xlink:href="#DejaVuSans-68" x="692.1875"/>
     <use xlink:href="#DejaVuSans-20" x="755.566406"/>
     <use xlink:href="#DejaVuSans-50" x="787.353516"/>
     <use xlink:href="#DejaVuSans-65" x="844.03125"/>
     <use xlink:href="#DejaVuSans-72" x="905.554688"/>
     <use xlink:href="#DejaVuSans-63" x="944.417969"/>
     <use xlink:href="#DejaVuSans-65" x="999.398438"/>
     <use xlink:href="#DejaVuSans-6e" x="1060.921875"/>
     <use xlink:href="#DejaVuSans-74" x="1124.300781"/>
     <use xlink:href="#DejaVuSans-69" x="1163.509766"/>
     <use xlink:href="#DejaVuSans-6c" x="1191.292969"/>
     <use xlink:href="#DejaVuSans-65" x="1219.076172"/>
     <use xlink:href="#DejaVuSans-20" x="1280.599609"/>
     <use xlink:href="#DejaVuSans-50" x="1312.386719"/>
     <use xlink:href="#DejaVuSans-43" x="1372.689453"/>
     <use xlink:href="#DejaVuSans-20" x="1442.513672"/>
     <use xlink:href="#DejaVuSans-6f" x="1474.300781"/>
     <use xlink:href="#DejaVuSans-6e" x="1535.482422"/>
     <use xlink:href="#DejaVuSans-20" x="1598.861328"/>
     <use xlink:href="#DejaVuSans-2f" x="1630.648438"/>
     <use xlink:href="#DejaVuSans-72" x="1664.339844"/>
     <use xlink:href="#DejaVuSans-2f" x="1705.453125"/>
     <use xlink:href="#DejaVuSans-62" x="1739.144531"/>
     <use xlink:href="#DejaVuSans-75" x="1802.621094"/>
     <use xlink:href="#DejaVuSans-69" x="1866"/>
     <use xlink:href="#DejaVuSans-6c" x="1893.783203"/>
     <use xlink:href="#DejaVuSans-64" x="1921.566406"/>
     <use xlink:href="#DejaVuSans-61" x="1985.042969"/>
     <use xlink:href="#DejaVuSans-70" x="2046.322266"/>
     <use xlink:href="#DejaVuSans-63" x="2109.798828"/>
     <use xlink:href="#DejaVuSans-20" x="2164.779297"/>
     <use xlink:href="#DejaVuSans-62" x="2196.566406"/>
     <use xlink:href="#DejaVuSans-79" x="2260.042969"/>
     <use xlink:href="#DejaVuSans-20" x="2319.222656"/>
     <use xlink:href="#DejaVuSans-59" x="2351.009766"/>
     <use xlink:href="#DejaVuSans-65" x="2398.84375"/>
     <use xlink:href="#DejaVuSans-61" x="2460.367188"/>
     <use xlink:href="#DejaVuSans-72" x="2521.646484"/>
    </g>
   </g>
   <g id="legend_1">
    <g id="patch_7">
     <path d="M 73.04 117.129688 
L 132.689219 117.129688 
Q 134.889219 117.129688 134.889219 114.929688 
L 134.889219 35.3 
Q 134.889219 33.1 132.689219 33.1 
L 73.04 33.1 
Q 70.84 33.1 70.84 35.3 
L 70.84 114.929688 
Q 70.84 117.129688 73.04 117.129688 
z
" style="fill: #eaeaf2; opacity: 0.8; stroke: #cccccc; stroke-linejoin: miter"/>
    </g>
    <g id="line2d_29">
     <path d="M 75.24 42.008281 
L 86.24 42.008281 
L 97.24 42.008281 
" style="fill: none; stroke: #4c72b0; stroke-width: 1.5; stroke-linecap: round"/>
    </g>
    <g id="text_22">
     <!-- 90% -->
     <g style="fill: #262626" transform="translate(106.04 45.858281) scale(0.11 -0.11)">
      <defs>
       <path id="DejaVuSans-25" d="M 4653 2053 
Q 4381 2053 4226 1822 
Q 4072 1591 4072 1178 
Q 4072 772 4226 539 
Q 4381 306 4653 306 
Q 4919 306 5073 539 
Q 5228 772 5228 1178 
Q 5228 1588 5073 1820 
Q 4919 2053 4653 2053 
z
M 4653 2450 
Q 5147 2450 5437 2106 
Q 5728 1763 5728 1178 
Q 5728 594 5436 251 
Q 5144 -91 4653 -91 
Q 4153 -91 3862 251 
Q 3572 594 3572 1178 
Q 3572 1766 3864 2108 
Q 4156 2450 4653 2450 
z
M 1428 4353 
Q 1159 4353 1004 4120 
Q 850 3888 850 3481 
Q 850 3069 1003 2837 
Q 1156 2606 1428 2606 
Q 1700 2606 1854 2837 
Q 2009 3069 2009 3481 
Q 2009 3884 1853 4118 
Q 1697 4353 1428 4353 
z
M 4250 4750 
L 4750 4750 
L 1831 -91 
L 1331 -91 
L 4250 4750 
z
M 1428 4750 
Q 1922 4750 2215 4408 
Q 2509 4066 2509 3481 
Q 2509 2891 2217 2550 
Q 1925 2209 1428 2209 
Q 931 2209 642 2551 
Q 353 2894 353 3481 
Q 353 4063 643 4406 
Q 934 4750 1428 4750 
z
" transform="scale(0.015625)"/>
      </defs>
      <use xlink:href="#DejaVuSans-39"/>
      <use xlink:href="#DejaVuSans-30" x="63.623047"/>
      <use xlink:href="#DejaVuSans-25" x="127.246094"/>
     </g>
    </g>
    <g id="line2d_30">
     <path d="M 75.24 58.154219 
L 86.24 58.154219 
L 97.24 58.154219 
" style="fill: none; stroke: #dd8452; stroke-width: 1.5; stroke-linecap: round"/>
    </g>
    <g id="text_23">
     <!-- 75% -->
     <g style="fill: #262626" transform="translate(106.04 62.004219) scale(0.11 -0.11)">
      <use xlink:href="#DejaVuSans-37"/>
      <use xlink:href="#DejaVuSans-35" x="63.623047"/>
      <use xlink:href="#DejaVuSans-25" x="127.246094"/>
     </g>
    </g>
    <g id="line2d_31">
     <path d="M 75.24 74.300156 
L 86.24 74.300156 
L 97.24 74.300156 
" style="fill: none; stroke: #55a868; stroke-width: 1.5; stroke-linecap: round"/>
    </g>
    <g id="text_24">
     <!-- 50% -->
     <g style="fill: #262626" transform="translate(106.04 78.150156) scale(0.11 -0.11)">
      <use xlink:href="#DejaVuSans-35"/>
      <use xlink:href="#DejaVuSans-30" x="63.623047"/>
      <use xlink:href="#DejaVuSans-25" x="127.246094"/>
     </g>
    </g>
    <g id="line2d_32">
     <path d="M 75.24 90.446094 
L 86.24 90.446094 
L 97.24 90.446094 
" style="fill: none; stroke: #c44e52; stroke-width: 1.5; stroke-linecap: round"/>
    </g>
    <g id="text_25">
     <!-- 25% -->
     <g style="fill: #262626" transform="translate(106.04 94.296094) scale(0.11 -0.11)">
      <use xlink:href="#DejaVuSans-32"/>
      <use xlink:href="#DejaVuSans-35" x="63.623047"/>
      <use xlink:href="#DejaVuSans-25" x="127.246094"/>
     </g>
    </g>
    <g id="line2d_33">
     <path d="M 75.24 106.592031 
L 86.24 106.592031 
L 97.24 106.592031 
" style="fill: none; stroke: #8172b3; stroke-width: 1.5; stroke-linecap: round"/>
    </g>
    <g id="text_26">
     <!-- 10% -->
     <g style="fill: #262626" transform="translate(106.04 110.442031) scale(0.11 -0.11)">
      <use xlink:href="#DejaVuSans-31"/>
      <use xlink:href="#DejaVuSans-30" x="63.623047"/>
      <use xlink:href="#DejaVuSans-25" x="127.246094"/>
     </g>
    </g>
   </g>
  </g>
 </g>
 <defs>
  <clipPath id="p3c22cd9525">
   <rect x="65.34" y="27.6" width="569.7" height="428.34"/>
  </clipPath>
 </defs>
</svg>
