<?xml version="1.0" encoding="utf-8" standalone="no"?>
<!DOCTYPE svg PUBLIC "-//W3C//DTD SVG 1.1//EN"
  "http://www.w3.org/Graphics/SVG/1.1/DTD/svg11.dtd">
<svg xmlns:xlink="http://www.w3.org/1999/xlink" width="648pt" height="504pt" viewBox="0 0 648 504" xmlns="http://www.w3.org/2000/svg" version="1.1">
 <metadata>
  <rdf:RDF xmlns:dc="http://purl.org/dc/elements/1.1/" xmlns:cc="http://creativecommons.org/ns#" xmlns:rdf="http://www.w3.org/1999/02/22-rdf-syntax-ns#">
   <cc:Work>
    <dc:type rdf:resource="http://purl.org/dc/dcmitype/StillImage"/>
    <dc:date>2023-09-20T17:13:09.148749</dc:date>
    <dc:format>image/svg+xml</dc:format>
    <dc:creator>
     <cc:Agent>
      <dc:title>Matplotlib v3.7.2, https://matplotlib.org/</dc:title>
     </cc:Agent>
    </dc:creator>
   </cc:Work>
  </rdf:RDF>
 </metadata>
 <defs>
  <style type="text/css">*{stroke-linejoin: round; stroke-linecap: butt}</style>
 </defs>
 <g id="figure_1">
  <g id="patch_1">
   <path d="M 0 504 
L 648 504 
L 648 0 
L 0 0 
z
" style="fill: #ffffff"/>
  </g>
  <g id="axes_1">
   <g id="patch_2">
    <path d="M 75.87 455.94 
L 635.04 455.94 
L 635.04 27.6 
L 75.87 27.6 
z
" style="fill: #eaeaf2"/>
   </g>
   <g id="matplotlib.axis_1">
    <g id="xtick_1">
     <g id="line2d_1">
      <path d="M 101.286818 455.94 
L 101.286818 27.6 
" clip-path="url(#pbb3a66ebeb)" style="fill: none; stroke: #ffffff; stroke-linecap: round"/>
     </g>
     <g id="text_1">
      <!-- 2013 -->
      <g style="fill: #262626" transform="translate(87.289318 473.798281) scale(0.11 -0.11)">
       <defs>
        <path id="DejaVuSans-32" d="M 1228 531 
L 3431 531 
L 3431 0 
L 469 0 
L 469 531 
Q 828 903 1448 1529 
Q 2069 2156 2228 2338 
Q 2531 2678 2651 2914 
Q 2772 3150 2772 3378 
Q 2772 3750 2511 3984 
Q 2250 4219 1831 4219 
Q 1534 4219 1204 4116 
Q 875 4013 500 3803 
L 500 4441 
Q 881 4594 1212 4672 
Q 1544 4750 1819 4750 
Q 2544 4750 2975 4387 
Q 3406 4025 3406 3419 
Q 3406 3131 3298 2873 
Q 3191 2616 2906 2266 
Q 2828 2175 2409 1742 
Q 1991 1309 1228 531 
z
" transform="scale(0.015625)"/>
        <path id="DejaVuSans-30" d="M 2034 4250 
Q 1547 4250 1301 3770 
Q 1056 3291 1056 2328 
Q 1056 1369 1301 889 
Q 1547 409 2034 409 
Q 2525 409 2770 889 
Q 3016 1369 3016 2328 
Q 3016 3291 2770 3770 
Q 2525 4250 2034 4250 
z
M 2034 4750 
Q 2819 4750 3233 4129 
Q 3647 3509 3647 2328 
Q 3647 1150 3233 529 
Q 2819 -91 2034 -91 
Q 1250 -91 836 529 
Q 422 1150 422 2328 
Q 422 3509 836 4129 
Q 1250 4750 2034 4750 
z
" transform="scale(0.015625)"/>
        <path id="DejaVuSans-31" d="M 794 531 
L 1825 531 
L 1825 4091 
L 703 3866 
L 703 4441 
L 1819 4666 
L 2450 4666 
L 2450 531 
L 3481 531 
L 3481 0 
L 794 0 
L 794 531 
z
" transform="scale(0.015625)"/>
        <path id="DejaVuSans-33" d="M 2597 2516 
Q 3050 2419 3304 2112 
Q 3559 1806 3559 1356 
Q 3559 666 3084 287 
Q 2609 -91 1734 -91 
Q 1441 -91 1130 -33 
Q 819 25 488 141 
L 488 750 
Q 750 597 1062 519 
Q 1375 441 1716 441 
Q 2309 441 2620 675 
Q 2931 909 2931 1356 
Q 2931 1769 2642 2001 
Q 2353 2234 1838 2234 
L 1294 2234 
L 1294 2753 
L 1863 2753 
Q 2328 2753 2575 2939 
Q 2822 3125 2822 3475 
Q 2822 3834 2567 4026 
Q 2313 4219 1838 4219 
Q 1578 4219 1281 4162 
Q 984 4106 628 3988 
L 628 4550 
Q 988 4650 1302 4700 
Q 1616 4750 1894 4750 
Q 2613 4750 3031 4423 
Q 3450 4097 3450 3541 
Q 3450 3153 3228 2886 
Q 3006 2619 2597 2516 
z
" transform="scale(0.015625)"/>
       </defs>
       <use xlink:href="#DejaVuSans-32"/>
       <use xlink:href="#DejaVuSans-30" x="63.623047"/>
       <use xlink:href="#DejaVuSans-31" x="127.246094"/>
       <use xlink:href="#DejaVuSans-33" x="190.869141"/>
      </g>
     </g>
    </g>
    <g id="xtick_2">
     <g id="line2d_2">
      <path d="M 152.527573 455.94 
L 152.527573 27.6 
" clip-path="url(#pbb3a66ebeb)" style="fill: none; stroke: #ffffff; stroke-linecap: round"/>
     </g>
     <g id="text_2">
      <!-- 2014 -->
      <g style="fill: #262626" transform="translate(138.530073 473.798281) scale(0.11 -0.11)">
       <defs>
        <path id="DejaVuSans-34" d="M 2419 4116 
L 825 1625 
L 2419 1625 
L 2419 4116 
z
M 2253 4666 
L 3047 4666 
L 3047 1625 
L 3713 1625 
L 3713 1100 
L 3047 1100 
L 3047 0 
L 2419 0 
L 2419 1100 
L 313 1100 
L 313 1709 
L 2253 4666 
z
" transform="scale(0.015625)"/>
       </defs>
       <use xlink:href="#DejaVuSans-32"/>
       <use xlink:href="#DejaVuSans-30" x="63.623047"/>
       <use xlink:href="#DejaVuSans-31" x="127.246094"/>
       <use xlink:href="#DejaVuSans-34" x="190.869141"/>
      </g>
     </g>
    </g>
    <g id="xtick_3">
     <g id="line2d_3">
      <path d="M 203.768328 455.94 
L 203.768328 27.6 
" clip-path="url(#pbb3a66ebeb)" style="fill: none; stroke: #ffffff; stroke-linecap: round"/>
     </g>
     <g id="text_3">
      <!-- 2015 -->
      <g style="fill: #262626" transform="translate(189.770828 473.798281) scale(0.11 -0.11)">
       <defs>
        <path id="DejaVuSans-35" d="M 691 4666 
L 3169 4666 
L 3169 4134 
L 1269 4134 
L 1269 2991 
Q 1406 3038 1543 3061 
Q 1681 3084 1819 3084 
Q 2600 3084 3056 2656 
Q 3513 2228 3513 1497 
Q 3513 744 3044 326 
Q 2575 -91 1722 -91 
Q 1428 -91 1123 -41 
Q 819 9 494 109 
L 494 744 
Q 775 591 1075 516 
Q 1375 441 1709 441 
Q 2250 441 2565 725 
Q 2881 1009 2881 1497 
Q 2881 1984 2565 2268 
Q 2250 2553 1709 2553 
Q 1456 2553 1204 2497 
Q 953 2441 691 2322 
L 691 4666 
z
" transform="scale(0.015625)"/>
       </defs>
       <use xlink:href="#DejaVuSans-32"/>
       <use xlink:href="#DejaVuSans-30" x="63.623047"/>
       <use xlink:href="#DejaVuSans-31" x="127.246094"/>
       <use xlink:href="#DejaVuSans-35" x="190.869141"/>
      </g>
     </g>
    </g>
    <g id="xtick_4">
     <g id="line2d_4">
      <path d="M 255.009082 455.94 
L 255.009082 27.6 
" clip-path="url(#pbb3a66ebeb)" style="fill: none; stroke: #ffffff; stroke-linecap: round"/>
     </g>
     <g id="text_4">
      <!-- 2016 -->
      <g style="fill: #262626" transform="translate(241.011582 473.798281) scale(0.11 -0.11)">
       <defs>
        <path id="DejaVuSans-36" d="M 2113 2584 
Q 1688 2584 1439 2293 
Q 1191 2003 1191 1497 
Q 1191 994 1439 701 
Q 1688 409 2113 409 
Q 2538 409 2786 701 
Q 3034 994 3034 1497 
Q 3034 2003 2786 2293 
Q 2538 2584 2113 2584 
z
M 3366 4563 
L 3366 3988 
Q 3128 4100 2886 4159 
Q 2644 4219 2406 4219 
Q 1781 4219 1451 3797 
Q 1122 3375 1075 2522 
Q 1259 2794 1537 2939 
Q 1816 3084 2150 3084 
Q 2853 3084 3261 2657 
Q 3669 2231 3669 1497 
Q 3669 778 3244 343 
Q 2819 -91 2113 -91 
Q 1303 -91 875 529 
Q 447 1150 447 2328 
Q 447 3434 972 4092 
Q 1497 4750 2381 4750 
Q 2619 4750 2861 4703 
Q 3103 4656 3366 4563 
z
" transform="scale(0.015625)"/>
       </defs>
       <use xlink:href="#DejaVuSans-32"/>
       <use xlink:href="#DejaVuSans-30" x="63.623047"/>
       <use xlink:href="#DejaVuSans-31" x="127.246094"/>
       <use xlink:href="#DejaVuSans-36" x="190.869141"/>
      </g>
     </g>
    </g>
    <g id="xtick_5">
     <g id="line2d_5">
      <path d="M 306.390223 455.94 
L 306.390223 27.6 
" clip-path="url(#pbb3a66ebeb)" style="fill: none; stroke: #ffffff; stroke-linecap: round"/>
     </g>
     <g id="text_5">
      <!-- 2017 -->
      <g style="fill: #262626" transform="translate(292.392723 473.798281) scale(0.11 -0.11)">
       <defs>
        <path id="DejaVuSans-37" d="M 525 4666 
L 3525 4666 
L 3525 4397 
L 1831 0 
L 1172 0 
L 2766 4134 
L 525 4134 
L 525 4666 
z
" transform="scale(0.015625)"/>
       </defs>
       <use xlink:href="#DejaVuSans-32"/>
       <use xlink:href="#DejaVuSans-30" x="63.623047"/>
       <use xlink:href="#DejaVuSans-31" x="127.246094"/>
       <use xlink:href="#DejaVuSans-37" x="190.869141"/>
      </g>
     </g>
    </g>
    <g id="xtick_6">
     <g id="line2d_6">
      <path d="M 357.630977 455.94 
L 357.630977 27.6 
" clip-path="url(#pbb3a66ebeb)" style="fill: none; stroke: #ffffff; stroke-linecap: round"/>
     </g>
     <g id="text_6">
      <!-- 2018 -->
      <g style="fill: #262626" transform="translate(343.633477 473.798281) scale(0.11 -0.11)">
       <defs>
        <path id="DejaVuSans-38" d="M 2034 2216 
Q 1584 2216 1326 1975 
Q 1069 1734 1069 1313 
Q 1069 891 1326 650 
Q 1584 409 2034 409 
Q 2484 409 2743 651 
Q 3003 894 3003 1313 
Q 3003 1734 2745 1975 
Q 2488 2216 2034 2216 
z
M 1403 2484 
Q 997 2584 770 2862 
Q 544 3141 544 3541 
Q 544 4100 942 4425 
Q 1341 4750 2034 4750 
Q 2731 4750 3128 4425 
Q 3525 4100 3525 3541 
Q 3525 3141 3298 2862 
Q 3072 2584 2669 2484 
Q 3125 2378 3379 2068 
Q 3634 1759 3634 1313 
Q 3634 634 3220 271 
Q 2806 -91 2034 -91 
Q 1263 -91 848 271 
Q 434 634 434 1313 
Q 434 1759 690 2068 
Q 947 2378 1403 2484 
z
M 1172 3481 
Q 1172 3119 1398 2916 
Q 1625 2713 2034 2713 
Q 2441 2713 2670 2916 
Q 2900 3119 2900 3481 
Q 2900 3844 2670 4047 
Q 2441 4250 2034 4250 
Q 1625 4250 1398 4047 
Q 1172 3844 1172 3481 
z
" transform="scale(0.015625)"/>
       </defs>
       <use xlink:href="#DejaVuSans-32"/>
       <use xlink:href="#DejaVuSans-30" x="63.623047"/>
       <use xlink:href="#DejaVuSans-31" x="127.246094"/>
       <use xlink:href="#DejaVuSans-38" x="190.869141"/>
      </g>
     </g>
    </g>
    <g id="xtick_7">
     <g id="line2d_7">
      <path d="M 408.871732 455.94 
L 408.871732 27.6 
" clip-path="url(#pbb3a66ebeb)" style="fill: none; stroke: #ffffff; stroke-linecap: round"/>
     </g>
     <g id="text_7">
      <!-- 2019 -->
      <g style="fill: #262626" transform="translate(394.874232 473.798281) scale(0.11 -0.11)">
       <defs>
        <path id="DejaVuSans-39" d="M 703 97 
L 703 672 
Q 941 559 1184 500 
Q 1428 441 1663 441 
Q 2288 441 2617 861 
Q 2947 1281 2994 2138 
Q 2813 1869 2534 1725 
Q 2256 1581 1919 1581 
Q 1219 1581 811 2004 
Q 403 2428 403 3163 
Q 403 3881 828 4315 
Q 1253 4750 1959 4750 
Q 2769 4750 3195 4129 
Q 3622 3509 3622 2328 
Q 3622 1225 3098 567 
Q 2575 -91 1691 -91 
Q 1453 -91 1209 -44 
Q 966 3 703 97 
z
M 1959 2075 
Q 2384 2075 2632 2365 
Q 2881 2656 2881 3163 
Q 2881 3666 2632 3958 
Q 2384 4250 1959 4250 
Q 1534 4250 1286 3958 
Q 1038 3666 1038 3163 
Q 1038 2656 1286 2365 
Q 1534 2075 1959 2075 
z
" transform="scale(0.015625)"/>
       </defs>
       <use xlink:href="#DejaVuSans-32"/>
       <use xlink:href="#DejaVuSans-30" x="63.623047"/>
       <use xlink:href="#DejaVuSans-31" x="127.246094"/>
       <use xlink:href="#DejaVuSans-39" x="190.869141"/>
      </g>
     </g>
    </g>
    <g id="xtick_8">
     <g id="line2d_8">
      <path d="M 460.112487 455.94 
L 460.112487 27.6 
" clip-path="url(#pbb3a66ebeb)" style="fill: none; stroke: #ffffff; stroke-linecap: round"/>
     </g>
     <g id="text_8">
      <!-- 2020 -->
      <g style="fill: #262626" transform="translate(446.114987 473.798281) scale(0.11 -0.11)">
       <use xlink:href="#DejaVuSans-32"/>
       <use xlink:href="#DejaVuSans-30" x="63.623047"/>
       <use xlink:href="#DejaVuSans-32" x="127.246094"/>
       <use xlink:href="#DejaVuSans-30" x="190.869141"/>
      </g>
     </g>
    </g>
    <g id="xtick_9">
     <g id="line2d_9">
      <path d="M 511.493627 455.94 
L 511.493627 27.6 
" clip-path="url(#pbb3a66ebeb)" style="fill: none; stroke: #ffffff; stroke-linecap: round"/>
     </g>
     <g id="text_9">
      <!-- 2021 -->
      <g style="fill: #262626" transform="translate(497.496127 473.798281) scale(0.11 -0.11)">
       <use xlink:href="#DejaVuSans-32"/>
       <use xlink:href="#DejaVuSans-30" x="63.623047"/>
       <use xlink:href="#DejaVuSans-32" x="127.246094"/>
       <use xlink:href="#DejaVuSans-31" x="190.869141"/>
      </g>
     </g>
    </g>
    <g id="xtick_10">
     <g id="line2d_10">
      <path d="M 562.734382 455.94 
L 562.734382 27.6 
" clip-path="url(#pbb3a66ebeb)" style="fill: none; stroke: #ffffff; stroke-linecap: round"/>
     </g>
     <g id="text_10">
      <!-- 2022 -->
      <g style="fill: #262626" transform="translate(548.736882 473.798281) scale(0.11 -0.11)">
       <use xlink:href="#DejaVuSans-32"/>
       <use xlink:href="#DejaVuSans-30" x="63.623047"/>
       <use xlink:href="#DejaVuSans-32" x="127.246094"/>
       <use xlink:href="#DejaVuSans-32" x="190.869141"/>
      </g>
     </g>
    </g>
    <g id="xtick_11">
     <g id="line2d_11">
      <path d="M 613.975136 455.94 
L 613.975136 27.6 
" clip-path="url(#pbb3a66ebeb)" style="fill: none; stroke: #ffffff; stroke-linecap: round"/>
     </g>
     <g id="text_11">
      <!-- 2023 -->
      <g style="fill: #262626" transform="translate(599.977636 473.798281) scale(0.11 -0.11)">
       <use xlink:href="#DejaVuSans-32"/>
       <use xlink:href="#DejaVuSans-30" x="63.623047"/>
       <use xlink:href="#DejaVuSans-32" x="127.246094"/>
       <use xlink:href="#DejaVuSans-33" x="190.869141"/>
      </g>
     </g>
    </g>
    <g id="text_12">
     <!-- Date -->
     <g style="fill: #262626" transform="translate(341.114062 489.204063) scale(0.12 -0.12)">
      <defs>
       <path id="DejaVuSans-44" d="M 1259 4147 
L 1259 519 
L 2022 519 
Q 2988 519 3436 956 
Q 3884 1394 3884 2338 
Q 3884 3275 3436 3711 
Q 2988 4147 2022 4147 
L 1259 4147 
z
M 628 4666 
L 1925 4666 
Q 3281 4666 3915 4102 
Q 4550 3538 4550 2338 
Q 4550 1131 3912 565 
Q 3275 0 1925 0 
L 628 0 
L 628 4666 
z
" transform="scale(0.015625)"/>
       <path id="DejaVuSans-61" d="M 2194 1759 
Q 1497 1759 1228 1600 
Q 959 1441 959 1056 
Q 959 750 1161 570 
Q 1363 391 1709 391 
Q 2188 391 2477 730 
Q 2766 1069 2766 1631 
L 2766 1759 
L 2194 1759 
z
M 3341 1997 
L 3341 0 
L 2766 0 
L 2766 531 
Q 2569 213 2275 61 
Q 1981 -91 1556 -91 
Q 1019 -91 701 211 
Q 384 513 384 1019 
Q 384 1609 779 1909 
Q 1175 2209 1959 2209 
L 2766 2209 
L 2766 2266 
Q 2766 2663 2505 2880 
Q 2244 3097 1772 3097 
Q 1472 3097 1187 3025 
Q 903 2953 641 2809 
L 641 3341 
Q 956 3463 1253 3523 
Q 1550 3584 1831 3584 
Q 2591 3584 2966 3190 
Q 3341 2797 3341 1997 
z
" transform="scale(0.015625)"/>
       <path id="DejaVuSans-74" d="M 1172 4494 
L 1172 3500 
L 2356 3500 
L 2356 3053 
L 1172 3053 
L 1172 1153 
Q 1172 725 1289 603 
Q 1406 481 1766 481 
L 2356 481 
L 2356 0 
L 1766 0 
Q 1100 0 847 248 
Q 594 497 594 1153 
L 594 3053 
L 172 3053 
L 172 3500 
L 594 3500 
L 594 4494 
L 1172 4494 
z
" transform="scale(0.015625)"/>
       <path id="DejaVuSans-65" d="M 3597 1894 
L 3597 1613 
L 953 1613 
Q 991 1019 1311 708 
Q 1631 397 2203 397 
Q 2534 397 2845 478 
Q 3156 559 3463 722 
L 3463 178 
Q 3153 47 2828 -22 
Q 2503 -91 2169 -91 
Q 1331 -91 842 396 
Q 353 884 353 1716 
Q 353 2575 817 3079 
Q 1281 3584 2069 3584 
Q 2775 3584 3186 3129 
Q 3597 2675 3597 1894 
z
M 3022 2063 
Q 3016 2534 2758 2815 
Q 2500 3097 2075 3097 
Q 1594 3097 1305 2825 
Q 1016 2553 972 2059 
L 3022 2063 
z
" transform="scale(0.015625)"/>
      </defs>
      <use xlink:href="#DejaVuSans-44"/>
      <use xlink:href="#DejaVuSans-61" x="77.001953"/>
      <use xlink:href="#DejaVuSans-74" x="138.28125"/>
      <use xlink:href="#DejaVuSans-65" x="177.490234"/>
     </g>
    </g>
   </g>
   <g id="matplotlib.axis_2">
    <g id="ytick_1">
     <g id="line2d_12">
      <path d="M 75.87 396.062219 
L 635.04 396.062219 
" clip-path="url(#pbb3a66ebeb)" style="fill: none; stroke: #ffffff; stroke-linecap: round"/>
     </g>
     <g id="text_13">
      <!-- $1,000 -->
      <g style="fill: #262626" transform="translate(27.880313 400.24136) scale(0.11 -0.11)">
       <defs>
        <path id="DejaVuSans-24" d="M 2163 -941 
L 1850 -941 
L 1847 0 
Q 1519 6 1191 76 
Q 863 147 531 288 
L 531 850 
Q 850 650 1176 548 
Q 1503 447 1850 444 
L 1850 1869 
Q 1159 1981 845 2250 
Q 531 2519 531 2988 
Q 531 3497 872 3790 
Q 1213 4084 1850 4128 
L 1850 4863 
L 2163 4863 
L 2163 4138 
Q 2453 4125 2725 4076 
Q 2997 4028 3256 3944 
L 3256 3397 
Q 2997 3528 2723 3600 
Q 2450 3672 2163 3684 
L 2163 2350 
Q 2872 2241 3206 1959 
Q 3541 1678 3541 1191 
Q 3541 663 3186 358 
Q 2831 53 2163 6 
L 2163 -941 
z
M 1850 2406 
L 1850 3688 
Q 1488 3647 1297 3481 
Q 1106 3316 1106 3041 
Q 1106 2772 1282 2622 
Q 1459 2472 1850 2406 
z
M 2163 1806 
L 2163 453 
Q 2559 506 2761 678 
Q 2963 850 2963 1131 
Q 2963 1406 2770 1568 
Q 2578 1731 2163 1806 
z
" transform="scale(0.015625)"/>
        <path id="DejaVuSans-2c" d="M 750 794 
L 1409 794 
L 1409 256 
L 897 -744 
L 494 -744 
L 750 256 
L 750 794 
z
" transform="scale(0.015625)"/>
       </defs>
       <use xlink:href="#DejaVuSans-24"/>
       <use xlink:href="#DejaVuSans-31" x="63.623047"/>
       <use xlink:href="#DejaVuSans-2c" x="127.246094"/>
       <use xlink:href="#DejaVuSans-30" x="159.033203"/>
       <use xlink:href="#DejaVuSans-30" x="222.65625"/>
       <use xlink:href="#DejaVuSans-30" x="286.279297"/>
      </g>
     </g>
    </g>
    <g id="ytick_2">
     <g id="line2d_13">
      <path d="M 75.87 334.921737 
L 635.04 334.921737 
" clip-path="url(#pbb3a66ebeb)" style="fill: none; stroke: #ffffff; stroke-linecap: round"/>
     </g>
     <g id="text_14">
      <!-- $1,500 -->
      <g style="fill: #262626" transform="translate(27.880313 339.100877) scale(0.11 -0.11)">
       <use xlink:href="#DejaVuSans-24"/>
       <use xlink:href="#DejaVuSans-31" x="63.623047"/>
       <use xlink:href="#DejaVuSans-2c" x="127.246094"/>
       <use xlink:href="#DejaVuSans-35" x="159.033203"/>
       <use xlink:href="#DejaVuSans-30" x="222.65625"/>
       <use xlink:href="#DejaVuSans-30" x="286.279297"/>
      </g>
     </g>
    </g>
    <g id="ytick_3">
     <g id="line2d_14">
      <path d="M 75.87 273.781254 
L 635.04 273.781254 
" clip-path="url(#pbb3a66ebeb)" style="fill: none; stroke: #ffffff; stroke-linecap: round"/>
     </g>
     <g id="text_15">
      <!-- $2,000 -->
      <g style="fill: #262626" transform="translate(27.880313 277.960395) scale(0.11 -0.11)">
       <use xlink:href="#DejaVuSans-24"/>
       <use xlink:href="#DejaVuSans-32" x="63.623047"/>
       <use xlink:href="#DejaVuSans-2c" x="127.246094"/>
       <use xlink:href="#DejaVuSans-30" x="159.033203"/>
       <use xlink:href="#DejaVuSans-30" x="222.65625"/>
       <use xlink:href="#DejaVuSans-30" x="286.279297"/>
      </g>
     </g>
    </g>
    <g id="ytick_4">
     <g id="line2d_15">
      <path d="M 75.87 212.640772 
L 635.04 212.640772 
" clip-path="url(#pbb3a66ebeb)" style="fill: none; stroke: #ffffff; stroke-linecap: round"/>
     </g>
     <g id="text_16">
      <!-- $2,500 -->
      <g style="fill: #262626" transform="translate(27.880313 216.819913) scale(0.11 -0.11)">
       <use xlink:href="#DejaVuSans-24"/>
       <use xlink:href="#DejaVuSans-32" x="63.623047"/>
       <use xlink:href="#DejaVuSans-2c" x="127.246094"/>
       <use xlink:href="#DejaVuSans-35" x="159.033203"/>
       <use xlink:href="#DejaVuSans-30" x="222.65625"/>
       <use xlink:href="#DejaVuSans-30" x="286.279297"/>
      </g>
     </g>
    </g>
    <g id="ytick_5">
     <g id="line2d_16">
      <path d="M 75.87 151.50029 
L 635.04 151.50029 
" clip-path="url(#pbb3a66ebeb)" style="fill: none; stroke: #ffffff; stroke-linecap: round"/>
     </g>
     <g id="text_17">
      <!-- $3,000 -->
      <g style="fill: #262626" transform="translate(27.880313 155.67943) scale(0.11 -0.11)">
       <use xlink:href="#DejaVuSans-24"/>
       <use xlink:href="#DejaVuSans-33" x="63.623047"/>
       <use xlink:href="#DejaVuSans-2c" x="127.246094"/>
       <use xlink:href="#DejaVuSans-30" x="159.033203"/>
       <use xlink:href="#DejaVuSans-30" x="222.65625"/>
       <use xlink:href="#DejaVuSans-30" x="286.279297"/>
      </g>
     </g>
    </g>
    <g id="ytick_6">
     <g id="line2d_17">
      <path d="M 75.87 90.359807 
L 635.04 90.359807 
" clip-path="url(#pbb3a66ebeb)" style="fill: none; stroke: #ffffff; stroke-linecap: round"/>
     </g>
     <g id="text_18">
      <!-- $3,500 -->
      <g style="fill: #262626" transform="translate(27.880313 94.538948) scale(0.11 -0.11)">
       <use xlink:href="#DejaVuSans-24"/>
       <use xlink:href="#DejaVuSans-33" x="63.623047"/>
       <use xlink:href="#DejaVuSans-2c" x="127.246094"/>
       <use xlink:href="#DejaVuSans-35" x="159.033203"/>
       <use xlink:href="#DejaVuSans-30" x="222.65625"/>
       <use xlink:href="#DejaVuSans-30" x="286.279297"/>
      </g>
     </g>
    </g>
    <g id="ytick_7">
     <g id="line2d_18">
      <path d="M 75.87 29.219325 
L 635.04 29.219325 
" clip-path="url(#pbb3a66ebeb)" style="fill: none; stroke: #ffffff; stroke-linecap: round"/>
     </g>
     <g id="text_19">
      <!-- $4,000 -->
      <g style="fill: #262626" transform="translate(27.880313 33.398466) scale(0.11 -0.11)">
       <use xlink:href="#DejaVuSans-24"/>
       <use xlink:href="#DejaVuSans-34" x="63.623047"/>
       <use xlink:href="#DejaVuSans-2c" x="127.246094"/>
       <use xlink:href="#DejaVuSans-30" x="159.033203"/>
       <use xlink:href="#DejaVuSans-30" x="222.65625"/>
       <use xlink:href="#DejaVuSans-30" x="286.279297"/>
      </g>
     </g>
    </g>
    <g id="text_20">
     <!-- Price Adjusted for Inflation -->
     <g style="fill: #262626" transform="translate(21.384687 321.155625) rotate(-90) scale(0.12 -0.12)">
      <defs>
       <path id="DejaVuSans-50" d="M 1259 4147 
L 1259 2394 
L 2053 2394 
Q 2494 2394 2734 2622 
Q 2975 2850 2975 3272 
Q 2975 3691 2734 3919 
Q 2494 4147 2053 4147 
L 1259 4147 
z
M 628 4666 
L 2053 4666 
Q 2838 4666 3239 4311 
Q 3641 3956 3641 3272 
Q 3641 2581 3239 2228 
Q 2838 1875 2053 1875 
L 1259 1875 
L 1259 0 
L 628 0 
L 628 4666 
z
" transform="scale(0.015625)"/>
       <path id="DejaVuSans-72" d="M 2631 2963 
Q 2534 3019 2420 3045 
Q 2306 3072 2169 3072 
Q 1681 3072 1420 2755 
Q 1159 2438 1159 1844 
L 1159 0 
L 581 0 
L 581 3500 
L 1159 3500 
L 1159 2956 
Q 1341 3275 1631 3429 
Q 1922 3584 2338 3584 
Q 2397 3584 2469 3576 
Q 2541 3569 2628 3553 
L 2631 2963 
z
" transform="scale(0.015625)"/>
       <path id="DejaVuSans-69" d="M 603 3500 
L 1178 3500 
L 1178 0 
L 603 0 
L 603 3500 
z
M 603 4863 
L 1178 4863 
L 1178 4134 
L 603 4134 
L 603 4863 
z
" transform="scale(0.015625)"/>
       <path id="DejaVuSans-63" d="M 3122 3366 
L 3122 2828 
Q 2878 2963 2633 3030 
Q 2388 3097 2138 3097 
Q 1578 3097 1268 2742 
Q 959 2388 959 1747 
Q 959 1106 1268 751 
Q 1578 397 2138 397 
Q 2388 397 2633 464 
Q 2878 531 3122 666 
L 3122 134 
Q 2881 22 2623 -34 
Q 2366 -91 2075 -91 
Q 1284 -91 818 406 
Q 353 903 353 1747 
Q 353 2603 823 3093 
Q 1294 3584 2113 3584 
Q 2378 3584 2631 3529 
Q 2884 3475 3122 3366 
z
" transform="scale(0.015625)"/>
       <path id="DejaVuSans-20" transform="scale(0.015625)"/>
       <path id="DejaVuSans-41" d="M 2188 4044 
L 1331 1722 
L 3047 1722 
L 2188 4044 
z
M 1831 4666 
L 2547 4666 
L 4325 0 
L 3669 0 
L 3244 1197 
L 1141 1197 
L 716 0 
L 50 0 
L 1831 4666 
z
" transform="scale(0.015625)"/>
       <path id="DejaVuSans-64" d="M 2906 2969 
L 2906 4863 
L 3481 4863 
L 3481 0 
L 2906 0 
L 2906 525 
Q 2725 213 2448 61 
Q 2172 -91 1784 -91 
Q 1150 -91 751 415 
Q 353 922 353 1747 
Q 353 2572 751 3078 
Q 1150 3584 1784 3584 
Q 2172 3584 2448 3432 
Q 2725 3281 2906 2969 
z
M 947 1747 
Q 947 1113 1208 752 
Q 1469 391 1925 391 
Q 2381 391 2643 752 
Q 2906 1113 2906 1747 
Q 2906 2381 2643 2742 
Q 2381 3103 1925 3103 
Q 1469 3103 1208 2742 
Q 947 2381 947 1747 
z
" transform="scale(0.015625)"/>
       <path id="DejaVuSans-6a" d="M 603 3500 
L 1178 3500 
L 1178 -63 
Q 1178 -731 923 -1031 
Q 669 -1331 103 -1331 
L -116 -1331 
L -116 -844 
L 38 -844 
Q 366 -844 484 -692 
Q 603 -541 603 -63 
L 603 3500 
z
M 603 4863 
L 1178 4863 
L 1178 4134 
L 603 4134 
L 603 4863 
z
" transform="scale(0.015625)"/>
       <path id="DejaVuSans-75" d="M 544 1381 
L 544 3500 
L 1119 3500 
L 1119 1403 
Q 1119 906 1312 657 
Q 1506 409 1894 409 
Q 2359 409 2629 706 
Q 2900 1003 2900 1516 
L 2900 3500 
L 3475 3500 
L 3475 0 
L 2900 0 
L 2900 538 
Q 2691 219 2414 64 
Q 2138 -91 1772 -91 
Q 1169 -91 856 284 
Q 544 659 544 1381 
z
M 1991 3584 
L 1991 3584 
z
" transform="scale(0.015625)"/>
       <path id="DejaVuSans-73" d="M 2834 3397 
L 2834 2853 
Q 2591 2978 2328 3040 
Q 2066 3103 1784 3103 
Q 1356 3103 1142 2972 
Q 928 2841 928 2578 
Q 928 2378 1081 2264 
Q 1234 2150 1697 2047 
L 1894 2003 
Q 2506 1872 2764 1633 
Q 3022 1394 3022 966 
Q 3022 478 2636 193 
Q 2250 -91 1575 -91 
Q 1294 -91 989 -36 
Q 684 19 347 128 
L 347 722 
Q 666 556 975 473 
Q 1284 391 1588 391 
Q 1994 391 2212 530 
Q 2431 669 2431 922 
Q 2431 1156 2273 1281 
Q 2116 1406 1581 1522 
L 1381 1569 
Q 847 1681 609 1914 
Q 372 2147 372 2553 
Q 372 3047 722 3315 
Q 1072 3584 1716 3584 
Q 2034 3584 2315 3537 
Q 2597 3491 2834 3397 
z
" transform="scale(0.015625)"/>
       <path id="DejaVuSans-66" d="M 2375 4863 
L 2375 4384 
L 1825 4384 
Q 1516 4384 1395 4259 
Q 1275 4134 1275 3809 
L 1275 3500 
L 2222 3500 
L 2222 3053 
L 1275 3053 
L 1275 0 
L 697 0 
L 697 3053 
L 147 3053 
L 147 3500 
L 697 3500 
L 697 3744 
Q 697 4328 969 4595 
Q 1241 4863 1831 4863 
L 2375 4863 
z
" transform="scale(0.015625)"/>
       <path id="DejaVuSans-6f" d="M 1959 3097 
Q 1497 3097 1228 2736 
Q 959 2375 959 1747 
Q 959 1119 1226 758 
Q 1494 397 1959 397 
Q 2419 397 2687 759 
Q 2956 1122 2956 1747 
Q 2956 2369 2687 2733 
Q 2419 3097 1959 3097 
z
M 1959 3584 
Q 2709 3584 3137 3096 
Q 3566 2609 3566 1747 
Q 3566 888 3137 398 
Q 2709 -91 1959 -91 
Q 1206 -91 779 398 
Q 353 888 353 1747 
Q 353 2609 779 3096 
Q 1206 3584 1959 3584 
z
" transform="scale(0.015625)"/>
       <path id="DejaVuSans-49" d="M 628 4666 
L 1259 4666 
L 1259 0 
L 628 0 
L 628 4666 
z
" transform="scale(0.015625)"/>
       <path id="DejaVuSans-6e" d="M 3513 2113 
L 3513 0 
L 2938 0 
L 2938 2094 
Q 2938 2591 2744 2837 
Q 2550 3084 2163 3084 
Q 1697 3084 1428 2787 
Q 1159 2491 1159 1978 
L 1159 0 
L 581 0 
L 581 3500 
L 1159 3500 
L 1159 2956 
Q 1366 3272 1645 3428 
Q 1925 3584 2291 3584 
Q 2894 3584 3203 3211 
Q 3513 2838 3513 2113 
z
" transform="scale(0.015625)"/>
       <path id="DejaVuSans-6c" d="M 603 4863 
L 1178 4863 
L 1178 0 
L 603 0 
L 603 4863 
z
" transform="scale(0.015625)"/>
      </defs>
      <use xlink:href="#DejaVuSans-50"/>
      <use xlink:href="#DejaVuSans-72" x="58.552734"/>
      <use xlink:href="#DejaVuSans-69" x="99.666016"/>
      <use xlink:href="#DejaVuSans-63" x="127.449219"/>
      <use xlink:href="#DejaVuSans-65" x="182.429688"/>
      <use xlink:href="#DejaVuSans-20" x="243.953125"/>
      <use xlink:href="#DejaVuSans-41" x="275.740234"/>
      <use xlink:href="#DejaVuSans-64" x="342.398438"/>
      <use xlink:href="#DejaVuSans-6a" x="405.875"/>
      <use xlink:href="#DejaVuSans-75" x="433.658203"/>
      <use xlink:href="#DejaVuSans-73" x="497.037109"/>
      <use xlink:href="#DejaVuSans-74" x="549.136719"/>
      <use xlink:href="#DejaVuSans-65" x="588.345703"/>
      <use xlink:href="#DejaVuSans-64" x="649.869141"/>
      <use xlink:href="#DejaVuSans-20" x="713.345703"/>
      <use xlink:href="#DejaVuSans-66" x="745.132812"/>
      <use xlink:href="#DejaVuSans-6f" x="780.337891"/>
      <use xlink:href="#DejaVuSans-72" x="841.519531"/>
      <use xlink:href="#DejaVuSans-20" x="882.632812"/>
      <use xlink:href="#DejaVuSans-49" x="914.419922"/>
      <use xlink:href="#DejaVuSans-6e" x="943.912109"/>
      <use xlink:href="#DejaVuSans-66" x="1007.291016"/>
      <use xlink:href="#DejaVuSans-6c" x="1042.496094"/>
      <use xlink:href="#DejaVuSans-61" x="1070.279297"/>
      <use xlink:href="#DejaVuSans-74" x="1131.558594"/>
      <use xlink:href="#DejaVuSans-69" x="1170.767578"/>
      <use xlink:href="#DejaVuSans-6f" x="1198.550781"/>
      <use xlink:href="#DejaVuSans-6e" x="1259.732422"/>
     </g>
    </g>
   </g>
   <g id="PolyCollection_1"/>
   <g id="PolyCollection_2"/>
   <g id="PolyCollection_3"/>
   <g id="PolyCollection_4"/>
   <g id="PolyCollection_5"/>
   <g id="line2d_19">
    <path d="M 101.286818 239.294049 
L 105.638773 232.356031 
L 109.56957 226.949014 
L 113.921525 213.82486 
L 118.133094 240.456041 
L 122.485048 220.078391 
L 126.696617 224.964741 
L 131.048572 228.014751 
L 135.400526 225.084071 
L 139.612095 219.517389 
L 143.964049 236.176028 
L 148.175618 233.988603 
L 152.527573 216.969566 
L 156.879527 212.957104 
L 160.810325 214.287625 
L 165.16228 210.352818 
L 169.373848 215.969584 
L 173.725803 228.380415 
L 177.937372 221.776253 
L 182.289326 222.372524 
L 186.641281 209.246358 
L 190.85285 206.058023 
L 195.204804 235.639004 
L 199.416373 232.962472 
L 203.768328 214.76286 
L 208.120282 222.128746 
L 212.05108 221.225936 
L 216.403034 222.592579 
L 220.614603 218.034961 
L 224.966558 221.012259 
L 229.178126 215.130137 
L 233.530081 204.921618 
L 237.882035 198.570102 
L 242.093604 198.01399 
L 246.445559 229.064819 
L 250.657128 226.104291 
L 255.009082 210.234444 
L 259.361037 196.502517 
L 263.43222 200.572624 
L 267.784175 209.313866 
L 271.995743 224.867438 
L 276.347698 200.717374 
L 280.559267 210.043325 
L 284.911221 208.92693 
L 289.263176 199.555313 
L 293.474745 191.947699 
L 297.826699 219.294553 
L 302.038268 207.412404 
L 306.390223 200.238627 
L 310.742177 195.653571 
L 314.672975 194.28425 
L 319.024929 184.727899 
L 323.236498 198.297976 
L 327.588453 186.51083 
L 331.800021 170.751355 
L 336.151976 164.446879 
L 340.50393 174.934176 
L 344.715499 167.338445 
L 349.067454 178.608892 
L 353.279023 168.693696 
L 357.630977 173.155748 
L 361.982932 139.538453 
L 365.913729 145.097935 
L 370.265684 163.543271 
L 374.477253 159.706057 
L 378.829207 196.250814 
L 383.040776 185.296195 
L 387.392731 189.033954 
L 391.744685 162.948694 
L 395.956254 160.086488 
L 400.308209 188.07934 
L 404.519777 166.045434 
L 408.871732 172.201799 
L 413.223686 182.304083 
L 417.154484 173.586783 
L 421.506439 158.520658 
L 425.718007 174.973618 
L 430.069962 206.076772 
L 434.281531 184.707674 
L 438.633485 174.657448 
L 442.98544 194.537417 
L 447.197009 179.030202 
L 451.548963 197.687541 
L 455.760532 181.746042 
L 460.112487 183.694314 
L 464.464441 176.824558 
L 468.535624 209.159929 
L 472.887579 207.284561 
L 477.099148 190.715388 
L 481.451102 169.228706 
L 485.662671 205.21108 
L 490.014626 213.135357 
L 494.36658 174.867511 
L 498.578149 200.25913 
L 502.930104 186.109782 
L 507.141672 176.263981 
L 511.493627 114.242954 
L 515.845581 158.655613 
L 519.776379 155.341039 
L 524.128334 192.095875 
L 528.339902 177.937856 
L 532.691857 58.618198 
L 536.903426 69.381586 
L 541.25538 117.788452 
L 545.607335 76.39719 
L 549.818904 73.448498 
L 554.170858 106.432713 
L 558.382427 77.741502 
L 562.734382 60.473231 
L 567.086336 47.07 
L 571.017134 111.710829 
L 575.369088 110.550127 
L 579.580657 125.121183 
L 583.932612 161.095056 
L 588.144181 168.385101 
L 592.496135 159.284649 
L 596.84809 178.772995 
L 601.059658 165.810118 
L 605.411613 163.493556 
L 609.623182 100.639601 
" clip-path="url(#pbb3a66ebeb)" style="fill: none; stroke: #4c72b0; stroke-width: 1.5; stroke-linecap: round"/>
   </g>
   <g id="line2d_20">
    <path d="M 101.286818 302.260998 
L 105.638773 296.555456 
L 109.56957 293.394614 
L 113.921525 292.666173 
L 118.133094 304.894809 
L 122.485048 288.626211 
L 126.696617 290.403723 
L 131.048572 294.778274 
L 135.400526 293.875554 
L 139.612095 291.606803 
L 143.964049 299.272755 
L 148.175618 300.959994 
L 152.527573 287.226514 
L 156.879527 289.222323 
L 160.810325 290.189211 
L 165.16228 290.390906 
L 169.373848 291.838225 
L 173.725803 302.329974 
L 177.937372 298.683196 
L 182.289326 292.22946 
L 186.641281 288.391339 
L 190.85285 286.95073 
L 195.204804 307.102972 
L 199.416373 307.342324 
L 203.768328 298.76319 
L 208.120282 298.043415 
L 212.05108 298.032298 
L 216.403034 291.821514 
L 220.614603 295.414752 
L 224.966558 298.899772 
L 229.178126 294.421093 
L 233.530081 287.404679 
L 237.882035 280.257656 
L 242.093604 281.403232 
L 246.445559 304.536395 
L 250.657128 308.321756 
L 255.009082 288.776284 
L 259.361037 283.737 
L 263.43222 287.968186 
L 267.784175 288.685454 
L 271.995743 308.289423 
L 276.347698 284.194557 
L 280.559267 286.080016 
L 284.911221 285.283642 
L 289.263176 282.715224 
L 293.474745 279.339726 
L 297.826699 292.971716 
L 302.038268 291.682282 
L 306.390223 276.5411 
L 310.742177 278.007354 
L 314.672975 280.204904 
L 319.024929 275.187708 
L 323.236498 281.95672 
L 327.588453 265.567704 
L 331.800021 263.608552 
L 336.151976 251.849091 
L 340.50393 265.519847 
L 344.715499 256.913408 
L 349.067454 264.34518 
L 353.279023 262.715028 
L 357.630977 263.642499 
L 361.982932 249.244104 
L 365.913729 248.313703 
L 370.265684 251.428973 
L 374.477253 252.036428 
L 378.829207 271.150358 
L 383.040776 258.571229 
L 387.392731 260.73552 
L 391.744685 253.280945 
L 395.956254 257.644583 
L 400.308209 274.392585 
L 404.519777 262.885077 
L 408.871732 268.993158 
L 413.223686 273.658216 
L 417.154484 270.612109 
L 421.506439 262.895431 
L 425.718007 274.622695 
L 430.069962 290.911469 
L 434.281531 274.881236 
L 438.633485 272.213353 
L 442.98544 274.246845 
L 447.197009 267.173557 
L 451.548963 278.149485 
L 455.760532 273.197861 
L 460.112487 274.896637 
L 464.464441 272.774205 
L 468.535624 279.628114 
L 472.887579 286.092901 
L 477.099148 283.779543 
L 481.451102 267.702369 
L 485.662671 279.359549 
L 490.014626 284.751804 
L 494.36658 262.214527 
L 498.578149 283.408082 
L 502.930104 280.006973 
L 507.141672 262.308642 
L 511.493627 241.921431 
L 515.845581 251.377455 
L 519.776379 259.654166 
L 524.128334 263.252842 
L 528.339902 264.416167 
L 532.691857 237.536409 
L 536.903426 203.909257 
L 541.25538 227.979801 
L 545.607335 203.18427 
L 549.818904 225.221716 
L 554.170858 260.065494 
L 558.382427 225.417426 
L 562.734382 204.110605 
L 567.086336 190.752583 
L 571.017134 209.939803 
L 575.369088 209.390964 
L 579.580657 230.282752 
L 583.932612 253.441955 
L 588.144181 249.257329 
L 592.496135 247.223874 
L 596.84809 256.517396 
L 601.059658 253.544912 
L 605.411613 254.181732 
L 609.623182 241.735388 
" clip-path="url(#pbb3a66ebeb)" style="fill: none; stroke: #dd8452; stroke-width: 1.5; stroke-linecap: round"/>
   </g>
   <g id="line2d_21">
    <path d="M 101.286818 353.105683 
L 105.638773 348.629911 
L 109.56957 345.299039 
L 113.921525 344.574887 
L 118.133094 352.398299 
L 122.485048 343.473499 
L 126.696617 349.436642 
L 131.048572 352.862696 
L 135.400526 350.159808 
L 139.612095 349.29706 
L 143.964049 356.013383 
L 148.175618 358.120809 
L 152.527573 347.2131 
L 156.879527 347.835143 
L 160.810325 349.835466 
L 165.16228 349.2648 
L 169.373848 347.666127 
L 173.725803 352.723477 
L 177.937372 352.170127 
L 182.289326 351.386324 
L 186.641281 347.287606 
L 190.85285 348.449677 
L 195.204804 360.850617 
L 199.416373 362.822515 
L 203.768328 353.228698 
L 208.120282 354.768245 
L 212.05108 355.728981 
L 216.403034 353.404921 
L 220.614603 351.661063 
L 224.966558 357.957613 
L 229.178126 354.729351 
L 233.530081 352.297221 
L 237.882035 342.72507 
L 242.093604 347.382663 
L 246.445559 361.670871 
L 250.657128 366.312921 
L 255.009082 353.949987 
L 259.361037 352.090362 
L 263.43222 352.442886 
L 267.784175 349.33624 
L 271.995743 366.49043 
L 276.347698 349.963215 
L 280.559267 347.462141 
L 284.911221 346.370046 
L 289.263176 344.970296 
L 293.474745 344.706085 
L 297.826699 354.768638 
L 302.038268 355.056684 
L 306.390223 342.459108 
L 310.742177 342.05877 
L 314.672975 339.361598 
L 319.024929 337.690589 
L 323.236498 345.851078 
L 327.588453 338.907418 
L 331.800021 343.339784 
L 336.151976 331.345061 
L 340.50393 336.502997 
L 344.715499 327.165431 
L 349.067454 333.525828 
L 353.279023 333.638341 
L 357.630977 338.468587 
L 361.982932 331.56782 
L 365.913729 328.086787 
L 370.265684 325.78824 
L 374.477253 322.497081 
L 378.829207 330.086253 
L 383.040776 327.251652 
L 387.392731 326.241084 
L 391.744685 327.802829 
L 395.956254 331.409673 
L 400.308209 343.188524 
L 404.519777 344.625523 
L 408.871732 345.337741 
L 413.223686 345.025251 
L 417.154484 340.856967 
L 421.506439 341.170164 
L 425.718007 350.784649 
L 430.069962 352.095433 
L 434.281531 346.659935 
L 438.633485 337.245529 
L 442.98544 337.297829 
L 447.197009 330.857598 
L 451.548963 340.616749 
L 455.760532 340.404425 
L 460.112487 339.450879 
L 464.464441 339.397552 
L 468.535624 342.237244 
L 472.887579 345.718412 
L 477.099148 344.835592 
L 481.451102 337.632202 
L 485.662671 338.858276 
L 490.014626 351.261627 
L 494.36658 339.844771 
L 498.578149 345.310453 
L 502.930104 345.545192 
L 507.141672 329.618357 
L 511.493627 324.252907 
L 515.845581 337.595218 
L 519.776379 327.33307 
L 524.128334 331.58292 
L 528.339902 341.269992 
L 532.691857 319.543853 
L 536.903426 305.898656 
L 541.25538 324.189456 
L 545.607335 318.8876 
L 549.818904 331.323144 
L 554.170858 324.821974 
L 558.382427 326.439078 
L 562.734382 307.888144 
L 567.086336 301.053352 
L 571.017134 295.79134 
L 575.369088 287.801204 
L 579.580657 300.485105 
L 583.932612 323.95206 
L 588.144181 301.840662 
L 592.496135 318.963365 
L 596.84809 321.024549 
L 601.059658 321.48297 
L 605.411613 324.595306 
L 609.623182 318.361226 
" clip-path="url(#pbb3a66ebeb)" style="fill: none; stroke: #55a868; stroke-width: 1.5; stroke-linecap: round"/>
   </g>
   <g id="line2d_22">
    <path d="M 101.286818 394.304542 
L 105.638773 389.866179 
L 109.56957 388.228606 
L 113.921525 385.09077 
L 118.133094 394.54708 
L 122.485048 388.883951 
L 126.696617 390.389081 
L 131.048572 393.648292 
L 135.400526 394.197005 
L 139.612095 393.983289 
L 143.964049 398.848875 
L 148.175618 399.383927 
L 152.527573 393.944651 
L 156.879527 393.010773 
L 160.810325 394.24409 
L 165.16228 394.683747 
L 169.373848 391.373181 
L 173.725803 394.502462 
L 177.937372 394.384708 
L 182.289326 394.392977 
L 186.641281 395.467498 
L 190.85285 392.000638 
L 195.204804 403.512428 
L 199.416373 404.905265 
L 203.768328 401.069318 
L 208.120282 399.319631 
L 212.05108 398.031965 
L 216.403034 396.81396 
L 220.614603 395.707461 
L 224.966558 399.830015 
L 229.178126 397.573024 
L 233.530081 397.658103 
L 237.882035 393.075846 
L 242.093604 396.314476 
L 246.445559 403.787804 
L 250.657128 409.98299 
L 255.009082 398.323724 
L 259.361037 398.435763 
L 263.43222 398.990321 
L 267.784175 396.679075 
L 271.995743 406.392713 
L 276.347698 400.17997 
L 280.559267 394.060238 
L 284.911221 391.773012 
L 289.263176 392.624676 
L 293.474745 395.072513 
L 297.826699 400.648082 
L 302.038268 400.214164 
L 306.390223 394.430594 
L 310.742177 394.852036 
L 314.672975 394.439062 
L 319.024929 386.425591 
L 323.236498 392.163977 
L 327.588453 392.851731 
L 331.800021 399.267996 
L 336.151976 388.423657 
L 340.50393 390.376197 
L 344.715499 378.860629 
L 349.067454 388.345265 
L 353.279023 390.283784 
L 357.630977 391.365208 
L 361.982932 382.213282 
L 365.913729 380.823602 
L 370.265684 382.714747 
L 374.477253 379.49646 
L 378.829207 380.989627 
L 383.040776 381.880339 
L 387.392731 377.090489 
L 391.744685 378.455161 
L 395.956254 383.98003 
L 400.308209 391.227628 
L 404.519777 393.308594 
L 408.871732 393.733244 
L 413.223686 391.971995 
L 417.154484 392.630554 
L 421.506439 391.12729 
L 425.718007 398.585544 
L 430.069962 402.478515 
L 434.281531 391.619523 
L 438.633485 389.205422 
L 442.98544 387.879083 
L 447.197009 383.875252 
L 451.548963 388.10621 
L 455.760532 391.093482 
L 460.112487 387.895101 
L 464.464441 386.961824 
L 468.535624 389.9852 
L 472.887579 391.31504 
L 477.099148 390.742916 
L 481.451102 385.781741 
L 485.662671 384.950075 
L 490.014626 392.888299 
L 494.36658 394.253458 
L 498.578149 388.709663 
L 502.930104 393.048808 
L 507.141672 387.909142 
L 511.493627 390.638859 
L 515.845581 392.990928 
L 519.776379 394.250224 
L 524.128334 386.11042 
L 528.339902 388.611618 
L 532.691857 378.362549 
L 536.903426 359.568188 
L 541.25538 379.76633 
L 545.607335 371.478115 
L 549.818904 391.809468 
L 554.170858 380.691861 
L 558.382427 389.103628 
L 562.734382 385.926606 
L 567.086336 368.728382 
L 571.017134 358.152943 
L 575.369088 350.79134 
L 579.580657 359.830059 
L 583.932612 376.161058 
L 588.144181 373.109685 
L 592.496135 377.747353 
L 596.84809 374.998773 
L 601.059658 377.431292 
L 605.411613 384.724592 
L 609.623182 377.025824 
" clip-path="url(#pbb3a66ebeb)" style="fill: none; stroke: #c44e52; stroke-width: 1.5; stroke-linecap: round"/>
   </g>
   <g id="line2d_23">
    <path d="M 101.286818 420.435774 
L 105.638773 418.548969 
L 109.56957 416.281277 
L 113.921525 413.922974 
L 118.133094 420.578132 
L 122.485048 417.516061 
L 126.696617 418.334123 
L 131.048572 422.495701 
L 135.400526 420.837684 
L 139.612095 422.878355 
L 143.964049 426.205652 
L 148.175618 425.595511 
L 152.527573 422.106289 
L 156.879527 421.107929 
L 160.810325 422.251466 
L 165.16228 421.788019 
L 169.373848 420.603671 
L 173.725803 420.708902 
L 177.937372 422.228286 
L 182.289326 424.227822 
L 186.641281 425.737702 
L 190.85285 424.082914 
L 195.204804 430.286624 
L 199.416373 431.620227 
L 203.768328 430.808455 
L 208.120282 426.334621 
L 212.05108 428.252297 
L 216.403034 428.210464 
L 220.614603 425.113661 
L 224.966558 428.861244 
L 229.178126 428.170069 
L 233.530081 428.460793 
L 237.882035 426.420803 
L 242.093604 429.324647 
L 246.445559 432.026589 
L 250.657128 436.47 
L 255.009082 431.776634 
L 259.361037 432.492497 
L 263.43222 431.375144 
L 267.784175 428.576706 
L 271.995743 434.672436 
L 276.347698 433.866479 
L 280.559267 428.653356 
L 284.911221 427.995612 
L 289.263176 426.880531 
L 293.474745 425.977097 
L 297.826699 431.184609 
L 302.038268 430.886339 
L 306.390223 425.742327 
L 310.742177 428.354111 
L 314.672975 429.790471 
L 319.024929 420.745865 
L 323.236498 423.878364 
L 327.588453 427.946642 
L 331.800021 429.47974 
L 336.151976 424.298143 
L 340.50393 428.263281 
L 344.715499 421.594497 
L 349.067454 426.207036 
L 353.279023 427.241397 
L 357.630977 425.36498 
L 361.982932 422.244568 
L 365.913729 417.829469 
L 370.265684 417.975199 
L 374.477253 415.863318 
L 378.829207 415.559091 
L 383.040776 419.00368 
L 387.392731 420.456674 
L 391.744685 416.271696 
L 395.956254 423.138296 
L 400.308209 428.217856 
L 404.519777 427.202957 
L 408.871732 429.606878 
L 413.223686 424.837035 
L 417.154484 428.161225 
L 421.506439 427.51141 
L 425.718007 432.431404 
L 430.069962 430.801067 
L 434.281531 425.962021 
L 438.633485 421.124852 
L 442.98544 423.309234 
L 447.197009 420.278039 
L 451.548963 422.702303 
L 455.760532 424.045109 
L 460.112487 424.985845 
L 464.464441 416.307347 
L 468.535624 429.123698 
L 472.887579 425.650773 
L 477.099148 422.534255 
L 481.451102 421.607259 
L 485.662671 417.911309 
L 490.014626 419.760136 
L 494.36658 426.876302 
L 498.578149 419.245295 
L 502.930104 423.015917 
L 507.141672 428.214685 
L 511.493627 426.742053 
L 515.845581 430.806127 
L 519.776379 431.659298 
L 524.128334 431.239161 
L 528.339902 424.313038 
L 532.691857 421.40973 
L 536.903426 402.425723 
L 541.25538 415.246405 
L 545.607335 411.209005 
L 549.818904 421.060628 
L 554.170858 426.936014 
L 558.382427 429.507312 
L 562.734382 417.71146 
L 567.086336 419.152847 
L 571.017134 394.205261 
L 575.369088 395.39621 
L 579.580657 401.83429 
L 583.932612 416.637819 
L 588.144181 415.327665 
L 592.496135 411.3772 
L 596.84809 419.789924 
L 601.059658 416.101226 
L 605.411613 428.670452 
L 609.623182 425.448169 
" clip-path="url(#pbb3a66ebeb)" style="fill: none; stroke: #8172b3; stroke-width: 1.5; stroke-linecap: round"/>
   </g>
   <g id="line2d_24"/>
   <g id="line2d_25"/>
   <g id="line2d_26"/>
   <g id="line2d_27"/>
   <g id="line2d_28"/>
   <g id="patch_3">
    <path d="M 75.87 455.94 
L 75.87 27.6 
" style="fill: none; stroke: #ffffff; stroke-width: 1.25; stroke-linejoin: miter; stroke-linecap: square"/>
   </g>
   <g id="patch_4">
    <path d="M 635.04 455.94 
L 635.04 27.6 
" style="fill: none; stroke: #ffffff; stroke-width: 1.25; stroke-linejoin: miter; stroke-linecap: square"/>
   </g>
   <g id="patch_5">
    <path d="M 75.87 455.94 
L 635.04 455.94 
" style="fill: none; stroke: #ffffff; stroke-width: 1.25; stroke-linejoin: miter; stroke-linecap: square"/>
   </g>
   <g id="patch_6">
    <path d="M 75.87 27.6 
L 635.04 27.6 
" style="fill: none; stroke: #ffffff; stroke-width: 1.25; stroke-linejoin: miter; stroke-linecap: square"/>
   </g>
   <g id="text_21">
    <!-- Cost of the Nth Percentile PC on /r/buildapc by Year -->
    <g style="fill: #262626" transform="translate(201.690937 21.6) scale(0.12 -0.12)">
     <defs>
      <path id="DejaVuSans-43" d="M 4122 4306 
L 4122 3641 
Q 3803 3938 3442 4084 
Q 3081 4231 2675 4231 
Q 1875 4231 1450 3742 
Q 1025 3253 1025 2328 
Q 1025 1406 1450 917 
Q 1875 428 2675 428 
Q 3081 428 3442 575 
Q 3803 722 4122 1019 
L 4122 359 
Q 3791 134 3420 21 
Q 3050 -91 2638 -91 
Q 1578 -91 968 557 
Q 359 1206 359 2328 
Q 359 3453 968 4101 
Q 1578 4750 2638 4750 
Q 3056 4750 3426 4639 
Q 3797 4528 4122 4306 
z
" transform="scale(0.015625)"/>
      <path id="DejaVuSans-68" d="M 3513 2113 
L 3513 0 
L 2938 0 
L 2938 2094 
Q 2938 2591 2744 2837 
Q 2550 3084 2163 3084 
Q 1697 3084 1428 2787 
Q 1159 2491 1159 1978 
L 1159 0 
L 581 0 
L 581 4863 
L 1159 4863 
L 1159 2956 
Q 1366 3272 1645 3428 
Q 1925 3584 2291 3584 
Q 2894 3584 3203 3211 
Q 3513 2838 3513 2113 
z
" transform="scale(0.015625)"/>
      <path id="DejaVuSans-4e" d="M 628 4666 
L 1478 4666 
L 3547 763 
L 3547 4666 
L 4159 4666 
L 4159 0 
L 3309 0 
L 1241 3903 
L 1241 0 
L 628 0 
L 628 4666 
z
" transform="scale(0.015625)"/>
      <path id="DejaVuSans-2f" d="M 1625 4666 
L 2156 4666 
L 531 -594 
L 0 -594 
L 1625 4666 
z
" transform="scale(0.015625)"/>
      <path id="DejaVuSans-62" d="M 3116 1747 
Q 3116 2381 2855 2742 
Q 2594 3103 2138 3103 
Q 1681 3103 1420 2742 
Q 1159 2381 1159 1747 
Q 1159 1113 1420 752 
Q 1681 391 2138 391 
Q 2594 391 2855 752 
Q 3116 1113 3116 1747 
z
M 1159 2969 
Q 1341 3281 1617 3432 
Q 1894 3584 2278 3584 
Q 2916 3584 3314 3078 
Q 3713 2572 3713 1747 
Q 3713 922 3314 415 
Q 2916 -91 2278 -91 
Q 1894 -91 1617 61 
Q 1341 213 1159 525 
L 1159 0 
L 581 0 
L 581 4863 
L 1159 4863 
L 1159 2969 
z
" transform="scale(0.015625)"/>
      <path id="DejaVuSans-70" d="M 1159 525 
L 1159 -1331 
L 581 -1331 
L 581 3500 
L 1159 3500 
L 1159 2969 
Q 1341 3281 1617 3432 
Q 1894 3584 2278 3584 
Q 2916 3584 3314 3078 
Q 3713 2572 3713 1747 
Q 3713 922 3314 415 
Q 2916 -91 2278 -91 
Q 1894 -91 1617 61 
Q 1341 213 1159 525 
z
M 3116 1747 
Q 3116 2381 2855 2742 
Q 2594 3103 2138 3103 
Q 1681 3103 1420 2742 
Q 1159 2381 1159 1747 
Q 1159 1113 1420 752 
Q 1681 391 2138 391 
Q 2594 391 2855 752 
Q 3116 1113 3116 1747 
z
" transform="scale(0.015625)"/>
      <path id="DejaVuSans-79" d="M 2059 -325 
Q 1816 -950 1584 -1140 
Q 1353 -1331 966 -1331 
L 506 -1331 
L 506 -850 
L 844 -850 
Q 1081 -850 1212 -737 
Q 1344 -625 1503 -206 
L 1606 56 
L 191 3500 
L 800 3500 
L 1894 763 
L 2988 3500 
L 3597 3500 
L 2059 -325 
z
" transform="scale(0.015625)"/>
      <path id="DejaVuSans-59" d="M -13 4666 
L 666 4666 
L 1959 2747 
L 3244 4666 
L 3922 4666 
L 2272 2222 
L 2272 0 
L 1638 0 
L 1638 2222 
L -13 4666 
z
" transform="scale(0.015625)"/>
     </defs>
     <use xlink:href="#DejaVuSans-43"/>
     <use xlink:href="#DejaVuSans-6f" x="69.824219"/>
     <use xlink:href="#DejaVuSans-73" x="131.005859"/>
     <use xlink:href="#DejaVuSans-74" x="183.105469"/>
     <use xlink:href="#DejaVuSans-20" x="222.314453"/>
     <use xlink:href="#DejaVuSans-6f" x="254.101562"/>
     <use xlink:href="#DejaVuSans-66" x="315.283203"/>
     <use xlink:href="#DejaVuSans-20" x="350.488281"/>
     <use xlink:href="#DejaVuSans-74" x="382.275391"/>
     <use xlink:href="#DejaVuSans-68" x="421.484375"/>
     <use xlink:href="#DejaVuSans-65" x="484.863281"/>
     <use xlink:href="#DejaVuSans-20" x="546.386719"/>
     <use xlink:href="#DejaVuSans-4e" x="578.173828"/>
     <use xlink:href="#DejaVuSans-74" x="652.978516"/>
     <use xlink:href="#DejaVuSans-68" x="692.1875"/>
     <use xlink:href="#DejaVuSans-20" x="755.566406"/>
     <use xlink:href="#DejaVuSans-50" x="787.353516"/>
     <use xlink:href="#DejaVuSans-65" x="844.03125"/>
     <use xlink:href="#DejaVuSans-72" x="905.554688"/>
     <use xlink:href="#DejaVuSans-63" x="944.417969"/>
     <use xlink:href="#DejaVuSans-65" x="999.398438"/>
     <use xlink:href="#DejaVuSans-6e" x="1060.921875"/>
     <use xlink:href="#DejaVuSans-74" x="1124.300781"/>
     <use xlink:href="#DejaVuSans-69" x="1163.509766"/>
     <use xlink:href="#DejaVuSans-6c" x="1191.292969"/>
     <use xlink:href="#DejaVuSans-65" x="1219.076172"/>
     <use xlink:href="#DejaVuSans-20" x="1280.599609"/>
     <use xlink:href="#DejaVuSans-50" x="1312.386719"/>
     <use xlink:href="#DejaVuSans-43" x="1372.689453"/>
     <use xlink:href="#DejaVuSans-20" x="1442.513672"/>
     <use xlink:href="#DejaVuSans-6f" x="1474.300781"/>
     <use xlink:href="#DejaVuSans-6e" x="1535.482422"/>
     <use xlink:href="#DejaVuSans-20" x="1598.861328"/>
     <use xlink:href="#DejaVuSans-2f" x="1630.648438"/>
     <use xlink:href="#DejaVuSans-72" x="1664.339844"/>
     <use xlink:href="#DejaVuSans-2f" x="1705.453125"/>
     <use xlink:href="#DejaVuSans-62" x="1739.144531"/>
     <use xlink:href="#DejaVuSans-75" x="1802.621094"/>
     <use xlink:href="#DejaVuSans-69" x="1866"/>
     <use xlink:href="#DejaVuSans-6c" x="1893.783203"/>
     <use xlink:href="#DejaVuSans-64" x="1921.566406"/>
     <use xlink:href="#DejaVuSans-61" x="1985.042969"/>
     <use xlink:href="#DejaVuSans-70" x="2046.322266"/>
     <use xlink:href="#DejaVuSans-63" x="2109.798828"/>
     <use xlink:href="#DejaVuSans-20" x="2164.779297"/>
     <use xlink:href="#DejaVuSans-62" x="2196.566406"/>
     <use xlink:href="#DejaVuSans-79" x="2260.042969"/>
     <use xlink:href="#DejaVuSans-20" x="2319.222656"/>
     <use xlink:href="#DejaVuSans-59" x="2351.009766"/>
     <use xlink:href="#DejaVuSans-65" x="2398.84375"/>
     <use xlink:href="#DejaVuSans-61" x="2460.367188"/>
     <use xlink:href="#DejaVuSans-72" x="2521.646484"/>
    </g>
   </g>
   <g id="legend_1">
    <g id="patch_7">
     <path d="M 83.57 117.129688 
L 143.219219 117.129688 
Q 145.419219 117.129688 145.419219 114.929688 
L 145.419219 35.3 
Q 145.419219 33.1 143.219219 33.1 
L 83.57 33.1 
Q 81.37 33.1 81.37 35.3 
L 81.37 114.929688 
Q 81.37 117.129688 83.57 117.129688 
z
" style="fill: #eaeaf2; opacity: 0.8; stroke: #cccccc; stroke-linejoin: miter"/>
    </g>
    <g id="line2d_29">
     <path d="M 85.77 42.008281 
L 96.77 42.008281 
L 107.77 42.008281 
" style="fill: none; stroke: #4c72b0; stroke-width: 1.5; stroke-linecap: round"/>
    </g>
    <g id="text_22">
     <!-- 90% -->
     <g style="fill: #262626" transform="translate(116.57 45.858281) scale(0.11 -0.11)">
      <defs>
       <path id="DejaVuSans-25" d="M 4653 2053 
Q 4381 2053 4226 1822 
Q 4072 1591 4072 1178 
Q 4072 772 4226 539 
Q 4381 306 4653 306 
Q 4919 306 5073 539 
Q 5228 772 5228 1178 
Q 5228 1588 5073 1820 
Q 4919 2053 4653 2053 
z
M 4653 2450 
Q 5147 2450 5437 2106 
Q 5728 1763 5728 1178 
Q 5728 594 5436 251 
Q 5144 -91 4653 -91 
Q 4153 -91 3862 251 
Q 3572 594 3572 1178 
Q 3572 1766 3864 2108 
Q 4156 2450 4653 2450 
z
M 1428 4353 
Q 1159 4353 1004 4120 
Q 850 3888 850 3481 
Q 850 3069 1003 2837 
Q 1156 2606 1428 2606 
Q 1700 2606 1854 2837 
Q 2009 3069 2009 3481 
Q 2009 3884 1853 4118 
Q 1697 4353 1428 4353 
z
M 4250 4750 
L 4750 4750 
L 1831 -91 
L 1331 -91 
L 4250 4750 
z
M 1428 4750 
Q 1922 4750 2215 4408 
Q 2509 4066 2509 3481 
Q 2509 2891 2217 2550 
Q 1925 2209 1428 2209 
Q 931 2209 642 2551 
Q 353 2894 353 3481 
Q 353 4063 643 4406 
Q 934 4750 1428 4750 
z
" transform="scale(0.015625)"/>
      </defs>
      <use xlink:href="#DejaVuSans-39"/>
      <use xlink:href="#DejaVuSans-30" x="63.623047"/>
      <use xlink:href="#DejaVuSans-25" x="127.246094"/>
     </g>
    </g>
    <g id="line2d_30">
     <path d="M 85.77 58.154219 
L 96.77 58.154219 
L 107.77 58.154219 
" style="fill: none; stroke: #dd8452; stroke-width: 1.5; stroke-linecap: round"/>
    </g>
    <g id="text_23">
     <!-- 75% -->
     <g style="fill: #262626" transform="translate(116.57 62.004219) scale(0.11 -0.11)">
      <use xlink:href="#DejaVuSans-37"/>
      <use xlink:href="#DejaVuSans-35" x="63.623047"/>
      <use xlink:href="#DejaVuSans-25" x="127.246094"/>
     </g>
    </g>
    <g id="line2d_31">
     <path d="M 85.77 74.300156 
L 96.77 74.300156 
L 107.77 74.300156 
" style="fill: none; stroke: #55a868; stroke-width: 1.5; stroke-linecap: round"/>
    </g>
    <g id="text_24">
     <!-- 50% -->
     <g style="fill: #262626" transform="translate(116.57 78.150156) scale(0.11 -0.11)">
      <use xlink:href="#DejaVuSans-35"/>
      <use xlink:href="#DejaVuSans-30" x="63.623047"/>
      <use xlink:href="#DejaVuSans-25" x="127.246094"/>
     </g>
    </g>
    <g id="line2d_32">
     <path d="M 85.77 90.446094 
L 96.77 90.446094 
L 107.77 90.446094 
" style="fill: none; stroke: #c44e52; stroke-width: 1.5; stroke-linecap: round"/>
    </g>
    <g id="text_25">
     <!-- 25% -->
     <g style="fill: #262626" transform="translate(116.57 94.296094) scale(0.11 -0.11)">
      <use xlink:href="#DejaVuSans-32"/>
      <use xlink:href="#DejaVuSans-35" x="63.623047"/>
      <use xlink:href="#DejaVuSans-25" x="127.246094"/>
     </g>
    </g>
    <g id="line2d_33">
     <path d="M 85.77 106.592031 
L 96.77 106.592031 
L 107.77 106.592031 
" style="fill: none; stroke: #8172b3; stroke-width: 1.5; stroke-linecap: round"/>
    </g>
    <g id="text_26">
     <!-- 10% -->
     <g style="fill: #262626" transform="translate(116.57 110.442031) scale(0.11 -0.11)">
      <use xlink:href="#DejaVuSans-31"/>
      <use xlink:href="#DejaVuSans-30" x="63.623047"/>
      <use xlink:href="#DejaVuSans-25" x="127.246094"/>
     </g>
    </g>
   </g>
  </g>
 </g>
 <defs>
  <clipPath id="pbb3a66ebeb">
   <rect x="75.87" y="27.6" width="559.17" height="428.34"/>
  </clipPath>
 </defs>
</svg>
