<?xml version="1.0" encoding="utf-8" standalone="no"?>
<!DOCTYPE svg PUBLIC "-//W3C//DTD SVG 1.1//EN"
  "http://www.w3.org/Graphics/SVG/1.1/DTD/svg11.dtd">
<svg xmlns:xlink="http://www.w3.org/1999/xlink" width="576pt" height="360pt" viewBox="0 0 576 360" xmlns="http://www.w3.org/2000/svg" version="1.1">
 <metadata>
  <rdf:RDF xmlns:dc="http://purl.org/dc/elements/1.1/" xmlns:cc="http://creativecommons.org/ns#" xmlns:rdf="http://www.w3.org/1999/02/22-rdf-syntax-ns#">
   <cc:Work>
    <dc:type rdf:resource="http://purl.org/dc/dcmitype/StillImage"/>
    <dc:date>2024-04-23T09:06:52.345837</dc:date>
    <dc:format>image/svg+xml</dc:format>
    <dc:creator>
     <cc:Agent>
      <dc:title>Matplotlib v3.8.3, https://matplotlib.org/</dc:title>
     </cc:Agent>
    </dc:creator>
   </cc:Work>
  </rdf:RDF>
 </metadata>
 <defs>
  <style type="text/css">*{stroke-linejoin: round; stroke-linecap: butt}</style>
 </defs>
 <g id="figure_1">
  <g id="patch_1">
   <path d="M 0 360 
L 576 360 
L 576 0 
L 0 0 
z
" style="fill: #ffffff"/>
  </g>
  <g id="axes_1">
   <g id="patch_2">
    <path d="M 58.32 311.94 
L 563.04 311.94 
L 563.04 39.6 
L 58.32 39.6 
z
" style="fill: #eaeaf2"/>
   </g>
   <g id="matplotlib.axis_1">
    <g id="xtick_1">
     <g id="text_1">
      <!-- 0.5 -->
      <g style="fill: #262626" transform="translate(71.785014 329.798281) scale(0.11 -0.11)">
       <defs>
        <path id="DejaVuSans-30" d="M 2034 4250 
Q 1547 4250 1301 3770 
Q 1056 3291 1056 2328 
Q 1056 1369 1301 889 
Q 1547 409 2034 409 
Q 2525 409 2770 889 
Q 3016 1369 3016 2328 
Q 3016 3291 2770 3770 
Q 2525 4250 2034 4250 
z
M 2034 4750 
Q 2819 4750 3233 4129 
Q 3647 3509 3647 2328 
Q 3647 1150 3233 529 
Q 2819 -91 2034 -91 
Q 1250 -91 836 529 
Q 422 1150 422 2328 
Q 422 3509 836 4129 
Q 1250 4750 2034 4750 
z
" transform="scale(0.015625)"/>
        <path id="DejaVuSans-2e" d="M 684 794 
L 1344 794 
L 1344 0 
L 684 0 
L 684 794 
z
" transform="scale(0.015625)"/>
        <path id="DejaVuSans-35" d="M 691 4666 
L 3169 4666 
L 3169 4134 
L 1269 4134 
L 1269 2991 
Q 1406 3038 1543 3061 
Q 1681 3084 1819 3084 
Q 2600 3084 3056 2656 
Q 3513 2228 3513 1497 
Q 3513 744 3044 326 
Q 2575 -91 1722 -91 
Q 1428 -91 1123 -41 
Q 819 9 494 109 
L 494 744 
Q 775 591 1075 516 
Q 1375 441 1709 441 
Q 2250 441 2565 725 
Q 2881 1009 2881 1497 
Q 2881 1984 2565 2268 
Q 2250 2553 1709 2553 
Q 1456 2553 1204 2497 
Q 953 2441 691 2322 
L 691 4666 
z
" transform="scale(0.015625)"/>
       </defs>
       <use xlink:href="#DejaVuSans-30"/>
       <use xlink:href="#DejaVuSans-2e" x="63.623047"/>
       <use xlink:href="#DejaVuSans-35" x="95.410156"/>
      </g>
     </g>
    </g>
    <g id="xtick_2">
     <g id="text_2">
      <!-- 1.0 -->
      <g style="fill: #262626" transform="translate(141.575438 329.798281) scale(0.11 -0.11)">
       <defs>
        <path id="DejaVuSans-31" d="M 794 531 
L 1825 531 
L 1825 4091 
L 703 3866 
L 703 4441 
L 1819 4666 
L 2450 4666 
L 2450 531 
L 3481 531 
L 3481 0 
L 794 0 
L 794 531 
z
" transform="scale(0.015625)"/>
       </defs>
       <use xlink:href="#DejaVuSans-31"/>
       <use xlink:href="#DejaVuSans-2e" x="63.623047"/>
       <use xlink:href="#DejaVuSans-30" x="95.410156"/>
      </g>
     </g>
    </g>
    <g id="xtick_3">
     <g id="text_3">
      <!-- 1.5 -->
      <g style="fill: #262626" transform="translate(211.365861 329.798281) scale(0.11 -0.11)">
       <use xlink:href="#DejaVuSans-31"/>
       <use xlink:href="#DejaVuSans-2e" x="63.623047"/>
       <use xlink:href="#DejaVuSans-35" x="95.410156"/>
      </g>
     </g>
    </g>
    <g id="xtick_4">
     <g id="text_4">
      <!-- 2.0 -->
      <g style="fill: #262626" transform="translate(281.156284 329.798281) scale(0.11 -0.11)">
       <defs>
        <path id="DejaVuSans-32" d="M 1228 531 
L 3431 531 
L 3431 0 
L 469 0 
L 469 531 
Q 828 903 1448 1529 
Q 2069 2156 2228 2338 
Q 2531 2678 2651 2914 
Q 2772 3150 2772 3378 
Q 2772 3750 2511 3984 
Q 2250 4219 1831 4219 
Q 1534 4219 1204 4116 
Q 875 4013 500 3803 
L 500 4441 
Q 881 4594 1212 4672 
Q 1544 4750 1819 4750 
Q 2544 4750 2975 4387 
Q 3406 4025 3406 3419 
Q 3406 3131 3298 2873 
Q 3191 2616 2906 2266 
Q 2828 2175 2409 1742 
Q 1991 1309 1228 531 
z
" transform="scale(0.015625)"/>
       </defs>
       <use xlink:href="#DejaVuSans-32"/>
       <use xlink:href="#DejaVuSans-2e" x="63.623047"/>
       <use xlink:href="#DejaVuSans-30" x="95.410156"/>
      </g>
     </g>
    </g>
    <g id="xtick_5">
     <g id="text_5">
      <!-- 2.5 -->
      <g style="fill: #262626" transform="translate(350.946708 329.798281) scale(0.11 -0.11)">
       <use xlink:href="#DejaVuSans-32"/>
       <use xlink:href="#DejaVuSans-2e" x="63.623047"/>
       <use xlink:href="#DejaVuSans-35" x="95.410156"/>
      </g>
     </g>
    </g>
    <g id="xtick_6">
     <g id="text_6">
      <!-- 3.0 -->
      <g style="fill: #262626" transform="translate(420.737131 329.798281) scale(0.11 -0.11)">
       <defs>
        <path id="DejaVuSans-33" d="M 2597 2516 
Q 3050 2419 3304 2112 
Q 3559 1806 3559 1356 
Q 3559 666 3084 287 
Q 2609 -91 1734 -91 
Q 1441 -91 1130 -33 
Q 819 25 488 141 
L 488 750 
Q 750 597 1062 519 
Q 1375 441 1716 441 
Q 2309 441 2620 675 
Q 2931 909 2931 1356 
Q 2931 1769 2642 2001 
Q 2353 2234 1838 2234 
L 1294 2234 
L 1294 2753 
L 1863 2753 
Q 2328 2753 2575 2939 
Q 2822 3125 2822 3475 
Q 2822 3834 2567 4026 
Q 2313 4219 1838 4219 
Q 1578 4219 1281 4162 
Q 984 4106 628 3988 
L 628 4550 
Q 988 4650 1302 4700 
Q 1616 4750 1894 4750 
Q 2613 4750 3031 4423 
Q 3450 4097 3450 3541 
Q 3450 3153 3228 2886 
Q 3006 2619 2597 2516 
z
" transform="scale(0.015625)"/>
       </defs>
       <use xlink:href="#DejaVuSans-33"/>
       <use xlink:href="#DejaVuSans-2e" x="63.623047"/>
       <use xlink:href="#DejaVuSans-30" x="95.410156"/>
      </g>
     </g>
    </g>
    <g id="xtick_7">
     <g id="text_7">
      <!-- 3.5 -->
      <g style="fill: #262626" transform="translate(490.527555 329.798281) scale(0.11 -0.11)">
       <use xlink:href="#DejaVuSans-33"/>
       <use xlink:href="#DejaVuSans-2e" x="63.623047"/>
       <use xlink:href="#DejaVuSans-35" x="95.410156"/>
      </g>
     </g>
    </g>
    <g id="text_8">
     <!-- Finish Time (hours) -->
     <g style="fill: #262626" transform="translate(253.555313 345.204063) scale(0.12 -0.12)">
      <defs>
       <path id="DejaVuSans-46" d="M 628 4666 
L 3309 4666 
L 3309 4134 
L 1259 4134 
L 1259 2759 
L 3109 2759 
L 3109 2228 
L 1259 2228 
L 1259 0 
L 628 0 
L 628 4666 
z
" transform="scale(0.015625)"/>
       <path id="DejaVuSans-69" d="M 603 3500 
L 1178 3500 
L 1178 0 
L 603 0 
L 603 3500 
z
M 603 4863 
L 1178 4863 
L 1178 4134 
L 603 4134 
L 603 4863 
z
" transform="scale(0.015625)"/>
       <path id="DejaVuSans-6e" d="M 3513 2113 
L 3513 0 
L 2938 0 
L 2938 2094 
Q 2938 2591 2744 2837 
Q 2550 3084 2163 3084 
Q 1697 3084 1428 2787 
Q 1159 2491 1159 1978 
L 1159 0 
L 581 0 
L 581 3500 
L 1159 3500 
L 1159 2956 
Q 1366 3272 1645 3428 
Q 1925 3584 2291 3584 
Q 2894 3584 3203 3211 
Q 3513 2838 3513 2113 
z
" transform="scale(0.015625)"/>
       <path id="DejaVuSans-73" d="M 2834 3397 
L 2834 2853 
Q 2591 2978 2328 3040 
Q 2066 3103 1784 3103 
Q 1356 3103 1142 2972 
Q 928 2841 928 2578 
Q 928 2378 1081 2264 
Q 1234 2150 1697 2047 
L 1894 2003 
Q 2506 1872 2764 1633 
Q 3022 1394 3022 966 
Q 3022 478 2636 193 
Q 2250 -91 1575 -91 
Q 1294 -91 989 -36 
Q 684 19 347 128 
L 347 722 
Q 666 556 975 473 
Q 1284 391 1588 391 
Q 1994 391 2212 530 
Q 2431 669 2431 922 
Q 2431 1156 2273 1281 
Q 2116 1406 1581 1522 
L 1381 1569 
Q 847 1681 609 1914 
Q 372 2147 372 2553 
Q 372 3047 722 3315 
Q 1072 3584 1716 3584 
Q 2034 3584 2315 3537 
Q 2597 3491 2834 3397 
z
" transform="scale(0.015625)"/>
       <path id="DejaVuSans-68" d="M 3513 2113 
L 3513 0 
L 2938 0 
L 2938 2094 
Q 2938 2591 2744 2837 
Q 2550 3084 2163 3084 
Q 1697 3084 1428 2787 
Q 1159 2491 1159 1978 
L 1159 0 
L 581 0 
L 581 4863 
L 1159 4863 
L 1159 2956 
Q 1366 3272 1645 3428 
Q 1925 3584 2291 3584 
Q 2894 3584 3203 3211 
Q 3513 2838 3513 2113 
z
" transform="scale(0.015625)"/>
       <path id="DejaVuSans-20" transform="scale(0.015625)"/>
       <path id="DejaVuSans-54" d="M -19 4666 
L 3928 4666 
L 3928 4134 
L 2272 4134 
L 2272 0 
L 1638 0 
L 1638 4134 
L -19 4134 
L -19 4666 
z
" transform="scale(0.015625)"/>
       <path id="DejaVuSans-6d" d="M 3328 2828 
Q 3544 3216 3844 3400 
Q 4144 3584 4550 3584 
Q 5097 3584 5394 3201 
Q 5691 2819 5691 2113 
L 5691 0 
L 5113 0 
L 5113 2094 
Q 5113 2597 4934 2840 
Q 4756 3084 4391 3084 
Q 3944 3084 3684 2787 
Q 3425 2491 3425 1978 
L 3425 0 
L 2847 0 
L 2847 2094 
Q 2847 2600 2669 2842 
Q 2491 3084 2119 3084 
Q 1678 3084 1418 2786 
Q 1159 2488 1159 1978 
L 1159 0 
L 581 0 
L 581 3500 
L 1159 3500 
L 1159 2956 
Q 1356 3278 1631 3431 
Q 1906 3584 2284 3584 
Q 2666 3584 2933 3390 
Q 3200 3197 3328 2828 
z
" transform="scale(0.015625)"/>
       <path id="DejaVuSans-65" d="M 3597 1894 
L 3597 1613 
L 953 1613 
Q 991 1019 1311 708 
Q 1631 397 2203 397 
Q 2534 397 2845 478 
Q 3156 559 3463 722 
L 3463 178 
Q 3153 47 2828 -22 
Q 2503 -91 2169 -91 
Q 1331 -91 842 396 
Q 353 884 353 1716 
Q 353 2575 817 3079 
Q 1281 3584 2069 3584 
Q 2775 3584 3186 3129 
Q 3597 2675 3597 1894 
z
M 3022 2063 
Q 3016 2534 2758 2815 
Q 2500 3097 2075 3097 
Q 1594 3097 1305 2825 
Q 1016 2553 972 2059 
L 3022 2063 
z
" transform="scale(0.015625)"/>
       <path id="DejaVuSans-28" d="M 1984 4856 
Q 1566 4138 1362 3434 
Q 1159 2731 1159 2009 
Q 1159 1288 1364 580 
Q 1569 -128 1984 -844 
L 1484 -844 
Q 1016 -109 783 600 
Q 550 1309 550 2009 
Q 550 2706 781 3412 
Q 1013 4119 1484 4856 
L 1984 4856 
z
" transform="scale(0.015625)"/>
       <path id="DejaVuSans-6f" d="M 1959 3097 
Q 1497 3097 1228 2736 
Q 959 2375 959 1747 
Q 959 1119 1226 758 
Q 1494 397 1959 397 
Q 2419 397 2687 759 
Q 2956 1122 2956 1747 
Q 2956 2369 2687 2733 
Q 2419 3097 1959 3097 
z
M 1959 3584 
Q 2709 3584 3137 3096 
Q 3566 2609 3566 1747 
Q 3566 888 3137 398 
Q 2709 -91 1959 -91 
Q 1206 -91 779 398 
Q 353 888 353 1747 
Q 353 2609 779 3096 
Q 1206 3584 1959 3584 
z
" transform="scale(0.015625)"/>
       <path id="DejaVuSans-75" d="M 544 1381 
L 544 3500 
L 1119 3500 
L 1119 1403 
Q 1119 906 1312 657 
Q 1506 409 1894 409 
Q 2359 409 2629 706 
Q 2900 1003 2900 1516 
L 2900 3500 
L 3475 3500 
L 3475 0 
L 2900 0 
L 2900 538 
Q 2691 219 2414 64 
Q 2138 -91 1772 -91 
Q 1169 -91 856 284 
Q 544 659 544 1381 
z
M 1991 3584 
L 1991 3584 
z
" transform="scale(0.015625)"/>
       <path id="DejaVuSans-72" d="M 2631 2963 
Q 2534 3019 2420 3045 
Q 2306 3072 2169 3072 
Q 1681 3072 1420 2755 
Q 1159 2438 1159 1844 
L 1159 0 
L 581 0 
L 581 3500 
L 1159 3500 
L 1159 2956 
Q 1341 3275 1631 3429 
Q 1922 3584 2338 3584 
Q 2397 3584 2469 3576 
Q 2541 3569 2628 3553 
L 2631 2963 
z
" transform="scale(0.015625)"/>
       <path id="DejaVuSans-29" d="M 513 4856 
L 1013 4856 
Q 1481 4119 1714 3412 
Q 1947 2706 1947 2009 
Q 1947 1309 1714 600 
Q 1481 -109 1013 -844 
L 513 -844 
Q 928 -128 1133 580 
Q 1338 1288 1338 2009 
Q 1338 2731 1133 3434 
Q 928 4138 513 4856 
z
" transform="scale(0.015625)"/>
      </defs>
      <use xlink:href="#DejaVuSans-46"/>
      <use xlink:href="#DejaVuSans-69" x="50.269531"/>
      <use xlink:href="#DejaVuSans-6e" x="78.052734"/>
      <use xlink:href="#DejaVuSans-69" x="141.431641"/>
      <use xlink:href="#DejaVuSans-73" x="169.214844"/>
      <use xlink:href="#DejaVuSans-68" x="221.314453"/>
      <use xlink:href="#DejaVuSans-20" x="284.693359"/>
      <use xlink:href="#DejaVuSans-54" x="316.480469"/>
      <use xlink:href="#DejaVuSans-69" x="374.439453"/>
      <use xlink:href="#DejaVuSans-6d" x="402.222656"/>
      <use xlink:href="#DejaVuSans-65" x="499.634766"/>
      <use xlink:href="#DejaVuSans-20" x="561.158203"/>
      <use xlink:href="#DejaVuSans-28" x="592.945312"/>
      <use xlink:href="#DejaVuSans-68" x="631.958984"/>
      <use xlink:href="#DejaVuSans-6f" x="695.337891"/>
      <use xlink:href="#DejaVuSans-75" x="756.519531"/>
      <use xlink:href="#DejaVuSans-72" x="819.898438"/>
      <use xlink:href="#DejaVuSans-73" x="861.011719"/>
      <use xlink:href="#DejaVuSans-29" x="913.111328"/>
     </g>
    </g>
   </g>
   <g id="matplotlib.axis_2">
    <g id="ytick_1">
     <g id="text_9">
      <!-- 0 -->
      <g style="fill: #262626" transform="translate(41.82125 316.119141) scale(0.11 -0.11)">
       <use xlink:href="#DejaVuSans-30"/>
      </g>
     </g>
    </g>
    <g id="ytick_2">
     <g id="text_10">
      <!-- 100 -->
      <g style="fill: #262626" transform="translate(27.82375 276.277139) scale(0.11 -0.11)">
       <use xlink:href="#DejaVuSans-31"/>
       <use xlink:href="#DejaVuSans-30" x="63.623047"/>
       <use xlink:href="#DejaVuSans-30" x="127.246094"/>
      </g>
     </g>
    </g>
    <g id="ytick_3">
     <g id="text_11">
      <!-- 200 -->
      <g style="fill: #262626" transform="translate(27.82375 236.435138) scale(0.11 -0.11)">
       <use xlink:href="#DejaVuSans-32"/>
       <use xlink:href="#DejaVuSans-30" x="63.623047"/>
       <use xlink:href="#DejaVuSans-30" x="127.246094"/>
      </g>
     </g>
    </g>
    <g id="ytick_4">
     <g id="text_12">
      <!-- 300 -->
      <g style="fill: #262626" transform="translate(27.82375 196.593137) scale(0.11 -0.11)">
       <use xlink:href="#DejaVuSans-33"/>
       <use xlink:href="#DejaVuSans-30" x="63.623047"/>
       <use xlink:href="#DejaVuSans-30" x="127.246094"/>
      </g>
     </g>
    </g>
    <g id="ytick_5">
     <g id="text_13">
      <!-- 400 -->
      <g style="fill: #262626" transform="translate(27.82375 156.751135) scale(0.11 -0.11)">
       <defs>
        <path id="DejaVuSans-34" d="M 2419 4116 
L 825 1625 
L 2419 1625 
L 2419 4116 
z
M 2253 4666 
L 3047 4666 
L 3047 1625 
L 3713 1625 
L 3713 1100 
L 3047 1100 
L 3047 0 
L 2419 0 
L 2419 1100 
L 313 1100 
L 313 1709 
L 2253 4666 
z
" transform="scale(0.015625)"/>
       </defs>
       <use xlink:href="#DejaVuSans-34"/>
       <use xlink:href="#DejaVuSans-30" x="63.623047"/>
       <use xlink:href="#DejaVuSans-30" x="127.246094"/>
      </g>
     </g>
    </g>
    <g id="ytick_6">
     <g id="text_14">
      <!-- 500 -->
      <g style="fill: #262626" transform="translate(27.82375 116.909134) scale(0.11 -0.11)">
       <use xlink:href="#DejaVuSans-35"/>
       <use xlink:href="#DejaVuSans-30" x="63.623047"/>
       <use xlink:href="#DejaVuSans-30" x="127.246094"/>
      </g>
     </g>
    </g>
    <g id="ytick_7">
     <g id="text_15">
      <!-- 600 -->
      <g style="fill: #262626" transform="translate(27.82375 77.067133) scale(0.11 -0.11)">
       <defs>
        <path id="DejaVuSans-36" d="M 2113 2584 
Q 1688 2584 1439 2293 
Q 1191 2003 1191 1497 
Q 1191 994 1439 701 
Q 1688 409 2113 409 
Q 2538 409 2786 701 
Q 3034 994 3034 1497 
Q 3034 2003 2786 2293 
Q 2538 2584 2113 2584 
z
M 3366 4563 
L 3366 3988 
Q 3128 4100 2886 4159 
Q 2644 4219 2406 4219 
Q 1781 4219 1451 3797 
Q 1122 3375 1075 2522 
Q 1259 2794 1537 2939 
Q 1816 3084 2150 3084 
Q 2853 3084 3261 2657 
Q 3669 2231 3669 1497 
Q 3669 778 3244 343 
Q 2819 -91 2113 -91 
Q 1303 -91 875 529 
Q 447 1150 447 2328 
Q 447 3434 972 4092 
Q 1497 4750 2381 4750 
Q 2619 4750 2861 4703 
Q 3103 4656 3366 4563 
z
" transform="scale(0.015625)"/>
       </defs>
       <use xlink:href="#DejaVuSans-36"/>
       <use xlink:href="#DejaVuSans-30" x="63.623047"/>
       <use xlink:href="#DejaVuSans-30" x="127.246094"/>
      </g>
     </g>
    </g>
    <g id="text_16">
     <!-- Count -->
     <g style="fill: #262626" transform="translate(21.328125 193.588125) rotate(-90) scale(0.12 -0.12)">
      <defs>
       <path id="DejaVuSans-43" d="M 4122 4306 
L 4122 3641 
Q 3803 3938 3442 4084 
Q 3081 4231 2675 4231 
Q 1875 4231 1450 3742 
Q 1025 3253 1025 2328 
Q 1025 1406 1450 917 
Q 1875 428 2675 428 
Q 3081 428 3442 575 
Q 3803 722 4122 1019 
L 4122 359 
Q 3791 134 3420 21 
Q 3050 -91 2638 -91 
Q 1578 -91 968 557 
Q 359 1206 359 2328 
Q 359 3453 968 4101 
Q 1578 4750 2638 4750 
Q 3056 4750 3426 4639 
Q 3797 4528 4122 4306 
z
" transform="scale(0.015625)"/>
       <path id="DejaVuSans-74" d="M 1172 4494 
L 1172 3500 
L 2356 3500 
L 2356 3053 
L 1172 3053 
L 1172 1153 
Q 1172 725 1289 603 
Q 1406 481 1766 481 
L 2356 481 
L 2356 0 
L 1766 0 
Q 1100 0 847 248 
Q 594 497 594 1153 
L 594 3053 
L 172 3053 
L 172 3500 
L 594 3500 
L 594 4494 
L 1172 4494 
z
" transform="scale(0.015625)"/>
      </defs>
      <use xlink:href="#DejaVuSans-43"/>
      <use xlink:href="#DejaVuSans-6f" x="69.824219"/>
      <use xlink:href="#DejaVuSans-75" x="131.005859"/>
      <use xlink:href="#DejaVuSans-6e" x="194.384766"/>
      <use xlink:href="#DejaVuSans-74" x="257.763672"/>
     </g>
    </g>
   </g>
   <g id="patch_3">
    <path d="M 81.261818 311.94 
L 88.431136 311.94 
L 88.431136 311.94 
L 81.261818 311.94 
z
" clip-path="url(#p2fe16e9f91)" style="fill: #dd8452; fill-opacity: 0.5"/>
   </g>
   <g id="patch_4">
    <path d="M 88.431136 311.94 
L 95.600455 311.94 
L 95.600455 308.75264 
L 88.431136 308.75264 
z
" clip-path="url(#p2fe16e9f91)" style="fill: #dd8452; fill-opacity: 0.5"/>
   </g>
   <g id="patch_5">
    <path d="M 95.600455 311.94 
L 102.769773 311.94 
L 102.769773 305.9637 
L 95.600455 305.9637 
z
" clip-path="url(#p2fe16e9f91)" style="fill: #dd8452; fill-opacity: 0.5"/>
   </g>
   <g id="patch_6">
    <path d="M 102.769773 311.94 
L 109.939091 311.94 
L 109.939091 298.79214 
L 102.769773 298.79214 
z
" clip-path="url(#p2fe16e9f91)" style="fill: #dd8452; fill-opacity: 0.5"/>
   </g>
   <g id="patch_7">
    <path d="M 109.939091 311.94 
L 117.108409 311.94 
L 117.108409 280.863239 
L 109.939091 280.863239 
z
" clip-path="url(#p2fe16e9f91)" style="fill: #dd8452; fill-opacity: 0.5"/>
   </g>
   <g id="patch_8">
    <path d="M 117.108409 311.94 
L 124.277727 311.94 
L 124.277727 254.567518 
L 117.108409 254.567518 
z
" clip-path="url(#p2fe16e9f91)" style="fill: #dd8452; fill-opacity: 0.5"/>
   </g>
   <g id="patch_9">
    <path d="M 124.277727 311.94 
L 131.447045 311.94 
L 131.447045 215.920777 
L 124.277727 215.920777 
z
" clip-path="url(#p2fe16e9f91)" style="fill: #dd8452; fill-opacity: 0.5"/>
   </g>
   <g id="patch_10">
    <path d="M 131.447045 311.94 
L 138.616364 311.94 
L 138.616364 159.345135 
L 131.447045 159.345135 
z
" clip-path="url(#p2fe16e9f91)" style="fill: #dd8452; fill-opacity: 0.5"/>
   </g>
   <g id="patch_11">
    <path d="M 138.616364 311.94 
L 145.785682 311.94 
L 145.785682 118.706294 
L 138.616364 118.706294 
z
" clip-path="url(#p2fe16e9f91)" style="fill: #dd8452; fill-opacity: 0.5"/>
   </g>
   <g id="patch_12">
    <path d="M 145.785682 311.94 
L 152.955 311.94 
L 152.955 77.270612 
L 145.785682 77.270612 
z
" clip-path="url(#p2fe16e9f91)" style="fill: #dd8452; fill-opacity: 0.5"/>
   </g>
   <g id="patch_13">
    <path d="M 152.955 311.94 
L 160.124318 311.94 
L 160.124318 98.785293 
L 152.955 98.785293 
z
" clip-path="url(#p2fe16e9f91)" style="fill: #dd8452; fill-opacity: 0.5"/>
   </g>
   <g id="patch_14">
    <path d="M 160.124318 311.94 
L 167.293636 311.94 
L 167.293636 85.239013 
L 160.124318 85.239013 
z
" clip-path="url(#p2fe16e9f91)" style="fill: #dd8452; fill-opacity: 0.5"/>
   </g>
   <g id="patch_15">
    <path d="M 167.293636 311.94 
L 174.462955 311.94 
L 174.462955 52.568571 
L 167.293636 52.568571 
z
" clip-path="url(#p2fe16e9f91)" style="fill: #dd8452; fill-opacity: 0.5"/>
   </g>
   <g id="patch_16">
    <path d="M 174.462955 311.94 
L 181.632273 311.94 
L 181.632273 101.175813 
L 174.462955 101.175813 
z
" clip-path="url(#p2fe16e9f91)" style="fill: #dd8452; fill-opacity: 0.5"/>
   </g>
   <g id="patch_17">
    <path d="M 181.632273 311.94 
L 188.801591 311.94 
L 188.801591 113.526833 
L 181.632273 113.526833 
z
" clip-path="url(#p2fe16e9f91)" style="fill: #dd8452; fill-opacity: 0.5"/>
   </g>
   <g id="patch_18">
    <path d="M 188.801591 311.94 
L 195.970909 311.94 
L 195.970909 146.994115 
L 188.801591 146.994115 
z
" clip-path="url(#p2fe16e9f91)" style="fill: #dd8452; fill-opacity: 0.5"/>
   </g>
   <g id="patch_19">
    <path d="M 195.970909 311.94 
L 203.140227 311.94 
L 203.140227 168.110375 
L 195.970909 168.110375 
z
" clip-path="url(#p2fe16e9f91)" style="fill: #dd8452; fill-opacity: 0.5"/>
   </g>
   <g id="patch_20">
    <path d="M 203.140227 311.94 
L 210.309545 311.94 
L 210.309545 174.485095 
L 203.140227 174.485095 
z
" clip-path="url(#p2fe16e9f91)" style="fill: #dd8452; fill-opacity: 0.5"/>
   </g>
   <g id="patch_21">
    <path d="M 210.309545 311.94 
L 217.478864 311.94 
L 217.478864 188.031376 
L 210.309545 188.031376 
z
" clip-path="url(#p2fe16e9f91)" style="fill: #dd8452; fill-opacity: 0.5"/>
   </g>
   <g id="patch_22">
    <path d="M 217.478864 311.94 
L 224.648182 311.94 
L 224.648182 194.406096 
L 217.478864 194.406096 
z
" clip-path="url(#p2fe16e9f91)" style="fill: #dd8452; fill-opacity: 0.5"/>
   </g>
   <g id="patch_23">
    <path d="M 224.648182 311.94 
L 231.8175 311.94 
L 231.8175 201.976076 
L 224.648182 201.976076 
z
" clip-path="url(#p2fe16e9f91)" style="fill: #dd8452; fill-opacity: 0.5"/>
   </g>
   <g id="patch_24">
    <path d="M 231.8175 311.94 
L 238.986818 311.94 
L 238.986818 197.991876 
L 231.8175 197.991876 
z
" clip-path="url(#p2fe16e9f91)" style="fill: #dd8452; fill-opacity: 0.5"/>
   </g>
   <g id="patch_25">
    <path d="M 238.986818 311.94 
L 246.156136 311.94 
L 246.156136 200.780816 
L 238.986818 200.780816 
z
" clip-path="url(#p2fe16e9f91)" style="fill: #dd8452; fill-opacity: 0.5"/>
   </g>
   <g id="patch_26">
    <path d="M 246.156136 311.94 
L 253.325455 311.94 
L 253.325455 197.991876 
L 246.156136 197.991876 
z
" clip-path="url(#p2fe16e9f91)" style="fill: #dd8452; fill-opacity: 0.5"/>
   </g>
   <g id="patch_27">
    <path d="M 253.325455 311.94 
L 260.494773 311.94 
L 260.494773 185.242436 
L 253.325455 185.242436 
z
" clip-path="url(#p2fe16e9f91)" style="fill: #dd8452; fill-opacity: 0.5"/>
   </g>
   <g id="patch_28">
    <path d="M 260.494773 311.94 
L 267.664091 311.94 
L 267.664091 170.102475 
L 260.494773 170.102475 
z
" clip-path="url(#p2fe16e9f91)" style="fill: #dd8452; fill-opacity: 0.5"/>
   </g>
   <g id="patch_29">
    <path d="M 267.664091 311.94 
L 274.833409 311.94 
L 274.833409 180.461396 
L 267.664091 180.461396 
z
" clip-path="url(#p2fe16e9f91)" style="fill: #dd8452; fill-opacity: 0.5"/>
   </g>
   <g id="patch_30">
    <path d="M 274.833409 311.94 
L 282.002727 311.94 
L 282.002727 155.759355 
L 274.833409 155.759355 
z
" clip-path="url(#p2fe16e9f91)" style="fill: #dd8452; fill-opacity: 0.5"/>
   </g>
   <g id="patch_31">
    <path d="M 282.002727 311.94 
L 289.172045 311.94 
L 289.172045 197.195036 
L 282.002727 197.195036 
z
" clip-path="url(#p2fe16e9f91)" style="fill: #dd8452; fill-opacity: 0.5"/>
   </g>
   <g id="patch_32">
    <path d="M 289.172045 311.94 
L 296.341364 311.94 
L 296.341364 197.991876 
L 289.172045 197.991876 
z
" clip-path="url(#p2fe16e9f91)" style="fill: #dd8452; fill-opacity: 0.5"/>
   </g>
   <g id="patch_33">
    <path d="M 296.341364 311.94 
L 303.510682 311.94 
L 303.510682 209.147637 
L 296.341364 209.147637 
z
" clip-path="url(#p2fe16e9f91)" style="fill: #dd8452; fill-opacity: 0.5"/>
   </g>
   <g id="patch_34">
    <path d="M 303.510682 311.94 
L 310.68 311.94 
L 310.68 231.459157 
L 303.510682 231.459157 
z
" clip-path="url(#p2fe16e9f91)" style="fill: #dd8452; fill-opacity: 0.5"/>
   </g>
   <g id="patch_35">
    <path d="M 310.68 311.94 
L 317.849318 311.94 
L 317.849318 265.324858 
L 310.68 265.324858 
z
" clip-path="url(#p2fe16e9f91)" style="fill: #dd8452; fill-opacity: 0.5"/>
   </g>
   <g id="patch_36">
    <path d="M 317.849318 311.94 
L 325.018636 311.94 
L 325.018636 268.113799 
L 317.849318 268.113799 
z
" clip-path="url(#p2fe16e9f91)" style="fill: #dd8452; fill-opacity: 0.5"/>
   </g>
   <g id="patch_37">
    <path d="M 325.018636 311.94 
L 332.187955 311.94 
L 332.187955 276.879039 
L 325.018636 276.879039 
z
" clip-path="url(#p2fe16e9f91)" style="fill: #dd8452; fill-opacity: 0.5"/>
   </g>
   <g id="patch_38">
    <path d="M 332.187955 311.94 
L 339.357273 311.94 
L 339.357273 291.222159 
L 332.187955 291.222159 
z
" clip-path="url(#p2fe16e9f91)" style="fill: #dd8452; fill-opacity: 0.5"/>
   </g>
   <g id="patch_39">
    <path d="M 339.357273 311.94 
L 346.526591 311.94 
L 346.526591 284.449019 
L 339.357273 284.449019 
z
" clip-path="url(#p2fe16e9f91)" style="fill: #dd8452; fill-opacity: 0.5"/>
   </g>
   <g id="patch_40">
    <path d="M 346.526591 311.94 
L 353.695909 311.94 
L 353.695909 303.57318 
L 346.526591 303.57318 
z
" clip-path="url(#p2fe16e9f91)" style="fill: #dd8452; fill-opacity: 0.5"/>
   </g>
   <g id="patch_41">
    <path d="M 353.695909 311.94 
L 360.865227 311.94 
L 360.865227 303.9716 
L 353.695909 303.9716 
z
" clip-path="url(#p2fe16e9f91)" style="fill: #dd8452; fill-opacity: 0.5"/>
   </g>
   <g id="patch_42">
    <path d="M 360.865227 311.94 
L 368.034545 311.94 
L 368.034545 301.18266 
L 360.865227 301.18266 
z
" clip-path="url(#p2fe16e9f91)" style="fill: #dd8452; fill-opacity: 0.5"/>
   </g>
   <g id="patch_43">
    <path d="M 368.034545 311.94 
L 375.203864 311.94 
L 375.203864 306.36212 
L 368.034545 306.36212 
z
" clip-path="url(#p2fe16e9f91)" style="fill: #dd8452; fill-opacity: 0.5"/>
   </g>
   <g id="patch_44">
    <path d="M 375.203864 311.94 
L 382.373182 311.94 
L 382.373182 309.15106 
L 375.203864 309.15106 
z
" clip-path="url(#p2fe16e9f91)" style="fill: #dd8452; fill-opacity: 0.5"/>
   </g>
   <g id="patch_45">
    <path d="M 382.373182 311.94 
L 389.5425 311.94 
L 389.5425 308.35422 
L 382.373182 308.35422 
z
" clip-path="url(#p2fe16e9f91)" style="fill: #dd8452; fill-opacity: 0.5"/>
   </g>
   <g id="patch_46">
    <path d="M 389.5425 311.94 
L 396.711818 311.94 
L 396.711818 309.54948 
L 389.5425 309.54948 
z
" clip-path="url(#p2fe16e9f91)" style="fill: #dd8452; fill-opacity: 0.5"/>
   </g>
   <g id="patch_47">
    <path d="M 396.711818 311.94 
L 403.881136 311.94 
L 403.881136 310.74474 
L 396.711818 310.74474 
z
" clip-path="url(#p2fe16e9f91)" style="fill: #dd8452; fill-opacity: 0.5"/>
   </g>
   <g id="patch_48">
    <path d="M 403.881136 311.94 
L 411.050455 311.94 
L 411.050455 308.35422 
L 403.881136 308.35422 
z
" clip-path="url(#p2fe16e9f91)" style="fill: #dd8452; fill-opacity: 0.5"/>
   </g>
   <g id="patch_49">
    <path d="M 411.050455 311.94 
L 418.219773 311.94 
L 418.219773 309.15106 
L 411.050455 309.15106 
z
" clip-path="url(#p2fe16e9f91)" style="fill: #dd8452; fill-opacity: 0.5"/>
   </g>
   <g id="patch_50">
    <path d="M 418.219773 311.94 
L 425.389091 311.94 
L 425.389091 311.14316 
L 418.219773 311.14316 
z
" clip-path="url(#p2fe16e9f91)" style="fill: #dd8452; fill-opacity: 0.5"/>
   </g>
   <g id="patch_51">
    <path d="M 425.389091 311.94 
L 432.558409 311.94 
L 432.558409 310.34632 
L 425.389091 310.34632 
z
" clip-path="url(#p2fe16e9f91)" style="fill: #dd8452; fill-opacity: 0.5"/>
   </g>
   <g id="patch_52">
    <path d="M 432.558409 311.94 
L 439.727727 311.94 
L 439.727727 310.74474 
L 432.558409 310.74474 
z
" clip-path="url(#p2fe16e9f91)" style="fill: #dd8452; fill-opacity: 0.5"/>
   </g>
   <g id="patch_53">
    <path d="M 439.727727 311.94 
L 446.897045 311.94 
L 446.897045 311.54158 
L 439.727727 311.54158 
z
" clip-path="url(#p2fe16e9f91)" style="fill: #dd8452; fill-opacity: 0.5"/>
   </g>
   <g id="patch_54">
    <path d="M 446.897045 311.94 
L 454.066364 311.94 
L 454.066364 309.9479 
L 446.897045 309.9479 
z
" clip-path="url(#p2fe16e9f91)" style="fill: #dd8452; fill-opacity: 0.5"/>
   </g>
   <g id="patch_55">
    <path d="M 454.066364 311.94 
L 461.235682 311.94 
L 461.235682 311.54158 
L 454.066364 311.54158 
z
" clip-path="url(#p2fe16e9f91)" style="fill: #dd8452; fill-opacity: 0.5"/>
   </g>
   <g id="patch_56">
    <path d="M 461.235682 311.94 
L 468.405 311.94 
L 468.405 311.14316 
L 461.235682 311.14316 
z
" clip-path="url(#p2fe16e9f91)" style="fill: #dd8452; fill-opacity: 0.5"/>
   </g>
   <g id="patch_57">
    <path d="M 468.405 311.94 
L 475.574318 311.94 
L 475.574318 311.14316 
L 468.405 311.14316 
z
" clip-path="url(#p2fe16e9f91)" style="fill: #dd8452; fill-opacity: 0.5"/>
   </g>
   <g id="patch_58">
    <path d="M 475.574318 311.94 
L 482.743636 311.94 
L 482.743636 311.54158 
L 475.574318 311.54158 
z
" clip-path="url(#p2fe16e9f91)" style="fill: #dd8452; fill-opacity: 0.5"/>
   </g>
   <g id="patch_59">
    <path d="M 482.743636 311.94 
L 489.912955 311.94 
L 489.912955 309.9479 
L 482.743636 309.9479 
z
" clip-path="url(#p2fe16e9f91)" style="fill: #dd8452; fill-opacity: 0.5"/>
   </g>
   <g id="patch_60">
    <path d="M 489.912955 311.94 
L 497.082273 311.94 
L 497.082273 311.54158 
L 489.912955 311.54158 
z
" clip-path="url(#p2fe16e9f91)" style="fill: #dd8452; fill-opacity: 0.5"/>
   </g>
   <g id="patch_61">
    <path d="M 497.082273 311.94 
L 504.251591 311.94 
L 504.251591 311.54158 
L 497.082273 311.54158 
z
" clip-path="url(#p2fe16e9f91)" style="fill: #dd8452; fill-opacity: 0.5"/>
   </g>
   <g id="patch_62">
    <path d="M 504.251591 311.94 
L 511.420909 311.94 
L 511.420909 311.14316 
L 504.251591 311.14316 
z
" clip-path="url(#p2fe16e9f91)" style="fill: #dd8452; fill-opacity: 0.5"/>
   </g>
   <g id="patch_63">
    <path d="M 511.420909 311.94 
L 518.590227 311.94 
L 518.590227 311.94 
L 511.420909 311.94 
z
" clip-path="url(#p2fe16e9f91)" style="fill: #dd8452; fill-opacity: 0.5"/>
   </g>
   <g id="patch_64">
    <path d="M 518.590227 311.94 
L 525.759545 311.94 
L 525.759545 311.94 
L 518.590227 311.94 
z
" clip-path="url(#p2fe16e9f91)" style="fill: #dd8452; fill-opacity: 0.5"/>
   </g>
   <g id="patch_65">
    <path d="M 525.759545 311.94 
L 532.928864 311.94 
L 532.928864 311.94 
L 525.759545 311.94 
z
" clip-path="url(#p2fe16e9f91)" style="fill: #dd8452; fill-opacity: 0.5"/>
   </g>
   <g id="patch_66">
    <path d="M 532.928864 311.94 
L 540.098182 311.94 
L 540.098182 311.54158 
L 532.928864 311.54158 
z
" clip-path="url(#p2fe16e9f91)" style="fill: #dd8452; fill-opacity: 0.5"/>
   </g>
   <g id="patch_67">
    <path d="M 81.261818 311.94 
L 88.431136 311.94 
L 88.431136 304.37002 
L 81.261818 304.37002 
z
" clip-path="url(#p2fe16e9f91)" style="fill: #4c72b0; fill-opacity: 0.5"/>
   </g>
   <g id="patch_68">
    <path d="M 88.431136 311.94 
L 95.600455 311.94 
L 95.600455 294.011099 
L 88.431136 294.011099 
z
" clip-path="url(#p2fe16e9f91)" style="fill: #4c72b0; fill-opacity: 0.5"/>
   </g>
   <g id="patch_69">
    <path d="M 95.600455 311.94 
L 102.769773 311.94 
L 102.769773 263.332758 
L 95.600455 263.332758 
z
" clip-path="url(#p2fe16e9f91)" style="fill: #4c72b0; fill-opacity: 0.5"/>
   </g>
   <g id="patch_70">
    <path d="M 102.769773 311.94 
L 109.939091 311.94 
L 109.939091 241.818078 
L 102.769773 241.818078 
z
" clip-path="url(#p2fe16e9f91)" style="fill: #4c72b0; fill-opacity: 0.5"/>
   </g>
   <g id="patch_71">
    <path d="M 109.939091 311.94 
L 117.108409 311.94 
L 117.108409 205.561856 
L 109.939091 205.561856 
z
" clip-path="url(#p2fe16e9f91)" style="fill: #4c72b0; fill-opacity: 0.5"/>
   </g>
   <g id="patch_72">
    <path d="M 117.108409 311.94 
L 124.277727 311.94 
L 124.277727 152.173575 
L 117.108409 152.173575 
z
" clip-path="url(#p2fe16e9f91)" style="fill: #4c72b0; fill-opacity: 0.5"/>
   </g>
   <g id="patch_73">
    <path d="M 124.277727 311.94 
L 131.447045 311.94 
L 131.447045 101.972653 
L 124.277727 101.972653 
z
" clip-path="url(#p2fe16e9f91)" style="fill: #4c72b0; fill-opacity: 0.5"/>
   </g>
   <g id="patch_74">
    <path d="M 131.447045 311.94 
L 138.616364 311.94 
L 138.616364 76.872192 
L 131.447045 76.872192 
z
" clip-path="url(#p2fe16e9f91)" style="fill: #4c72b0; fill-opacity: 0.5"/>
   </g>
   <g id="patch_75">
    <path d="M 138.616364 311.94 
L 145.785682 311.94 
L 145.785682 56.951192 
L 138.616364 56.951192 
z
" clip-path="url(#p2fe16e9f91)" style="fill: #4c72b0; fill-opacity: 0.5"/>
   </g>
   <g id="patch_76">
    <path d="M 145.785682 311.94 
L 152.955 311.94 
L 152.955 86.434273 
L 145.785682 86.434273 
z
" clip-path="url(#p2fe16e9f91)" style="fill: #4c72b0; fill-opacity: 0.5"/>
   </g>
   <g id="patch_77">
    <path d="M 152.955 311.94 
L 160.124318 311.94 
L 160.124318 123.088914 
L 152.955 123.088914 
z
" clip-path="url(#p2fe16e9f91)" style="fill: #4c72b0; fill-opacity: 0.5"/>
   </g>
   <g id="patch_78">
    <path d="M 160.124318 311.94 
L 167.293636 311.94 
L 167.293636 133.447834 
L 160.124318 133.447834 
z
" clip-path="url(#p2fe16e9f91)" style="fill: #4c72b0; fill-opacity: 0.5"/>
   </g>
   <g id="patch_79">
    <path d="M 167.293636 311.94 
L 174.462955 311.94 
L 174.462955 148.587795 
L 167.293636 148.587795 
z
" clip-path="url(#p2fe16e9f91)" style="fill: #4c72b0; fill-opacity: 0.5"/>
   </g>
   <g id="patch_80">
    <path d="M 174.462955 311.94 
L 181.632273 311.94 
L 181.632273 174.485095 
L 174.462955 174.485095 
z
" clip-path="url(#p2fe16e9f91)" style="fill: #4c72b0; fill-opacity: 0.5"/>
   </g>
   <g id="patch_81">
    <path d="M 181.632273 311.94 
L 188.801591 311.94 
L 188.801591 194.007676 
L 181.632273 194.007676 
z
" clip-path="url(#p2fe16e9f91)" style="fill: #4c72b0; fill-opacity: 0.5"/>
   </g>
   <g id="patch_82">
    <path d="M 188.801591 311.94 
L 195.970909 311.94 
L 195.970909 227.076537 
L 188.801591 227.076537 
z
" clip-path="url(#p2fe16e9f91)" style="fill: #4c72b0; fill-opacity: 0.5"/>
   </g>
   <g id="patch_83">
    <path d="M 195.970909 311.94 
L 203.140227 311.94 
L 203.140227 226.678117 
L 195.970909 226.678117 
z
" clip-path="url(#p2fe16e9f91)" style="fill: #4c72b0; fill-opacity: 0.5"/>
   </g>
   <g id="patch_84">
    <path d="M 203.140227 311.94 
L 210.309545 311.94 
L 210.309545 245.005438 
L 203.140227 245.005438 
z
" clip-path="url(#p2fe16e9f91)" style="fill: #4c72b0; fill-opacity: 0.5"/>
   </g>
   <g id="patch_85">
    <path d="M 210.309545 311.94 
L 217.478864 311.94 
L 217.478864 249.786478 
L 210.309545 249.786478 
z
" clip-path="url(#p2fe16e9f91)" style="fill: #4c72b0; fill-opacity: 0.5"/>
   </g>
   <g id="patch_86">
    <path d="M 217.478864 311.94 
L 224.648182 311.94 
L 224.648182 253.372258 
L 217.478864 253.372258 
z
" clip-path="url(#p2fe16e9f91)" style="fill: #4c72b0; fill-opacity: 0.5"/>
   </g>
   <g id="patch_87">
    <path d="M 224.648182 311.94 
L 231.8175 311.94 
L 231.8175 268.113799 
L 224.648182 268.113799 
z
" clip-path="url(#p2fe16e9f91)" style="fill: #4c72b0; fill-opacity: 0.5"/>
   </g>
   <g id="patch_88">
    <path d="M 231.8175 311.94 
L 238.986818 311.94 
L 238.986818 268.910639 
L 231.8175 268.910639 
z
" clip-path="url(#p2fe16e9f91)" style="fill: #4c72b0; fill-opacity: 0.5"/>
   </g>
   <g id="patch_89">
    <path d="M 238.986818 311.94 
L 246.156136 311.94 
L 246.156136 274.090099 
L 238.986818 274.090099 
z
" clip-path="url(#p2fe16e9f91)" style="fill: #4c72b0; fill-opacity: 0.5"/>
   </g>
   <g id="patch_90">
    <path d="M 246.156136 311.94 
L 253.325455 311.94 
L 253.325455 269.309059 
L 246.156136 269.309059 
z
" clip-path="url(#p2fe16e9f91)" style="fill: #4c72b0; fill-opacity: 0.5"/>
   </g>
   <g id="patch_91">
    <path d="M 253.325455 311.94 
L 260.494773 311.94 
L 260.494773 269.707479 
L 253.325455 269.707479 
z
" clip-path="url(#p2fe16e9f91)" style="fill: #4c72b0; fill-opacity: 0.5"/>
   </g>
   <g id="patch_92">
    <path d="M 260.494773 311.94 
L 267.664091 311.94 
L 267.664091 263.731178 
L 260.494773 263.731178 
z
" clip-path="url(#p2fe16e9f91)" style="fill: #4c72b0; fill-opacity: 0.5"/>
   </g>
   <g id="patch_93">
    <path d="M 267.664091 311.94 
L 274.833409 311.94 
L 274.833409 259.348558 
L 267.664091 259.348558 
z
" clip-path="url(#p2fe16e9f91)" style="fill: #4c72b0; fill-opacity: 0.5"/>
   </g>
   <g id="patch_94">
    <path d="M 274.833409 311.94 
L 282.002727 311.94 
L 282.002727 266.918539 
L 274.833409 266.918539 
z
" clip-path="url(#p2fe16e9f91)" style="fill: #4c72b0; fill-opacity: 0.5"/>
   </g>
   <g id="patch_95">
    <path d="M 282.002727 311.94 
L 289.172045 311.94 
L 289.172045 266.520118 
L 282.002727 266.520118 
z
" clip-path="url(#p2fe16e9f91)" style="fill: #4c72b0; fill-opacity: 0.5"/>
   </g>
   <g id="patch_96">
    <path d="M 289.172045 311.94 
L 296.341364 311.94 
L 296.341364 275.683779 
L 289.172045 275.683779 
z
" clip-path="url(#p2fe16e9f91)" style="fill: #4c72b0; fill-opacity: 0.5"/>
   </g>
   <g id="patch_97">
    <path d="M 296.341364 311.94 
L 303.510682 311.94 
L 303.510682 277.675879 
L 296.341364 277.675879 
z
" clip-path="url(#p2fe16e9f91)" style="fill: #4c72b0; fill-opacity: 0.5"/>
   </g>
   <g id="patch_98">
    <path d="M 303.510682 311.94 
L 310.68 311.94 
L 310.68 288.433219 
L 303.510682 288.433219 
z
" clip-path="url(#p2fe16e9f91)" style="fill: #4c72b0; fill-opacity: 0.5"/>
   </g>
   <g id="patch_99">
    <path d="M 310.68 311.94 
L 317.849318 311.94 
L 317.849318 295.604779 
L 310.68 295.604779 
z
" clip-path="url(#p2fe16e9f91)" style="fill: #4c72b0; fill-opacity: 0.5"/>
   </g>
   <g id="patch_100">
    <path d="M 317.849318 311.94 
L 325.018636 311.94 
L 325.018636 302.37792 
L 317.849318 302.37792 
z
" clip-path="url(#p2fe16e9f91)" style="fill: #4c72b0; fill-opacity: 0.5"/>
   </g>
   <g id="patch_101">
    <path d="M 325.018636 311.94 
L 332.187955 311.94 
L 332.187955 301.58108 
L 325.018636 301.58108 
z
" clip-path="url(#p2fe16e9f91)" style="fill: #4c72b0; fill-opacity: 0.5"/>
   </g>
   <g id="patch_102">
    <path d="M 332.187955 311.94 
L 339.357273 311.94 
L 339.357273 303.17476 
L 332.187955 303.17476 
z
" clip-path="url(#p2fe16e9f91)" style="fill: #4c72b0; fill-opacity: 0.5"/>
   </g>
   <g id="patch_103">
    <path d="M 339.357273 311.94 
L 346.526591 311.94 
L 346.526591 301.18266 
L 339.357273 301.18266 
z
" clip-path="url(#p2fe16e9f91)" style="fill: #4c72b0; fill-opacity: 0.5"/>
   </g>
   <g id="patch_104">
    <path d="M 346.526591 311.94 
L 353.695909 311.94 
L 353.695909 308.35422 
L 346.526591 308.35422 
z
" clip-path="url(#p2fe16e9f91)" style="fill: #4c72b0; fill-opacity: 0.5"/>
   </g>
   <g id="patch_105">
    <path d="M 353.695909 311.94 
L 360.865227 311.94 
L 360.865227 309.15106 
L 353.695909 309.15106 
z
" clip-path="url(#p2fe16e9f91)" style="fill: #4c72b0; fill-opacity: 0.5"/>
   </g>
   <g id="patch_106">
    <path d="M 360.865227 311.94 
L 368.034545 311.94 
L 368.034545 309.15106 
L 360.865227 309.15106 
z
" clip-path="url(#p2fe16e9f91)" style="fill: #4c72b0; fill-opacity: 0.5"/>
   </g>
   <g id="patch_107">
    <path d="M 368.034545 311.94 
L 375.203864 311.94 
L 375.203864 309.54948 
L 368.034545 309.54948 
z
" clip-path="url(#p2fe16e9f91)" style="fill: #4c72b0; fill-opacity: 0.5"/>
   </g>
   <g id="patch_108">
    <path d="M 375.203864 311.94 
L 382.373182 311.94 
L 382.373182 311.54158 
L 375.203864 311.54158 
z
" clip-path="url(#p2fe16e9f91)" style="fill: #4c72b0; fill-opacity: 0.5"/>
   </g>
   <g id="patch_109">
    <path d="M 382.373182 311.94 
L 389.5425 311.94 
L 389.5425 309.9479 
L 382.373182 309.9479 
z
" clip-path="url(#p2fe16e9f91)" style="fill: #4c72b0; fill-opacity: 0.5"/>
   </g>
   <g id="patch_110">
    <path d="M 389.5425 311.94 
L 396.711818 311.94 
L 396.711818 311.14316 
L 389.5425 311.14316 
z
" clip-path="url(#p2fe16e9f91)" style="fill: #4c72b0; fill-opacity: 0.5"/>
   </g>
   <g id="patch_111">
    <path d="M 396.711818 311.94 
L 403.881136 311.94 
L 403.881136 311.54158 
L 396.711818 311.54158 
z
" clip-path="url(#p2fe16e9f91)" style="fill: #4c72b0; fill-opacity: 0.5"/>
   </g>
   <g id="patch_112">
    <path d="M 403.881136 311.94 
L 411.050455 311.94 
L 411.050455 311.54158 
L 403.881136 311.54158 
z
" clip-path="url(#p2fe16e9f91)" style="fill: #4c72b0; fill-opacity: 0.5"/>
   </g>
   <g id="patch_113">
    <path d="M 411.050455 311.94 
L 418.219773 311.94 
L 418.219773 311.54158 
L 411.050455 311.54158 
z
" clip-path="url(#p2fe16e9f91)" style="fill: #4c72b0; fill-opacity: 0.5"/>
   </g>
   <g id="patch_114">
    <path d="M 418.219773 311.94 
L 425.389091 311.94 
L 425.389091 311.14316 
L 418.219773 311.14316 
z
" clip-path="url(#p2fe16e9f91)" style="fill: #4c72b0; fill-opacity: 0.5"/>
   </g>
   <g id="patch_115">
    <path d="M 425.389091 311.94 
L 432.558409 311.94 
L 432.558409 311.54158 
L 425.389091 311.54158 
z
" clip-path="url(#p2fe16e9f91)" style="fill: #4c72b0; fill-opacity: 0.5"/>
   </g>
   <g id="patch_116">
    <path d="M 432.558409 311.94 
L 439.727727 311.94 
L 439.727727 311.54158 
L 432.558409 311.54158 
z
" clip-path="url(#p2fe16e9f91)" style="fill: #4c72b0; fill-opacity: 0.5"/>
   </g>
   <g id="patch_117">
    <path d="M 439.727727 311.94 
L 446.897045 311.94 
L 446.897045 311.54158 
L 439.727727 311.54158 
z
" clip-path="url(#p2fe16e9f91)" style="fill: #4c72b0; fill-opacity: 0.5"/>
   </g>
   <g id="patch_118">
    <path d="M 446.897045 311.94 
L 454.066364 311.94 
L 454.066364 311.14316 
L 446.897045 311.14316 
z
" clip-path="url(#p2fe16e9f91)" style="fill: #4c72b0; fill-opacity: 0.5"/>
   </g>
   <g id="patch_119">
    <path d="M 454.066364 311.94 
L 461.235682 311.94 
L 461.235682 310.34632 
L 454.066364 310.34632 
z
" clip-path="url(#p2fe16e9f91)" style="fill: #4c72b0; fill-opacity: 0.5"/>
   </g>
   <g id="patch_120">
    <path d="M 461.235682 311.94 
L 468.405 311.94 
L 468.405 311.94 
L 461.235682 311.94 
z
" clip-path="url(#p2fe16e9f91)" style="fill: #4c72b0; fill-opacity: 0.5"/>
   </g>
   <g id="patch_121">
    <path d="M 468.405 311.94 
L 475.574318 311.94 
L 475.574318 311.54158 
L 468.405 311.54158 
z
" clip-path="url(#p2fe16e9f91)" style="fill: #4c72b0; fill-opacity: 0.5"/>
   </g>
   <g id="patch_122">
    <path d="M 475.574318 311.94 
L 482.743636 311.94 
L 482.743636 311.94 
L 475.574318 311.94 
z
" clip-path="url(#p2fe16e9f91)" style="fill: #4c72b0; fill-opacity: 0.5"/>
   </g>
   <g id="patch_123">
    <path d="M 482.743636 311.94 
L 489.912955 311.94 
L 489.912955 311.14316 
L 482.743636 311.14316 
z
" clip-path="url(#p2fe16e9f91)" style="fill: #4c72b0; fill-opacity: 0.5"/>
   </g>
   <g id="patch_124">
    <path d="M 489.912955 311.94 
L 497.082273 311.94 
L 497.082273 311.94 
L 489.912955 311.94 
z
" clip-path="url(#p2fe16e9f91)" style="fill: #4c72b0; fill-opacity: 0.5"/>
   </g>
   <g id="patch_125">
    <path d="M 497.082273 311.94 
L 504.251591 311.94 
L 504.251591 311.94 
L 497.082273 311.94 
z
" clip-path="url(#p2fe16e9f91)" style="fill: #4c72b0; fill-opacity: 0.5"/>
   </g>
   <g id="patch_126">
    <path d="M 504.251591 311.94 
L 511.420909 311.94 
L 511.420909 311.54158 
L 504.251591 311.54158 
z
" clip-path="url(#p2fe16e9f91)" style="fill: #4c72b0; fill-opacity: 0.5"/>
   </g>
   <g id="patch_127">
    <path d="M 511.420909 311.94 
L 518.590227 311.94 
L 518.590227 311.94 
L 511.420909 311.94 
z
" clip-path="url(#p2fe16e9f91)" style="fill: #4c72b0; fill-opacity: 0.5"/>
   </g>
   <g id="patch_128">
    <path d="M 518.590227 311.94 
L 525.759545 311.94 
L 525.759545 311.94 
L 518.590227 311.94 
z
" clip-path="url(#p2fe16e9f91)" style="fill: #4c72b0; fill-opacity: 0.5"/>
   </g>
   <g id="patch_129">
    <path d="M 525.759545 311.94 
L 532.928864 311.94 
L 532.928864 311.94 
L 525.759545 311.94 
z
" clip-path="url(#p2fe16e9f91)" style="fill: #4c72b0; fill-opacity: 0.5"/>
   </g>
   <g id="patch_130">
    <path d="M 532.928864 311.94 
L 540.098182 311.94 
L 540.098182 311.54158 
L 532.928864 311.54158 
z
" clip-path="url(#p2fe16e9f91)" style="fill: #4c72b0; fill-opacity: 0.5"/>
   </g>
   <g id="patch_131">
    <path d="M 58.32 311.94 
L 58.32 39.6 
" style="fill: none; stroke: #ffffff; stroke-width: 1.25; stroke-linejoin: miter; stroke-linecap: square"/>
   </g>
   <g id="patch_132">
    <path d="M 563.04 311.94 
L 563.04 39.6 
" style="fill: none; stroke: #ffffff; stroke-width: 1.25; stroke-linejoin: miter; stroke-linecap: square"/>
   </g>
   <g id="patch_133">
    <path d="M 58.32 311.94 
L 563.04 311.94 
" style="fill: none; stroke: #ffffff; stroke-width: 1.25; stroke-linejoin: miter; stroke-linecap: square"/>
   </g>
   <g id="patch_134">
    <path d="M 58.32 39.6 
L 563.04 39.6 
" style="fill: none; stroke: #ffffff; stroke-width: 1.25; stroke-linejoin: miter; stroke-linecap: square"/>
   </g>
   <g id="legend_1">
    <g id="patch_135">
     <path d="M 478.725 97.805625 
L 555.34 97.805625 
Q 557.54 97.805625 557.54 95.605625 
L 557.54 47.3 
Q 557.54 45.1 555.34 45.1 
L 478.725 45.1 
Q 476.525 45.1 476.525 47.3 
L 476.525 95.605625 
Q 476.525 97.805625 478.725 97.805625 
z
" style="fill: #eaeaf2; opacity: 0.8; stroke: #cccccc; stroke-linejoin: miter"/>
    </g>
    <g id="text_17">
     <!-- Gender -->
     <g style="fill: #262626" transform="translate(494.921562 58.618125) scale(0.12 -0.12)">
      <defs>
       <path id="DejaVuSans-47" d="M 3809 666 
L 3809 1919 
L 2778 1919 
L 2778 2438 
L 4434 2438 
L 4434 434 
Q 4069 175 3628 42 
Q 3188 -91 2688 -91 
Q 1594 -91 976 548 
Q 359 1188 359 2328 
Q 359 3472 976 4111 
Q 1594 4750 2688 4750 
Q 3144 4750 3555 4637 
Q 3966 4525 4313 4306 
L 4313 3634 
Q 3963 3931 3569 4081 
Q 3175 4231 2741 4231 
Q 1884 4231 1454 3753 
Q 1025 3275 1025 2328 
Q 1025 1384 1454 906 
Q 1884 428 2741 428 
Q 3075 428 3337 486 
Q 3600 544 3809 666 
z
" transform="scale(0.015625)"/>
       <path id="DejaVuSans-64" d="M 2906 2969 
L 2906 4863 
L 3481 4863 
L 3481 0 
L 2906 0 
L 2906 525 
Q 2725 213 2448 61 
Q 2172 -91 1784 -91 
Q 1150 -91 751 415 
Q 353 922 353 1747 
Q 353 2572 751 3078 
Q 1150 3584 1784 3584 
Q 2172 3584 2448 3432 
Q 2725 3281 2906 2969 
z
M 947 1747 
Q 947 1113 1208 752 
Q 1469 391 1925 391 
Q 2381 391 2643 752 
Q 2906 1113 2906 1747 
Q 2906 2381 2643 2742 
Q 2381 3103 1925 3103 
Q 1469 3103 1208 2742 
Q 947 2381 947 1747 
z
" transform="scale(0.015625)"/>
      </defs>
      <use xlink:href="#DejaVuSans-47"/>
      <use xlink:href="#DejaVuSans-65" x="77.490234"/>
      <use xlink:href="#DejaVuSans-6e" x="139.013672"/>
      <use xlink:href="#DejaVuSans-64" x="202.392578"/>
      <use xlink:href="#DejaVuSans-65" x="265.869141"/>
      <use xlink:href="#DejaVuSans-72" x="327.392578"/>
     </g>
    </g>
    <g id="patch_136">
     <path d="M 480.925 74.972031 
L 502.925 74.972031 
L 502.925 67.272031 
L 480.925 67.272031 
z
" style="fill: #4c72b0; fill-opacity: 0.5"/>
    </g>
    <g id="text_18">
     <!-- Men -->
     <g style="fill: #262626" transform="translate(511.725 74.972031) scale(0.11 -0.11)">
      <defs>
       <path id="DejaVuSans-4d" d="M 628 4666 
L 1569 4666 
L 2759 1491 
L 3956 4666 
L 4897 4666 
L 4897 0 
L 4281 0 
L 4281 4097 
L 3078 897 
L 2444 897 
L 1241 4097 
L 1241 0 
L 628 0 
L 628 4666 
z
" transform="scale(0.015625)"/>
      </defs>
      <use xlink:href="#DejaVuSans-4d"/>
      <use xlink:href="#DejaVuSans-65" x="86.279297"/>
      <use xlink:href="#DejaVuSans-6e" x="147.802734"/>
     </g>
    </g>
    <g id="patch_137">
     <path d="M 480.925 91.117969 
L 502.925 91.117969 
L 502.925 83.417969 
L 480.925 83.417969 
z
" style="fill: #dd8452; fill-opacity: 0.5"/>
    </g>
    <g id="text_19">
     <!-- Women -->
     <g style="fill: #262626" transform="translate(511.725 91.117969) scale(0.11 -0.11)">
      <defs>
       <path id="DejaVuSans-57" d="M 213 4666 
L 850 4666 
L 1831 722 
L 2809 4666 
L 3519 4666 
L 4500 722 
L 5478 4666 
L 6119 4666 
L 4947 0 
L 4153 0 
L 3169 4050 
L 2175 0 
L 1381 0 
L 213 4666 
z
" transform="scale(0.015625)"/>
      </defs>
      <use xlink:href="#DejaVuSans-57"/>
      <use xlink:href="#DejaVuSans-6f" x="93.001953"/>
      <use xlink:href="#DejaVuSans-6d" x="154.183594"/>
      <use xlink:href="#DejaVuSans-65" x="251.595703"/>
      <use xlink:href="#DejaVuSans-6e" x="313.119141"/>
     </g>
    </g>
   </g>
  </g>
  <g id="text_20">
   <!-- Finish Times by Gender -->
   <g style="fill: #262626" transform="translate(203.90625 18.14175) scale(0.144 -0.144)">
    <defs>
     <path id="DejaVuSans-62" d="M 3116 1747 
Q 3116 2381 2855 2742 
Q 2594 3103 2138 3103 
Q 1681 3103 1420 2742 
Q 1159 2381 1159 1747 
Q 1159 1113 1420 752 
Q 1681 391 2138 391 
Q 2594 391 2855 752 
Q 3116 1113 3116 1747 
z
M 1159 2969 
Q 1341 3281 1617 3432 
Q 1894 3584 2278 3584 
Q 2916 3584 3314 3078 
Q 3713 2572 3713 1747 
Q 3713 922 3314 415 
Q 2916 -91 2278 -91 
Q 1894 -91 1617 61 
Q 1341 213 1159 525 
L 1159 0 
L 581 0 
L 581 4863 
L 1159 4863 
L 1159 2969 
z
" transform="scale(0.015625)"/>
     <path id="DejaVuSans-79" d="M 2059 -325 
Q 1816 -950 1584 -1140 
Q 1353 -1331 966 -1331 
L 506 -1331 
L 506 -850 
L 844 -850 
Q 1081 -850 1212 -737 
Q 1344 -625 1503 -206 
L 1606 56 
L 191 3500 
L 800 3500 
L 1894 763 
L 2988 3500 
L 3597 3500 
L 2059 -325 
z
" transform="scale(0.015625)"/>
    </defs>
    <use xlink:href="#DejaVuSans-46"/>
    <use xlink:href="#DejaVuSans-69" x="50.269531"/>
    <use xlink:href="#DejaVuSans-6e" x="78.052734"/>
    <use xlink:href="#DejaVuSans-69" x="141.431641"/>
    <use xlink:href="#DejaVuSans-73" x="169.214844"/>
    <use xlink:href="#DejaVuSans-68" x="221.314453"/>
    <use xlink:href="#DejaVuSans-20" x="284.693359"/>
    <use xlink:href="#DejaVuSans-54" x="316.480469"/>
    <use xlink:href="#DejaVuSans-69" x="374.439453"/>
    <use xlink:href="#DejaVuSans-6d" x="402.222656"/>
    <use xlink:href="#DejaVuSans-65" x="499.634766"/>
    <use xlink:href="#DejaVuSans-73" x="561.158203"/>
    <use xlink:href="#DejaVuSans-20" x="613.257812"/>
    <use xlink:href="#DejaVuSans-62" x="645.044922"/>
    <use xlink:href="#DejaVuSans-79" x="708.521484"/>
    <use xlink:href="#DejaVuSans-20" x="767.701172"/>
    <use xlink:href="#DejaVuSans-47" x="799.488281"/>
    <use xlink:href="#DejaVuSans-65" x="876.978516"/>
    <use xlink:href="#DejaVuSans-6e" x="938.501953"/>
    <use xlink:href="#DejaVuSans-64" x="1001.880859"/>
    <use xlink:href="#DejaVuSans-65" x="1065.357422"/>
    <use xlink:href="#DejaVuSans-72" x="1126.880859"/>
   </g>
  </g>
 </g>
 <defs>
  <clipPath id="p2fe16e9f91">
   <rect x="58.32" y="39.6" width="504.72" height="272.34"/>
  </clipPath>
 </defs>
</svg>
