<?xml version="1.0" encoding="utf-8" standalone="no"?>
<!DOCTYPE svg PUBLIC "-//W3C//DTD SVG 1.1//EN"
  "http://www.w3.org/Graphics/SVG/1.1/DTD/svg11.dtd">
<svg xmlns:xlink="http://www.w3.org/1999/xlink" width="720pt" height="1080pt" viewBox="0 0 720 1080" xmlns="http://www.w3.org/2000/svg" version="1.1">
 <metadata>
  <rdf:RDF xmlns:dc="http://purl.org/dc/elements/1.1/" xmlns:cc="http://creativecommons.org/ns#" xmlns:rdf="http://www.w3.org/1999/02/22-rdf-syntax-ns#">
   <cc:Work>
    <dc:type rdf:resource="http://purl.org/dc/dcmitype/StillImage"/>
    <dc:date>2024-04-23T09:06:53.812225</dc:date>
    <dc:format>image/svg+xml</dc:format>
    <dc:creator>
     <cc:Agent>
      <dc:title>Matplotlib v3.8.3, https://matplotlib.org/</dc:title>
     </cc:Agent>
    </dc:creator>
   </cc:Work>
  </rdf:RDF>
 </metadata>
 <defs>
  <style type="text/css">*{stroke-linejoin: round; stroke-linecap: butt}</style>
 </defs>
 <g id="figure_1">
  <g id="patch_1">
   <path d="M 0 1080 
L 720 1080 
L 720 0 
L 0 0 
z
" style="fill: #ffffff"/>
  </g>
  <g id="axes_1">
   <g id="patch_2">
    <path d="M 88.11 1031.94 
L 707.04 1031.94 
L 707.04 39.6 
L 88.11 39.6 
z
" style="fill: #eaeaf2"/>
   </g>
   <g id="matplotlib.axis_1">
    <g id="xtick_1">
     <g id="text_1">
      <!-- 0.5 -->
      <g style="fill: #262626" transform="translate(101.684552 1049.798281) scale(0.11 -0.11)">
       <defs>
        <path id="DejaVuSans-30" d="M 2034 4250 
Q 1547 4250 1301 3770 
Q 1056 3291 1056 2328 
Q 1056 1369 1301 889 
Q 1547 409 2034 409 
Q 2525 409 2770 889 
Q 3016 1369 3016 2328 
Q 3016 3291 2770 3770 
Q 2525 4250 2034 4250 
z
M 2034 4750 
Q 2819 4750 3233 4129 
Q 3647 3509 3647 2328 
Q 3647 1150 3233 529 
Q 2819 -91 2034 -91 
Q 1250 -91 836 529 
Q 422 1150 422 2328 
Q 422 3509 836 4129 
Q 1250 4750 2034 4750 
z
" transform="scale(0.015625)"/>
        <path id="DejaVuSans-2e" d="M 684 794 
L 1344 794 
L 1344 0 
L 684 0 
L 684 794 
z
" transform="scale(0.015625)"/>
        <path id="DejaVuSans-35" d="M 691 4666 
L 3169 4666 
L 3169 4134 
L 1269 4134 
L 1269 2991 
Q 1406 3038 1543 3061 
Q 1681 3084 1819 3084 
Q 2600 3084 3056 2656 
Q 3513 2228 3513 1497 
Q 3513 744 3044 326 
Q 2575 -91 1722 -91 
Q 1428 -91 1123 -41 
Q 819 9 494 109 
L 494 744 
Q 775 591 1075 516 
Q 1375 441 1709 441 
Q 2250 441 2565 725 
Q 2881 1009 2881 1497 
Q 2881 1984 2565 2268 
Q 2250 2553 1709 2553 
Q 1456 2553 1204 2497 
Q 953 2441 691 2322 
L 691 4666 
z
" transform="scale(0.015625)"/>
       </defs>
       <use xlink:href="#DejaVuSans-30"/>
       <use xlink:href="#DejaVuSans-2e" x="63.623047"/>
       <use xlink:href="#DejaVuSans-35" x="95.410156"/>
      </g>
     </g>
    </g>
    <g id="xtick_2">
     <g id="text_2">
      <!-- 1.0 -->
      <g style="fill: #262626" transform="translate(236.375424 1049.798281) scale(0.11 -0.11)">
       <defs>
        <path id="DejaVuSans-31" d="M 794 531 
L 1825 531 
L 1825 4091 
L 703 3866 
L 703 4441 
L 1819 4666 
L 2450 4666 
L 2450 531 
L 3481 531 
L 3481 0 
L 794 0 
L 794 531 
z
" transform="scale(0.015625)"/>
       </defs>
       <use xlink:href="#DejaVuSans-31"/>
       <use xlink:href="#DejaVuSans-2e" x="63.623047"/>
       <use xlink:href="#DejaVuSans-30" x="95.410156"/>
      </g>
     </g>
    </g>
    <g id="xtick_3">
     <g id="text_3">
      <!-- 1.5 -->
      <g style="fill: #262626" transform="translate(371.066297 1049.798281) scale(0.11 -0.11)">
       <use xlink:href="#DejaVuSans-31"/>
       <use xlink:href="#DejaVuSans-2e" x="63.623047"/>
       <use xlink:href="#DejaVuSans-35" x="95.410156"/>
      </g>
     </g>
    </g>
    <g id="xtick_4">
     <g id="text_4">
      <!-- 2.0 -->
      <g style="fill: #262626" transform="translate(505.757169 1049.798281) scale(0.11 -0.11)">
       <defs>
        <path id="DejaVuSans-32" d="M 1228 531 
L 3431 531 
L 3431 0 
L 469 0 
L 469 531 
Q 828 903 1448 1529 
Q 2069 2156 2228 2338 
Q 2531 2678 2651 2914 
Q 2772 3150 2772 3378 
Q 2772 3750 2511 3984 
Q 2250 4219 1831 4219 
Q 1534 4219 1204 4116 
Q 875 4013 500 3803 
L 500 4441 
Q 881 4594 1212 4672 
Q 1544 4750 1819 4750 
Q 2544 4750 2975 4387 
Q 3406 4025 3406 3419 
Q 3406 3131 3298 2873 
Q 3191 2616 2906 2266 
Q 2828 2175 2409 1742 
Q 1991 1309 1228 531 
z
" transform="scale(0.015625)"/>
       </defs>
       <use xlink:href="#DejaVuSans-32"/>
       <use xlink:href="#DejaVuSans-2e" x="63.623047"/>
       <use xlink:href="#DejaVuSans-30" x="95.410156"/>
      </g>
     </g>
    </g>
    <g id="xtick_5">
     <g id="text_5">
      <!-- 2.5 -->
      <g style="fill: #262626" transform="translate(640.448041 1049.798281) scale(0.11 -0.11)">
       <use xlink:href="#DejaVuSans-32"/>
       <use xlink:href="#DejaVuSans-2e" x="63.623047"/>
       <use xlink:href="#DejaVuSans-35" x="95.410156"/>
      </g>
     </g>
    </g>
    <g id="text_6">
     <!-- Finish Time (hours) -->
     <g style="fill: #262626" transform="translate(340.450312 1065.204062) scale(0.12 -0.12)">
      <defs>
       <path id="DejaVuSans-46" d="M 628 4666 
L 3309 4666 
L 3309 4134 
L 1259 4134 
L 1259 2759 
L 3109 2759 
L 3109 2228 
L 1259 2228 
L 1259 0 
L 628 0 
L 628 4666 
z
" transform="scale(0.015625)"/>
       <path id="DejaVuSans-69" d="M 603 3500 
L 1178 3500 
L 1178 0 
L 603 0 
L 603 3500 
z
M 603 4863 
L 1178 4863 
L 1178 4134 
L 603 4134 
L 603 4863 
z
" transform="scale(0.015625)"/>
       <path id="DejaVuSans-6e" d="M 3513 2113 
L 3513 0 
L 2938 0 
L 2938 2094 
Q 2938 2591 2744 2837 
Q 2550 3084 2163 3084 
Q 1697 3084 1428 2787 
Q 1159 2491 1159 1978 
L 1159 0 
L 581 0 
L 581 3500 
L 1159 3500 
L 1159 2956 
Q 1366 3272 1645 3428 
Q 1925 3584 2291 3584 
Q 2894 3584 3203 3211 
Q 3513 2838 3513 2113 
z
" transform="scale(0.015625)"/>
       <path id="DejaVuSans-73" d="M 2834 3397 
L 2834 2853 
Q 2591 2978 2328 3040 
Q 2066 3103 1784 3103 
Q 1356 3103 1142 2972 
Q 928 2841 928 2578 
Q 928 2378 1081 2264 
Q 1234 2150 1697 2047 
L 1894 2003 
Q 2506 1872 2764 1633 
Q 3022 1394 3022 966 
Q 3022 478 2636 193 
Q 2250 -91 1575 -91 
Q 1294 -91 989 -36 
Q 684 19 347 128 
L 347 722 
Q 666 556 975 473 
Q 1284 391 1588 391 
Q 1994 391 2212 530 
Q 2431 669 2431 922 
Q 2431 1156 2273 1281 
Q 2116 1406 1581 1522 
L 1381 1569 
Q 847 1681 609 1914 
Q 372 2147 372 2553 
Q 372 3047 722 3315 
Q 1072 3584 1716 3584 
Q 2034 3584 2315 3537 
Q 2597 3491 2834 3397 
z
" transform="scale(0.015625)"/>
       <path id="DejaVuSans-68" d="M 3513 2113 
L 3513 0 
L 2938 0 
L 2938 2094 
Q 2938 2591 2744 2837 
Q 2550 3084 2163 3084 
Q 1697 3084 1428 2787 
Q 1159 2491 1159 1978 
L 1159 0 
L 581 0 
L 581 4863 
L 1159 4863 
L 1159 2956 
Q 1366 3272 1645 3428 
Q 1925 3584 2291 3584 
Q 2894 3584 3203 3211 
Q 3513 2838 3513 2113 
z
" transform="scale(0.015625)"/>
       <path id="DejaVuSans-20" transform="scale(0.015625)"/>
       <path id="DejaVuSans-54" d="M -19 4666 
L 3928 4666 
L 3928 4134 
L 2272 4134 
L 2272 0 
L 1638 0 
L 1638 4134 
L -19 4134 
L -19 4666 
z
" transform="scale(0.015625)"/>
       <path id="DejaVuSans-6d" d="M 3328 2828 
Q 3544 3216 3844 3400 
Q 4144 3584 4550 3584 
Q 5097 3584 5394 3201 
Q 5691 2819 5691 2113 
L 5691 0 
L 5113 0 
L 5113 2094 
Q 5113 2597 4934 2840 
Q 4756 3084 4391 3084 
Q 3944 3084 3684 2787 
Q 3425 2491 3425 1978 
L 3425 0 
L 2847 0 
L 2847 2094 
Q 2847 2600 2669 2842 
Q 2491 3084 2119 3084 
Q 1678 3084 1418 2786 
Q 1159 2488 1159 1978 
L 1159 0 
L 581 0 
L 581 3500 
L 1159 3500 
L 1159 2956 
Q 1356 3278 1631 3431 
Q 1906 3584 2284 3584 
Q 2666 3584 2933 3390 
Q 3200 3197 3328 2828 
z
" transform="scale(0.015625)"/>
       <path id="DejaVuSans-65" d="M 3597 1894 
L 3597 1613 
L 953 1613 
Q 991 1019 1311 708 
Q 1631 397 2203 397 
Q 2534 397 2845 478 
Q 3156 559 3463 722 
L 3463 178 
Q 3153 47 2828 -22 
Q 2503 -91 2169 -91 
Q 1331 -91 842 396 
Q 353 884 353 1716 
Q 353 2575 817 3079 
Q 1281 3584 2069 3584 
Q 2775 3584 3186 3129 
Q 3597 2675 3597 1894 
z
M 3022 2063 
Q 3016 2534 2758 2815 
Q 2500 3097 2075 3097 
Q 1594 3097 1305 2825 
Q 1016 2553 972 2059 
L 3022 2063 
z
" transform="scale(0.015625)"/>
       <path id="DejaVuSans-28" d="M 1984 4856 
Q 1566 4138 1362 3434 
Q 1159 2731 1159 2009 
Q 1159 1288 1364 580 
Q 1569 -128 1984 -844 
L 1484 -844 
Q 1016 -109 783 600 
Q 550 1309 550 2009 
Q 550 2706 781 3412 
Q 1013 4119 1484 4856 
L 1984 4856 
z
" transform="scale(0.015625)"/>
       <path id="DejaVuSans-6f" d="M 1959 3097 
Q 1497 3097 1228 2736 
Q 959 2375 959 1747 
Q 959 1119 1226 758 
Q 1494 397 1959 397 
Q 2419 397 2687 759 
Q 2956 1122 2956 1747 
Q 2956 2369 2687 2733 
Q 2419 3097 1959 3097 
z
M 1959 3584 
Q 2709 3584 3137 3096 
Q 3566 2609 3566 1747 
Q 3566 888 3137 398 
Q 2709 -91 1959 -91 
Q 1206 -91 779 398 
Q 353 888 353 1747 
Q 353 2609 779 3096 
Q 1206 3584 1959 3584 
z
" transform="scale(0.015625)"/>
       <path id="DejaVuSans-75" d="M 544 1381 
L 544 3500 
L 1119 3500 
L 1119 1403 
Q 1119 906 1312 657 
Q 1506 409 1894 409 
Q 2359 409 2629 706 
Q 2900 1003 2900 1516 
L 2900 3500 
L 3475 3500 
L 3475 0 
L 2900 0 
L 2900 538 
Q 2691 219 2414 64 
Q 2138 -91 1772 -91 
Q 1169 -91 856 284 
Q 544 659 544 1381 
z
M 1991 3584 
L 1991 3584 
z
" transform="scale(0.015625)"/>
       <path id="DejaVuSans-72" d="M 2631 2963 
Q 2534 3019 2420 3045 
Q 2306 3072 2169 3072 
Q 1681 3072 1420 2755 
Q 1159 2438 1159 1844 
L 1159 0 
L 581 0 
L 581 3500 
L 1159 3500 
L 1159 2956 
Q 1341 3275 1631 3429 
Q 1922 3584 2338 3584 
Q 2397 3584 2469 3576 
Q 2541 3569 2628 3553 
L 2631 2963 
z
" transform="scale(0.015625)"/>
       <path id="DejaVuSans-29" d="M 513 4856 
L 1013 4856 
Q 1481 4119 1714 3412 
Q 1947 2706 1947 2009 
Q 1947 1309 1714 600 
Q 1481 -109 1013 -844 
L 513 -844 
Q 928 -128 1133 580 
Q 1338 1288 1338 2009 
Q 1338 2731 1133 3434 
Q 928 4138 513 4856 
z
" transform="scale(0.015625)"/>
      </defs>
      <use xlink:href="#DejaVuSans-46"/>
      <use xlink:href="#DejaVuSans-69" x="50.269531"/>
      <use xlink:href="#DejaVuSans-6e" x="78.052734"/>
      <use xlink:href="#DejaVuSans-69" x="141.431641"/>
      <use xlink:href="#DejaVuSans-73" x="169.214844"/>
      <use xlink:href="#DejaVuSans-68" x="221.314453"/>
      <use xlink:href="#DejaVuSans-20" x="284.693359"/>
      <use xlink:href="#DejaVuSans-54" x="316.480469"/>
      <use xlink:href="#DejaVuSans-69" x="374.439453"/>
      <use xlink:href="#DejaVuSans-6d" x="402.222656"/>
      <use xlink:href="#DejaVuSans-65" x="499.634766"/>
      <use xlink:href="#DejaVuSans-20" x="561.158203"/>
      <use xlink:href="#DejaVuSans-28" x="592.945312"/>
      <use xlink:href="#DejaVuSans-68" x="631.958984"/>
      <use xlink:href="#DejaVuSans-6f" x="695.337891"/>
      <use xlink:href="#DejaVuSans-75" x="756.519531"/>
      <use xlink:href="#DejaVuSans-72" x="819.898438"/>
      <use xlink:href="#DejaVuSans-73" x="861.011719"/>
      <use xlink:href="#DejaVuSans-29" x="913.111328"/>
     </g>
    </g>
   </g>
   <g id="matplotlib.axis_2">
    <g id="ytick_1">
     <g id="text_7">
      <!-- Ryan -->
      <g style="fill: #262626" transform="translate(51.348906 76.857141) scale(0.11 -0.11)">
       <defs>
        <path id="DejaVuSans-52" d="M 2841 2188 
Q 3044 2119 3236 1894 
Q 3428 1669 3622 1275 
L 4263 0 
L 3584 0 
L 2988 1197 
Q 2756 1666 2539 1819 
Q 2322 1972 1947 1972 
L 1259 1972 
L 1259 0 
L 628 0 
L 628 4666 
L 2053 4666 
Q 2853 4666 3247 4331 
Q 3641 3997 3641 3322 
Q 3641 2881 3436 2590 
Q 3231 2300 2841 2188 
z
M 1259 4147 
L 1259 2491 
L 2053 2491 
Q 2509 2491 2742 2702 
Q 2975 2913 2975 3322 
Q 2975 3731 2742 3939 
Q 2509 4147 2053 4147 
L 1259 4147 
z
" transform="scale(0.015625)"/>
        <path id="DejaVuSans-79" d="M 2059 -325 
Q 1816 -950 1584 -1140 
Q 1353 -1331 966 -1331 
L 506 -1331 
L 506 -850 
L 844 -850 
Q 1081 -850 1212 -737 
Q 1344 -625 1503 -206 
L 1606 56 
L 191 3500 
L 800 3500 
L 1894 763 
L 2988 3500 
L 3597 3500 
L 2059 -325 
z
" transform="scale(0.015625)"/>
        <path id="DejaVuSans-61" d="M 2194 1759 
Q 1497 1759 1228 1600 
Q 959 1441 959 1056 
Q 959 750 1161 570 
Q 1363 391 1709 391 
Q 2188 391 2477 730 
Q 2766 1069 2766 1631 
L 2766 1759 
L 2194 1759 
z
M 3341 1997 
L 3341 0 
L 2766 0 
L 2766 531 
Q 2569 213 2275 61 
Q 1981 -91 1556 -91 
Q 1019 -91 701 211 
Q 384 513 384 1019 
Q 384 1609 779 1909 
Q 1175 2209 1959 2209 
L 2766 2209 
L 2766 2266 
Q 2766 2663 2505 2880 
Q 2244 3097 1772 3097 
Q 1472 3097 1187 3025 
Q 903 2953 641 2809 
L 641 3341 
Q 956 3463 1253 3523 
Q 1550 3584 1831 3584 
Q 2591 3584 2966 3190 
Q 3341 2797 3341 1997 
z
" transform="scale(0.015625)"/>
       </defs>
       <use xlink:href="#DejaVuSans-52"/>
       <use xlink:href="#DejaVuSans-79" x="63.982422"/>
       <use xlink:href="#DejaVuSans-61" x="123.162109"/>
       <use xlink:href="#DejaVuSans-6e" x="184.441406"/>
      </g>
     </g>
    </g>
    <g id="ytick_2">
     <g id="text_8">
      <!-- Matthew -->
      <g style="fill: #262626" transform="translate(31.017812 143.013141) scale(0.11 -0.11)">
       <defs>
        <path id="DejaVuSans-4d" d="M 628 4666 
L 1569 4666 
L 2759 1491 
L 3956 4666 
L 4897 4666 
L 4897 0 
L 4281 0 
L 4281 4097 
L 3078 897 
L 2444 897 
L 1241 4097 
L 1241 0 
L 628 0 
L 628 4666 
z
" transform="scale(0.015625)"/>
        <path id="DejaVuSans-74" d="M 1172 4494 
L 1172 3500 
L 2356 3500 
L 2356 3053 
L 1172 3053 
L 1172 1153 
Q 1172 725 1289 603 
Q 1406 481 1766 481 
L 2356 481 
L 2356 0 
L 1766 0 
Q 1100 0 847 248 
Q 594 497 594 1153 
L 594 3053 
L 172 3053 
L 172 3500 
L 594 3500 
L 594 4494 
L 1172 4494 
z
" transform="scale(0.015625)"/>
        <path id="DejaVuSans-77" d="M 269 3500 
L 844 3500 
L 1563 769 
L 2278 3500 
L 2956 3500 
L 3675 769 
L 4391 3500 
L 4966 3500 
L 4050 0 
L 3372 0 
L 2619 2869 
L 1863 0 
L 1184 0 
L 269 3500 
z
" transform="scale(0.015625)"/>
       </defs>
       <use xlink:href="#DejaVuSans-4d"/>
       <use xlink:href="#DejaVuSans-61" x="86.279297"/>
       <use xlink:href="#DejaVuSans-74" x="147.558594"/>
       <use xlink:href="#DejaVuSans-74" x="186.767578"/>
       <use xlink:href="#DejaVuSans-68" x="225.976562"/>
       <use xlink:href="#DejaVuSans-65" x="289.355469"/>
       <use xlink:href="#DejaVuSans-77" x="350.878906"/>
      </g>
     </g>
    </g>
    <g id="ytick_3">
     <g id="text_9">
      <!-- John -->
      <g style="fill: #262626" transform="translate(54.691875 209.169141) scale(0.11 -0.11)">
       <defs>
        <path id="DejaVuSans-4a" d="M 628 4666 
L 1259 4666 
L 1259 325 
Q 1259 -519 939 -900 
Q 619 -1281 -91 -1281 
L -331 -1281 
L -331 -750 
L -134 -750 
Q 284 -750 456 -515 
Q 628 -281 628 325 
L 628 4666 
z
" transform="scale(0.015625)"/>
       </defs>
       <use xlink:href="#DejaVuSans-4a"/>
       <use xlink:href="#DejaVuSans-6f" x="29.492188"/>
       <use xlink:href="#DejaVuSans-68" x="90.673828"/>
       <use xlink:href="#DejaVuSans-6e" x="154.052734"/>
      </g>
     </g>
    </g>
    <g id="ytick_4">
     <g id="text_10">
      <!-- David -->
      <g style="fill: #262626" transform="translate(46.849219 275.325141) scale(0.11 -0.11)">
       <defs>
        <path id="DejaVuSans-44" d="M 1259 4147 
L 1259 519 
L 2022 519 
Q 2988 519 3436 956 
Q 3884 1394 3884 2338 
Q 3884 3275 3436 3711 
Q 2988 4147 2022 4147 
L 1259 4147 
z
M 628 4666 
L 1925 4666 
Q 3281 4666 3915 4102 
Q 4550 3538 4550 2338 
Q 4550 1131 3912 565 
Q 3275 0 1925 0 
L 628 0 
L 628 4666 
z
" transform="scale(0.015625)"/>
        <path id="DejaVuSans-76" d="M 191 3500 
L 800 3500 
L 1894 563 
L 2988 3500 
L 3597 3500 
L 2284 0 
L 1503 0 
L 191 3500 
z
" transform="scale(0.015625)"/>
        <path id="DejaVuSans-64" d="M 2906 2969 
L 2906 4863 
L 3481 4863 
L 3481 0 
L 2906 0 
L 2906 525 
Q 2725 213 2448 61 
Q 2172 -91 1784 -91 
Q 1150 -91 751 415 
Q 353 922 353 1747 
Q 353 2572 751 3078 
Q 1150 3584 1784 3584 
Q 2172 3584 2448 3432 
Q 2725 3281 2906 2969 
z
M 947 1747 
Q 947 1113 1208 752 
Q 1469 391 1925 391 
Q 2381 391 2643 752 
Q 2906 1113 2906 1747 
Q 2906 2381 2643 2742 
Q 2381 3103 1925 3103 
Q 1469 3103 1208 2742 
Q 947 2381 947 1747 
z
" transform="scale(0.015625)"/>
       </defs>
       <use xlink:href="#DejaVuSans-44"/>
       <use xlink:href="#DejaVuSans-61" x="77.001953"/>
       <use xlink:href="#DejaVuSans-76" x="138.28125"/>
       <use xlink:href="#DejaVuSans-69" x="197.460938"/>
       <use xlink:href="#DejaVuSans-64" x="225.244141"/>
      </g>
     </g>
    </g>
    <g id="ytick_5">
     <g id="text_11">
      <!-- James -->
      <g style="fill: #262626" transform="translate(45.410625 341.481141) scale(0.11 -0.11)">
       <use xlink:href="#DejaVuSans-4a"/>
       <use xlink:href="#DejaVuSans-61" x="29.492188"/>
       <use xlink:href="#DejaVuSans-6d" x="90.771484"/>
       <use xlink:href="#DejaVuSans-65" x="188.183594"/>
       <use xlink:href="#DejaVuSans-73" x="249.707031"/>
      </g>
     </g>
    </g>
    <g id="ytick_6">
     <g id="text_12">
      <!-- Andrew -->
      <g style="fill: #262626" transform="translate(37.091875 407.637141) scale(0.11 -0.11)">
       <defs>
        <path id="DejaVuSans-41" d="M 2188 4044 
L 1331 1722 
L 3047 1722 
L 2188 4044 
z
M 1831 4666 
L 2547 4666 
L 4325 0 
L 3669 0 
L 3244 1197 
L 1141 1197 
L 716 0 
L 50 0 
L 1831 4666 
z
" transform="scale(0.015625)"/>
       </defs>
       <use xlink:href="#DejaVuSans-41"/>
       <use xlink:href="#DejaVuSans-6e" x="68.408203"/>
       <use xlink:href="#DejaVuSans-64" x="131.787109"/>
       <use xlink:href="#DejaVuSans-72" x="195.263672"/>
       <use xlink:href="#DejaVuSans-65" x="234.126953"/>
       <use xlink:href="#DejaVuSans-77" x="295.650391"/>
      </g>
     </g>
    </g>
    <g id="ytick_7">
     <g id="text_13">
      <!-- Michael -->
      <g style="fill: #262626" transform="translate(36.478281 473.793141) scale(0.11 -0.11)">
       <defs>
        <path id="DejaVuSans-63" d="M 3122 3366 
L 3122 2828 
Q 2878 2963 2633 3030 
Q 2388 3097 2138 3097 
Q 1578 3097 1268 2742 
Q 959 2388 959 1747 
Q 959 1106 1268 751 
Q 1578 397 2138 397 
Q 2388 397 2633 464 
Q 2878 531 3122 666 
L 3122 134 
Q 2881 22 2623 -34 
Q 2366 -91 2075 -91 
Q 1284 -91 818 406 
Q 353 903 353 1747 
Q 353 2603 823 3093 
Q 1294 3584 2113 3584 
Q 2378 3584 2631 3529 
Q 2884 3475 3122 3366 
z
" transform="scale(0.015625)"/>
        <path id="DejaVuSans-6c" d="M 603 4863 
L 1178 4863 
L 1178 0 
L 603 0 
L 603 4863 
z
" transform="scale(0.015625)"/>
       </defs>
       <use xlink:href="#DejaVuSans-4d"/>
       <use xlink:href="#DejaVuSans-69" x="86.279297"/>
       <use xlink:href="#DejaVuSans-63" x="114.0625"/>
       <use xlink:href="#DejaVuSans-68" x="169.042969"/>
       <use xlink:href="#DejaVuSans-61" x="232.421875"/>
       <use xlink:href="#DejaVuSans-65" x="293.701172"/>
       <use xlink:href="#DejaVuSans-6c" x="355.224609"/>
      </g>
     </g>
    </g>
    <g id="ytick_8">
     <g id="text_14">
      <!-- Sarah -->
      <g style="fill: #262626" transform="translate(46.651562 539.949141) scale(0.11 -0.11)">
       <defs>
        <path id="DejaVuSans-53" d="M 3425 4513 
L 3425 3897 
Q 3066 4069 2747 4153 
Q 2428 4238 2131 4238 
Q 1616 4238 1336 4038 
Q 1056 3838 1056 3469 
Q 1056 3159 1242 3001 
Q 1428 2844 1947 2747 
L 2328 2669 
Q 3034 2534 3370 2195 
Q 3706 1856 3706 1288 
Q 3706 609 3251 259 
Q 2797 -91 1919 -91 
Q 1588 -91 1214 -16 
Q 841 59 441 206 
L 441 856 
Q 825 641 1194 531 
Q 1563 422 1919 422 
Q 2459 422 2753 634 
Q 3047 847 3047 1241 
Q 3047 1584 2836 1778 
Q 2625 1972 2144 2069 
L 1759 2144 
Q 1053 2284 737 2584 
Q 422 2884 422 3419 
Q 422 4038 858 4394 
Q 1294 4750 2059 4750 
Q 2388 4750 2728 4690 
Q 3069 4631 3425 4513 
z
" transform="scale(0.015625)"/>
       </defs>
       <use xlink:href="#DejaVuSans-53"/>
       <use xlink:href="#DejaVuSans-61" x="63.476562"/>
       <use xlink:href="#DejaVuSans-72" x="124.755859"/>
       <use xlink:href="#DejaVuSans-61" x="165.869141"/>
       <use xlink:href="#DejaVuSans-68" x="227.148438"/>
      </g>
     </g>
    </g>
    <g id="ytick_9">
     <g id="text_15">
      <!-- Mary -->
      <g style="fill: #262626" transform="translate(51.345469 606.105141) scale(0.11 -0.11)">
       <use xlink:href="#DejaVuSans-4d"/>
       <use xlink:href="#DejaVuSans-61" x="86.279297"/>
       <use xlink:href="#DejaVuSans-72" x="147.558594"/>
       <use xlink:href="#DejaVuSans-79" x="188.671875"/>
      </g>
     </g>
    </g>
    <g id="ytick_10">
     <g id="text_16">
      <!-- Jennifer -->
      <g style="fill: #262626" transform="translate(36.435313 672.261141) scale(0.11 -0.11)">
       <defs>
        <path id="DejaVuSans-66" d="M 2375 4863 
L 2375 4384 
L 1825 4384 
Q 1516 4384 1395 4259 
Q 1275 4134 1275 3809 
L 1275 3500 
L 2222 3500 
L 2222 3053 
L 1275 3053 
L 1275 0 
L 697 0 
L 697 3053 
L 147 3053 
L 147 3500 
L 697 3500 
L 697 3744 
Q 697 4328 969 4595 
Q 1241 4863 1831 4863 
L 2375 4863 
z
" transform="scale(0.015625)"/>
       </defs>
       <use xlink:href="#DejaVuSans-4a"/>
       <use xlink:href="#DejaVuSans-65" x="29.492188"/>
       <use xlink:href="#DejaVuSans-6e" x="91.015625"/>
       <use xlink:href="#DejaVuSans-6e" x="154.394531"/>
       <use xlink:href="#DejaVuSans-69" x="217.773438"/>
       <use xlink:href="#DejaVuSans-66" x="245.556641"/>
       <use xlink:href="#DejaVuSans-65" x="280.761719"/>
       <use xlink:href="#DejaVuSans-72" x="342.285156"/>
      </g>
     </g>
    </g>
    <g id="ytick_11">
     <g id="text_17">
      <!-- Lauren -->
      <g style="fill: #262626" transform="translate(40.754531 738.417141) scale(0.11 -0.11)">
       <defs>
        <path id="DejaVuSans-4c" d="M 628 4666 
L 1259 4666 
L 1259 531 
L 3531 531 
L 3531 0 
L 628 0 
L 628 4666 
z
" transform="scale(0.015625)"/>
       </defs>
       <use xlink:href="#DejaVuSans-4c"/>
       <use xlink:href="#DejaVuSans-61" x="55.712891"/>
       <use xlink:href="#DejaVuSans-75" x="116.992188"/>
       <use xlink:href="#DejaVuSans-72" x="180.371094"/>
       <use xlink:href="#DejaVuSans-65" x="219.234375"/>
       <use xlink:href="#DejaVuSans-6e" x="280.757812"/>
      </g>
     </g>
    </g>
    <g id="ytick_12">
     <g id="text_18">
      <!-- Rachel -->
      <g style="fill: #262626" transform="translate(41.629375 804.573141) scale(0.11 -0.11)">
       <use xlink:href="#DejaVuSans-52"/>
       <use xlink:href="#DejaVuSans-61" x="67.232422"/>
       <use xlink:href="#DejaVuSans-63" x="128.511719"/>
       <use xlink:href="#DejaVuSans-68" x="183.492188"/>
       <use xlink:href="#DejaVuSans-65" x="246.871094"/>
       <use xlink:href="#DejaVuSans-6c" x="308.394531"/>
      </g>
     </g>
    </g>
    <g id="ytick_13">
     <g id="text_19">
      <!-- Emily -->
      <g style="fill: #262626" transform="translate(48.322187 870.729141) scale(0.11 -0.11)">
       <defs>
        <path id="DejaVuSans-45" d="M 628 4666 
L 3578 4666 
L 3578 4134 
L 1259 4134 
L 1259 2753 
L 3481 2753 
L 3481 2222 
L 1259 2222 
L 1259 531 
L 3634 531 
L 3634 0 
L 628 0 
L 628 4666 
z
" transform="scale(0.015625)"/>
       </defs>
       <use xlink:href="#DejaVuSans-45"/>
       <use xlink:href="#DejaVuSans-6d" x="63.183594"/>
       <use xlink:href="#DejaVuSans-69" x="160.595703"/>
       <use xlink:href="#DejaVuSans-6c" x="188.378906"/>
       <use xlink:href="#DejaVuSans-79" x="216.162109"/>
      </g>
     </g>
    </g>
    <g id="ytick_14">
     <g id="text_20">
      <!-- Jessica -->
      <g style="fill: #262626" transform="translate(41.290781 936.885141) scale(0.11 -0.11)">
       <use xlink:href="#DejaVuSans-4a"/>
       <use xlink:href="#DejaVuSans-65" x="29.492188"/>
       <use xlink:href="#DejaVuSans-73" x="91.015625"/>
       <use xlink:href="#DejaVuSans-73" x="143.115234"/>
       <use xlink:href="#DejaVuSans-69" x="195.214844"/>
       <use xlink:href="#DejaVuSans-63" x="222.998047"/>
       <use xlink:href="#DejaVuSans-61" x="277.978516"/>
      </g>
     </g>
    </g>
    <g id="ytick_15">
     <g id="text_21">
      <!-- Elizabeth -->
      <g style="fill: #262626" transform="translate(27.997969 1003.041141) scale(0.11 -0.11)">
       <defs>
        <path id="DejaVuSans-7a" d="M 353 3500 
L 3084 3500 
L 3084 2975 
L 922 459 
L 3084 459 
L 3084 0 
L 275 0 
L 275 525 
L 2438 3041 
L 353 3041 
L 353 3500 
z
" transform="scale(0.015625)"/>
        <path id="DejaVuSans-62" d="M 3116 1747 
Q 3116 2381 2855 2742 
Q 2594 3103 2138 3103 
Q 1681 3103 1420 2742 
Q 1159 2381 1159 1747 
Q 1159 1113 1420 752 
Q 1681 391 2138 391 
Q 2594 391 2855 752 
Q 3116 1113 3116 1747 
z
M 1159 2969 
Q 1341 3281 1617 3432 
Q 1894 3584 2278 3584 
Q 2916 3584 3314 3078 
Q 3713 2572 3713 1747 
Q 3713 922 3314 415 
Q 2916 -91 2278 -91 
Q 1894 -91 1617 61 
Q 1341 213 1159 525 
L 1159 0 
L 581 0 
L 581 4863 
L 1159 4863 
L 1159 2969 
z
" transform="scale(0.015625)"/>
       </defs>
       <use xlink:href="#DejaVuSans-45"/>
       <use xlink:href="#DejaVuSans-6c" x="63.183594"/>
       <use xlink:href="#DejaVuSans-69" x="90.966797"/>
       <use xlink:href="#DejaVuSans-7a" x="118.75"/>
       <use xlink:href="#DejaVuSans-61" x="171.240234"/>
       <use xlink:href="#DejaVuSans-62" x="232.519531"/>
       <use xlink:href="#DejaVuSans-65" x="295.996094"/>
       <use xlink:href="#DejaVuSans-74" x="357.519531"/>
       <use xlink:href="#DejaVuSans-68" x="396.728516"/>
      </g>
     </g>
    </g>
    <g id="text_22">
     <!-- First Name -->
     <g style="fill: #262626" transform="translate(21.502344 568.005938) rotate(-90) scale(0.12 -0.12)">
      <defs>
       <path id="DejaVuSans-4e" d="M 628 4666 
L 1478 4666 
L 3547 763 
L 3547 4666 
L 4159 4666 
L 4159 0 
L 3309 0 
L 1241 3903 
L 1241 0 
L 628 0 
L 628 4666 
z
" transform="scale(0.015625)"/>
      </defs>
      <use xlink:href="#DejaVuSans-46"/>
      <use xlink:href="#DejaVuSans-69" x="50.269531"/>
      <use xlink:href="#DejaVuSans-72" x="78.052734"/>
      <use xlink:href="#DejaVuSans-73" x="119.166016"/>
      <use xlink:href="#DejaVuSans-74" x="171.265625"/>
      <use xlink:href="#DejaVuSans-20" x="210.474609"/>
      <use xlink:href="#DejaVuSans-4e" x="242.261719"/>
      <use xlink:href="#DejaVuSans-61" x="317.066406"/>
      <use xlink:href="#DejaVuSans-6d" x="378.345703"/>
      <use xlink:href="#DejaVuSans-65" x="475.757812"/>
     </g>
    </g>
   </g>
   <g id="patch_3">
    <path d="M 199.719534 46.2156 
L 199.719534 99.1404 
L 287.676228 99.1404 
L 287.676228 46.2156 
L 199.719534 46.2156 
z
" clip-path="url(#p0fad1deffa)" style="fill: #ea96a3; stroke: #464646; stroke-width: 1.5; stroke-linejoin: miter"/>
   </g>
   <g id="patch_4">
    <path d="M 204.869589 112.3716 
L 204.869589 165.2964 
L 305.00346 165.2964 
L 305.00346 112.3716 
L 204.869589 112.3716 
z
" clip-path="url(#p0fad1deffa)" style="fill: #e59471; stroke: #464646; stroke-width: 1.5; stroke-linejoin: miter"/>
   </g>
   <g id="patch_5">
    <path d="M 225.229049 178.5276 
L 225.229049 231.4524 
L 388.379355 231.4524 
L 388.379355 178.5276 
L 225.229049 178.5276 
z
" clip-path="url(#p0fad1deffa)" style="fill: #c6994b; stroke: #464646; stroke-width: 1.5; stroke-linejoin: miter"/>
   </g>
   <g id="patch_6">
    <path d="M 219.518531 244.6836 
L 219.518531 297.6084 
L 421.304539 297.6084 
L 421.304539 244.6836 
L 219.518531 244.6836 
z
" clip-path="url(#p0fad1deffa)" style="fill: #ab9e47; stroke: #464646; stroke-width: 1.5; stroke-linejoin: miter"/>
   </g>
   <g id="patch_7">
    <path d="M 226.820085 310.8396 
L 226.820085 363.7644 
L 407.869498 363.7644 
L 407.869498 310.8396 
L 226.820085 310.8396 
z
" clip-path="url(#p0fad1deffa)" style="fill: #91a446; stroke: #464646; stroke-width: 1.5; stroke-linejoin: miter"/>
   </g>
   <g id="patch_8">
    <path d="M 208.417758 376.9956 
L 208.417758 429.9204 
L 302.349863 429.9204 
L 302.349863 376.9956 
L 208.417758 376.9956 
z
" clip-path="url(#p0fad1deffa)" style="fill: #60ae47; stroke: #464646; stroke-width: 1.5; stroke-linejoin: miter"/>
   </g>
   <g id="patch_9">
    <path d="M 223.86306 443.1516 
L 223.86306 496.0764 
L 355.395431 496.0764 
L 355.395431 443.1516 
L 223.86306 443.1516 
z
" clip-path="url(#p0fad1deffa)" style="fill: #49ae83; stroke: #464646; stroke-width: 1.5; stroke-linejoin: miter"/>
   </g>
   <g id="patch_10">
    <path d="M 241.692577 509.3076 
L 241.692577 562.2324 
L 380.413886 562.2324 
L 380.413886 509.3076 
L 241.692577 509.3076 
z
" clip-path="url(#p0fad1deffa)" style="fill: #4aac9b; stroke: #464646; stroke-width: 1.5; stroke-linejoin: miter"/>
   </g>
   <g id="patch_11">
    <path d="M 259.400311 575.4636 
L 259.400311 628.3884 
L 471.06234 628.3884 
L 471.06234 575.4636 
L 259.400311 575.4636 
z
" clip-path="url(#p0fad1deffa)" style="fill: #4cabad; stroke: #464646; stroke-width: 1.5; stroke-linejoin: miter"/>
   </g>
   <g id="patch_12">
    <path d="M 264.393227 641.6196 
L 264.393227 694.5444 
L 431.728116 694.5444 
L 431.728116 641.6196 
L 264.393227 641.6196 
z
" clip-path="url(#p0fad1deffa)" style="fill: #50acc3; stroke: #464646; stroke-width: 1.5; stroke-linejoin: miter"/>
   </g>
   <g id="patch_13">
    <path d="M 249.115727 707.7756 
L 249.115727 760.7004 
L 363.248283 760.7004 
L 363.248283 707.7756 
L 249.115727 707.7756 
z
" clip-path="url(#p0fad1deffa)" style="fill: #6daee2; stroke: #464646; stroke-width: 1.5; stroke-linejoin: miter"/>
   </g>
   <g id="patch_14">
    <path d="M 244.048357 773.9316 
L 244.048357 826.8564 
L 363.559568 826.8564 
L 363.559568 773.9316 
L 244.048357 773.9316 
z
" clip-path="url(#p0fad1deffa)" style="fill: #adabeb; stroke: #464646; stroke-width: 1.5; stroke-linejoin: miter"/>
   </g>
   <g id="patch_15">
    <path d="M 254.336121 840.0876 
L 254.336121 893.0124 
L 369.11407 893.0124 
L 369.11407 840.0876 
L 254.336121 840.0876 
z
" clip-path="url(#p0fad1deffa)" style="fill: #ce9be9; stroke: #464646; stroke-width: 1.5; stroke-linejoin: miter"/>
   </g>
   <g id="patch_16">
    <path d="M 256.001424 906.2436 
L 256.001424 959.1684 
L 456.03458 959.1684 
L 456.03458 906.2436 
L 256.001424 906.2436 
z
" clip-path="url(#p0fad1deffa)" style="fill: #e78bdb; stroke: #464646; stroke-width: 1.5; stroke-linejoin: miter"/>
   </g>
   <g id="patch_17">
    <path d="M 267.697082 972.3996 
L 267.697082 1025.3244 
L 442.040198 1025.3244 
L 442.040198 972.3996 
L 267.697082 972.3996 
z
" clip-path="url(#p0fad1deffa)" style="fill: #e891bf; stroke: #464646; stroke-width: 1.5; stroke-linejoin: miter"/>
   </g>
   <g id="line2d_1">
    <path d="M 199.719534 72.678 
L 116.243182 72.678 
" clip-path="url(#p0fad1deffa)" style="fill: none; stroke: #464646; stroke-width: 1.5; stroke-linecap: round"/>
   </g>
   <g id="line2d_2">
    <path d="M 287.676228 72.678 
L 394.935807 72.678 
" clip-path="url(#p0fad1deffa)" style="fill: none; stroke: #464646; stroke-width: 1.5; stroke-linecap: round"/>
   </g>
   <g id="line2d_3">
    <path d="M 116.243182 59.4468 
L 116.243182 85.9092 
" clip-path="url(#p0fad1deffa)" style="fill: none; stroke: #464646; stroke-width: 1.5; stroke-linecap: round"/>
   </g>
   <g id="line2d_4">
    <path d="M 394.935807 59.4468 
L 394.935807 85.9092 
" clip-path="url(#p0fad1deffa)" style="fill: none; stroke: #464646; stroke-width: 1.5; stroke-linecap: round"/>
   </g>
   <g id="line2d_5">
    <path d="M 204.869589 138.834 
L 122.128425 138.834 
" clip-path="url(#p0fad1deffa)" style="fill: none; stroke: #464646; stroke-width: 1.5; stroke-linecap: round"/>
   </g>
   <g id="line2d_6">
    <path d="M 305.00346 138.834 
L 438.560684 138.834 
" clip-path="url(#p0fad1deffa)" style="fill: none; stroke: #464646; stroke-width: 1.5; stroke-linecap: round"/>
   </g>
   <g id="line2d_7">
    <path d="M 122.128425 125.6028 
L 122.128425 152.0652 
" clip-path="url(#p0fad1deffa)" style="fill: none; stroke: #464646; stroke-width: 1.5; stroke-linecap: round"/>
   </g>
   <g id="line2d_8">
    <path d="M 438.560684 125.6028 
L 438.560684 152.0652 
" clip-path="url(#p0fad1deffa)" style="fill: none; stroke: #464646; stroke-width: 1.5; stroke-linecap: round"/>
   </g>
   <g id="line2d_9">
    <path d="M 225.229049 204.99 
L 128.382571 204.99 
" clip-path="url(#p0fad1deffa)" style="fill: none; stroke: #464646; stroke-width: 1.5; stroke-linecap: round"/>
   </g>
   <g id="line2d_10">
    <path d="M 388.379355 204.99 
L 562.25255 204.99 
" clip-path="url(#p0fad1deffa)" style="fill: none; stroke: #464646; stroke-width: 1.5; stroke-linecap: round"/>
   </g>
   <g id="line2d_11">
    <path d="M 128.382571 191.7588 
L 128.382571 218.2212 
" clip-path="url(#p0fad1deffa)" style="fill: none; stroke: #464646; stroke-width: 1.5; stroke-linecap: round"/>
   </g>
   <g id="line2d_12">
    <path d="M 562.25255 191.7588 
L 562.25255 218.2212 
" clip-path="url(#p0fad1deffa)" style="fill: none; stroke: #464646; stroke-width: 1.5; stroke-linecap: round"/>
   </g>
   <g id="line2d_13">
    <path d="M 219.518531 271.146 
L 128.724536 271.146 
" clip-path="url(#p0fad1deffa)" style="fill: none; stroke: #464646; stroke-width: 1.5; stroke-linecap: round"/>
   </g>
   <g id="line2d_14">
    <path d="M 421.304539 271.146 
L 602.588725 271.146 
" clip-path="url(#p0fad1deffa)" style="fill: none; stroke: #464646; stroke-width: 1.5; stroke-linecap: round"/>
   </g>
   <g id="line2d_15">
    <path d="M 128.724536 257.9148 
L 128.724536 284.3772 
" clip-path="url(#p0fad1deffa)" style="fill: none; stroke: #464646; stroke-width: 1.5; stroke-linecap: round"/>
   </g>
   <g id="line2d_16">
    <path d="M 602.588725 257.9148 
L 602.588725 284.3772 
" clip-path="url(#p0fad1deffa)" style="fill: none; stroke: #464646; stroke-width: 1.5; stroke-linecap: round"/>
   </g>
   <g id="line2d_17">
    <path d="M 226.820085 337.302 
L 139.418243 337.302 
" clip-path="url(#p0fad1deffa)" style="fill: none; stroke: #464646; stroke-width: 1.5; stroke-linecap: round"/>
   </g>
   <g id="line2d_18">
    <path d="M 407.869498 337.302 
L 678.906818 337.302 
" clip-path="url(#p0fad1deffa)" style="fill: none; stroke: #464646; stroke-width: 1.5; stroke-linecap: round"/>
   </g>
   <g id="line2d_19">
    <path d="M 139.418243 324.0708 
L 139.418243 350.5332 
" clip-path="url(#p0fad1deffa)" style="fill: none; stroke: #464646; stroke-width: 1.5; stroke-linecap: round"/>
   </g>
   <g id="line2d_20">
    <path d="M 678.906818 324.0708 
L 678.906818 350.5332 
" clip-path="url(#p0fad1deffa)" style="fill: none; stroke: #464646; stroke-width: 1.5; stroke-linecap: round"/>
   </g>
   <g id="line2d_21">
    <path d="M 208.417758 403.458 
L 146.477541 403.458 
" clip-path="url(#p0fad1deffa)" style="fill: none; stroke: #464646; stroke-width: 1.5; stroke-linecap: round"/>
   </g>
   <g id="line2d_22">
    <path d="M 302.349863 403.458 
L 442.935893 403.458 
" clip-path="url(#p0fad1deffa)" style="fill: none; stroke: #464646; stroke-width: 1.5; stroke-linecap: round"/>
   </g>
   <g id="line2d_23">
    <path d="M 146.477541 390.2268 
L 146.477541 416.6892 
" clip-path="url(#p0fad1deffa)" style="fill: none; stroke: #464646; stroke-width: 1.5; stroke-linecap: round"/>
   </g>
   <g id="line2d_24">
    <path d="M 442.935893 390.2268 
L 442.935893 416.6892 
" clip-path="url(#p0fad1deffa)" style="fill: none; stroke: #464646; stroke-width: 1.5; stroke-linecap: round"/>
   </g>
   <g id="line2d_25">
    <path d="M 223.86306 469.614 
L 150.637993 469.614 
" clip-path="url(#p0fad1deffa)" style="fill: none; stroke: #464646; stroke-width: 1.5; stroke-linecap: round"/>
   </g>
   <g id="line2d_26">
    <path d="M 355.395431 469.614 
L 547.57349 469.614 
" clip-path="url(#p0fad1deffa)" style="fill: none; stroke: #464646; stroke-width: 1.5; stroke-linecap: round"/>
   </g>
   <g id="line2d_27">
    <path d="M 150.637993 456.3828 
L 150.637993 482.8452 
" clip-path="url(#p0fad1deffa)" style="fill: none; stroke: #464646; stroke-width: 1.5; stroke-linecap: round"/>
   </g>
   <g id="line2d_28">
    <path d="M 547.57349 456.3828 
L 547.57349 482.8452 
" clip-path="url(#p0fad1deffa)" style="fill: none; stroke: #464646; stroke-width: 1.5; stroke-linecap: round"/>
   </g>
   <g id="line2d_29">
    <path d="M 241.692577 535.77 
L 155.218231 535.77 
" clip-path="url(#p0fad1deffa)" style="fill: none; stroke: #464646; stroke-width: 1.5; stroke-linecap: round"/>
   </g>
   <g id="line2d_30">
    <path d="M 380.413886 535.77 
L 584.595521 535.77 
" clip-path="url(#p0fad1deffa)" style="fill: none; stroke: #464646; stroke-width: 1.5; stroke-linecap: round"/>
   </g>
   <g id="line2d_31">
    <path d="M 155.218231 522.5388 
L 155.218231 549.0012 
" clip-path="url(#p0fad1deffa)" style="fill: none; stroke: #464646; stroke-width: 1.5; stroke-linecap: round"/>
   </g>
   <g id="line2d_32">
    <path d="M 584.595521 522.5388 
L 584.595521 549.0012 
" clip-path="url(#p0fad1deffa)" style="fill: none; stroke: #464646; stroke-width: 1.5; stroke-linecap: round"/>
   </g>
   <g id="line2d_33">
    <path d="M 259.400311 601.926 
L 163.088667 601.926 
" clip-path="url(#p0fad1deffa)" style="fill: none; stroke: #464646; stroke-width: 1.5; stroke-linecap: round"/>
   </g>
   <g id="line2d_34">
    <path d="M 471.06234 601.926 
L 619.394405 601.926 
" clip-path="url(#p0fad1deffa)" style="fill: none; stroke: #464646; stroke-width: 1.5; stroke-linecap: round"/>
   </g>
   <g id="line2d_35">
    <path d="M 163.088667 588.6948 
L 163.088667 615.1572 
" clip-path="url(#p0fad1deffa)" style="fill: none; stroke: #464646; stroke-width: 1.5; stroke-linecap: round"/>
   </g>
   <g id="line2d_36">
    <path d="M 619.394405 588.6948 
L 619.394405 615.1572 
" clip-path="url(#p0fad1deffa)" style="fill: none; stroke: #464646; stroke-width: 1.5; stroke-linecap: round"/>
   </g>
   <g id="line2d_37">
    <path d="M 264.393227 668.082 
L 166.507571 668.082 
" clip-path="url(#p0fad1deffa)" style="fill: none; stroke: #464646; stroke-width: 1.5; stroke-linecap: round"/>
   </g>
   <g id="line2d_38">
    <path d="M 431.728116 668.082 
L 667.99162 668.082 
" clip-path="url(#p0fad1deffa)" style="fill: none; stroke: #464646; stroke-width: 1.5; stroke-linecap: round"/>
   </g>
   <g id="line2d_39">
    <path d="M 166.507571 654.8508 
L 166.507571 681.3132 
" clip-path="url(#p0fad1deffa)" style="fill: none; stroke: #464646; stroke-width: 1.5; stroke-linecap: round"/>
   </g>
   <g id="line2d_40">
    <path d="M 667.99162 654.8508 
L 667.99162 681.3132 
" clip-path="url(#p0fad1deffa)" style="fill: none; stroke: #464646; stroke-width: 1.5; stroke-linecap: round"/>
   </g>
   <g id="line2d_41">
    <path d="M 249.115727 734.238 
L 166.954295 734.238 
" clip-path="url(#p0fad1deffa)" style="fill: none; stroke: #464646; stroke-width: 1.5; stroke-linecap: round"/>
   </g>
   <g id="line2d_42">
    <path d="M 363.248283 734.238 
L 532.688652 734.238 
" clip-path="url(#p0fad1deffa)" style="fill: none; stroke: #464646; stroke-width: 1.5; stroke-linecap: round"/>
   </g>
   <g id="line2d_43">
    <path d="M 166.954295 721.0068 
L 166.954295 747.4692 
" clip-path="url(#p0fad1deffa)" style="fill: none; stroke: #464646; stroke-width: 1.5; stroke-linecap: round"/>
   </g>
   <g id="line2d_44">
    <path d="M 532.688652 721.0068 
L 532.688652 747.4692 
" clip-path="url(#p0fad1deffa)" style="fill: none; stroke: #464646; stroke-width: 1.5; stroke-linecap: round"/>
   </g>
   <g id="line2d_45">
    <path d="M 244.048357 800.394 
L 173.890127 800.394 
" clip-path="url(#p0fad1deffa)" style="fill: none; stroke: #464646; stroke-width: 1.5; stroke-linecap: round"/>
   </g>
   <g id="line2d_46">
    <path d="M 363.559568 800.394 
L 522.61602 800.394 
" clip-path="url(#p0fad1deffa)" style="fill: none; stroke: #464646; stroke-width: 1.5; stroke-linecap: round"/>
   </g>
   <g id="line2d_47">
    <path d="M 173.890127 787.1628 
L 173.890127 813.6252 
" clip-path="url(#p0fad1deffa)" style="fill: none; stroke: #464646; stroke-width: 1.5; stroke-linecap: round"/>
   </g>
   <g id="line2d_48">
    <path d="M 522.61602 787.1628 
L 522.61602 813.6252 
" clip-path="url(#p0fad1deffa)" style="fill: none; stroke: #464646; stroke-width: 1.5; stroke-linecap: round"/>
   </g>
   <g id="line2d_49">
    <path d="M 254.336121 866.55 
L 178.19799 866.55 
" clip-path="url(#p0fad1deffa)" style="fill: none; stroke: #464646; stroke-width: 1.5; stroke-linecap: round"/>
   </g>
   <g id="line2d_50">
    <path d="M 369.11407 866.55 
L 541.209346 866.55 
" clip-path="url(#p0fad1deffa)" style="fill: none; stroke: #464646; stroke-width: 1.5; stroke-linecap: round"/>
   </g>
   <g id="line2d_51">
    <path d="M 178.19799 853.3188 
L 178.19799 879.7812 
" clip-path="url(#p0fad1deffa)" style="fill: none; stroke: #464646; stroke-width: 1.5; stroke-linecap: round"/>
   </g>
   <g id="line2d_52">
    <path d="M 541.209346 853.3188 
L 541.209346 879.7812 
" clip-path="url(#p0fad1deffa)" style="fill: none; stroke: #464646; stroke-width: 1.5; stroke-linecap: round"/>
   </g>
   <g id="line2d_53">
    <path d="M 256.001424 932.706 
L 174.68181 932.706 
" clip-path="url(#p0fad1deffa)" style="fill: none; stroke: #464646; stroke-width: 1.5; stroke-linecap: round"/>
   </g>
   <g id="line2d_54">
    <path d="M 456.03458 932.706 
L 621.194773 932.706 
" clip-path="url(#p0fad1deffa)" style="fill: none; stroke: #464646; stroke-width: 1.5; stroke-linecap: round"/>
   </g>
   <g id="line2d_55">
    <path d="M 174.68181 919.4748 
L 174.68181 945.9372 
" clip-path="url(#p0fad1deffa)" style="fill: none; stroke: #464646; stroke-width: 1.5; stroke-linecap: round"/>
   </g>
   <g id="line2d_56">
    <path d="M 621.194773 919.4748 
L 621.194773 945.9372 
" clip-path="url(#p0fad1deffa)" style="fill: none; stroke: #464646; stroke-width: 1.5; stroke-linecap: round"/>
   </g>
   <g id="line2d_57">
    <path d="M 267.697082 998.862 
L 186.907251 998.862 
" clip-path="url(#p0fad1deffa)" style="fill: none; stroke: #464646; stroke-width: 1.5; stroke-linecap: round"/>
   </g>
   <g id="line2d_58">
    <path d="M 442.040198 998.862 
L 602.763075 998.862 
" clip-path="url(#p0fad1deffa)" style="fill: none; stroke: #464646; stroke-width: 1.5; stroke-linecap: round"/>
   </g>
   <g id="line2d_59">
    <path d="M 186.907251 985.6308 
L 186.907251 1012.0932 
" clip-path="url(#p0fad1deffa)" style="fill: none; stroke: #464646; stroke-width: 1.5; stroke-linecap: round"/>
   </g>
   <g id="line2d_60">
    <path d="M 602.763075 985.6308 
L 602.763075 1012.0932 
" clip-path="url(#p0fad1deffa)" style="fill: none; stroke: #464646; stroke-width: 1.5; stroke-linecap: round"/>
   </g>
   <g id="line2d_61">
    <path d="M 236.072039 46.2156 
L 236.072039 99.1404 
" clip-path="url(#p0fad1deffa)" style="fill: none; stroke: #464646; stroke-width: 1.5"/>
   </g>
   <g id="line2d_62">
    <path d="M 241.316003 112.3716 
L 241.316003 165.2964 
" clip-path="url(#p0fad1deffa)" style="fill: none; stroke: #464646; stroke-width: 1.5"/>
   </g>
   <g id="line2d_63">
    <path d="M 269.601461 178.5276 
L 269.601461 231.4524 
" clip-path="url(#p0fad1deffa)" style="fill: none; stroke: #464646; stroke-width: 1.5"/>
   </g>
   <g id="line2d_64">
    <path d="M 259.414341 244.6836 
L 259.414341 297.6084 
" clip-path="url(#p0fad1deffa)" style="fill: none; stroke: #464646; stroke-width: 1.5"/>
   </g>
   <g id="line2d_65">
    <path d="M 287.329399 310.8396 
L 287.329399 363.7644 
" clip-path="url(#p0fad1deffa)" style="fill: none; stroke: #464646; stroke-width: 1.5"/>
   </g>
   <g id="line2d_66">
    <path d="M 239.039728 376.9956 
L 239.039728 429.9204 
" clip-path="url(#p0fad1deffa)" style="fill: none; stroke: #464646; stroke-width: 1.5"/>
   </g>
   <g id="line2d_67">
    <path d="M 270.558514 443.1516 
L 270.558514 496.0764 
" clip-path="url(#p0fad1deffa)" style="fill: none; stroke: #464646; stroke-width: 1.5"/>
   </g>
   <g id="line2d_68">
    <path d="M 295.971689 509.3076 
L 295.971689 562.2324 
" clip-path="url(#p0fad1deffa)" style="fill: none; stroke: #464646; stroke-width: 1.5"/>
   </g>
   <g id="line2d_69">
    <path d="M 366.405661 575.4636 
L 366.405661 628.3884 
" clip-path="url(#p0fad1deffa)" style="fill: none; stroke: #464646; stroke-width: 1.5"/>
   </g>
   <g id="line2d_70">
    <path d="M 348.148688 641.6196 
L 348.148688 694.5444 
" clip-path="url(#p0fad1deffa)" style="fill: none; stroke: #464646; stroke-width: 1.5"/>
   </g>
   <g id="line2d_71">
    <path d="M 298.517346 707.7756 
L 298.517346 760.7004 
" clip-path="url(#p0fad1deffa)" style="fill: none; stroke: #464646; stroke-width: 1.5"/>
   </g>
   <g id="line2d_72">
    <path d="M 298.558502 773.9316 
L 298.558502 826.8564 
" clip-path="url(#p0fad1deffa)" style="fill: none; stroke: #464646; stroke-width: 1.5"/>
   </g>
   <g id="line2d_73">
    <path d="M 292.837133 840.0876 
L 292.837133 893.0124 
" clip-path="url(#p0fad1deffa)" style="fill: none; stroke: #464646; stroke-width: 1.5"/>
   </g>
   <g id="line2d_74">
    <path d="M 338.820597 906.2436 
L 338.820597 959.1684 
" clip-path="url(#p0fad1deffa)" style="fill: none; stroke: #464646; stroke-width: 1.5"/>
   </g>
   <g id="line2d_75">
    <path d="M 319.613678 972.3996 
L 319.613678 1025.3244 
" clip-path="url(#p0fad1deffa)" style="fill: none; stroke: #464646; stroke-width: 1.5"/>
   </g>
   <g id="patch_18">
    <path d="M 88.11 1031.94 
L 88.11 39.6 
" style="fill: none; stroke: #ffffff; stroke-width: 1.25; stroke-linejoin: miter; stroke-linecap: square"/>
   </g>
   <g id="patch_19">
    <path d="M 707.04 1031.94 
L 707.04 39.6 
" style="fill: none; stroke: #ffffff; stroke-width: 1.25; stroke-linejoin: miter; stroke-linecap: square"/>
   </g>
   <g id="patch_20">
    <path d="M 88.11 1031.94 
L 707.04 1031.94 
" style="fill: none; stroke: #ffffff; stroke-width: 1.25; stroke-linejoin: miter; stroke-linecap: square"/>
   </g>
   <g id="patch_21">
    <path d="M 88.11 39.6 
L 707.04 39.6 
" style="fill: none; stroke: #ffffff; stroke-width: 1.25; stroke-linejoin: miter; stroke-linecap: square"/>
   </g>
  </g>
  <g id="text_23">
   <!-- Finish Times by Name -->
   <g style="fill: #262626" transform="translate(281.197125 32.54175) scale(0.144 -0.144)">
    <use xlink:href="#DejaVuSans-46"/>
    <use xlink:href="#DejaVuSans-69" x="50.269531"/>
    <use xlink:href="#DejaVuSans-6e" x="78.052734"/>
    <use xlink:href="#DejaVuSans-69" x="141.431641"/>
    <use xlink:href="#DejaVuSans-73" x="169.214844"/>
    <use xlink:href="#DejaVuSans-68" x="221.314453"/>
    <use xlink:href="#DejaVuSans-20" x="284.693359"/>
    <use xlink:href="#DejaVuSans-54" x="316.480469"/>
    <use xlink:href="#DejaVuSans-69" x="374.439453"/>
    <use xlink:href="#DejaVuSans-6d" x="402.222656"/>
    <use xlink:href="#DejaVuSans-65" x="499.634766"/>
    <use xlink:href="#DejaVuSans-73" x="561.158203"/>
    <use xlink:href="#DejaVuSans-20" x="613.257812"/>
    <use xlink:href="#DejaVuSans-62" x="645.044922"/>
    <use xlink:href="#DejaVuSans-79" x="708.521484"/>
    <use xlink:href="#DejaVuSans-20" x="767.701172"/>
    <use xlink:href="#DejaVuSans-4e" x="799.488281"/>
    <use xlink:href="#DejaVuSans-61" x="874.292969"/>
    <use xlink:href="#DejaVuSans-6d" x="935.572266"/>
    <use xlink:href="#DejaVuSans-65" x="1032.984375"/>
   </g>
  </g>
 </g>
 <defs>
  <clipPath id="p0fad1deffa">
   <rect x="88.11" y="39.6" width="618.93" height="992.34"/>
  </clipPath>
 </defs>
</svg>
